<svg xmlns="http://www.w3.org/2000/svg" xmlns:xlink="http://www.w3.org/1999/xlink" width="162.94" height="157.174" viewBox="0 0 162.94 157.174">
  <defs>
    <clipPath id="clip-path">
      <rect id="Rectangle_267" data-name="Rectangle 267" width="145.101" height="138.327" fill="none" stroke="#d6693a" stroke-width="1"/>
    </clipPath>
  </defs>
  <g id="Group_563" data-name="Group 563" transform="translate(0 20.194) rotate(-8)">
    <g id="Group_562" data-name="Group 562" transform="translate(0 0)" clip-path="url(#clip-path)">
      <path id="Path_855" data-name="Path 855" d="M144.435,69.081c0,6.505-23.785,9.169-25.691,15.04-1.976,6.083,15.63,22.207,11.944,27.272-3.723,5.114-24.521-6.671-29.636-2.949-5.064,3.686-.259,27.124-6.343,29.1-5.871,1.906-15.737-19.819-22.242-19.819s-16.373,21.724-22.243,19.819c-6.083-1.976-1.279-25.414-6.343-29.1-5.114-3.723-25.913,8.063-29.636,2.948C10.56,106.327,28.165,90.2,26.191,84.12,24.284,78.249.5,75.586.5,69.081s23.784-9.169,25.691-15.04c1.976-6.083-15.63-22.207-11.944-27.272,3.723-5.114,24.521,6.671,29.635,2.948,5.065-3.685.26-27.123,6.344-29.1,5.87-1.906,15.737,19.819,22.242,19.819S88.84-1.287,94.71.619c6.084,1.976,1.279,25.414,6.344,29.1,5.114,3.721,25.913-8.063,29.635-2.948,3.685,5.064-13.92,21.188-11.944,27.271C120.651,59.912,144.435,62.575,144.435,69.081Z" transform="translate(0.083 0.083)" fill="none" stroke="#d6693a" stroke-miterlimit="10" stroke-width="1"/>
    </g>
  </g>
</svg>
