<svg xmlns="http://www.w3.org/2000/svg" viewBox="0 0 142.08 44.22"><g id="Layer_2" data-name="Layer 2"><g id="Layer_1-2" data-name="Layer 1"><path id="Path_793" data-name="Path 793" d="M35.41,40.71l.24-1.42c1.67.13.34,1.67,1.92,1.46.78-2,2.55.43,3.18-.59,0,.16.72.28.62.91.33-1.08.8-.19,1.3-.42.2-.29-.1-.34-.2-.68l1.13-.29c.4.39.45,1,0,1.12,2.83.64,16.47,2.88,19.6,2.61-.33-.86-1.33-.39-1.58-1.72.88-.65,1.18.36,1.61-.37.14,2,1.75.62,2.19,2.63l.33-1.08.35.71c3.68-.83.87-.49,4,.05,1.85,0,2.86-1.45,3.83-.8-.15,0-.5-.73,0-1,0,1,1.33-.58,1.48.41.48-.08,2,.17,1.58-1.18.2.68,1.52,1.06.67,1.56.45.08.88.31,1.23.05l-.55-.42c1.55-.05,2.3,1,3.4-.06l-.52-.57c.93,0,1.7,0,2,1.29l-1,.32A7,7,0,0,0,86,42.77l-.45-.07c1.73-1.16,10.28-1.49,11.91-3l-.6-1.07,1.35-.73c-.15,0-.9,3.22-1,2.88,2.75.14,17.1.61,19.58,1.51,1,.64,0,1.61,0,1.77,1.27-.27.63-1,1.68-.84.27.2-.13.78-.31.91.48-.07.88.31.95-.16-.54-.41-.19-1.64-.36-2.48l1.35.23-.13.79c.3,0,1-2.1,2.26-1.56,2.22.54,4.7.48,6.95.86-.08.47-.58.71-1.08,1,.3,0,.77,0,1,.33-.48-.88,1-.47.6-.86,1.83-1.79,3.83.16,5.41-1,.28-1.72,5.74-29.56,5.92-31.62.46.07.91.15,1,.33-.07-.49-1-.8-1.45-.57l-.18,1.1c-1.13.29-.2-.68-1.28-.7,0-.91,1-1,1.9-1-.77-.17-1.49-.9-1.89.07-.7-.45.17-1.1-.67-1.57-.65.21-1.56,1-2.23.43l0-.16c-1.68-1.09-2.81,1.14-4.33.08l.19-.29c-.52-.57-1.7,0-2.67-.61.28.2.47.88-.15.94-1.13-.68-2-.18-2.78-1l-.9.82c-4.08-.53-20.36-.68-24.49-.9l.17-.13c-6.3-.1-19.16-1.3-25.75-.64-.92-1-2.32-.88-3.35-1.21.55.41.3,1-.15.94-3.18-.38-.27.58-3.52.67-3.78.49-17.9-1.67-21.12-2.7-1.88,1.13-4,0-5.81.63l.2-.29C40,4.17,29.52,2.06,27.32,2.33l.27.2c-1.95.64-1.57-.75-3-1.31.07,1.46-1.62,2.14-2.25,2.19l.05-.31c-.95.16-3.16,1.23-4.71,1.29l.13-.78c-1.36.73-3.73.17-4.66.17C11.05,3.27,7.93,1.61,5,2.41L3.41,0,3.12.2s-5.3,26.93-2.09,33L.9,34l.75,0c.85.47,1.33-.41,1.2.37l-1.2-.2c.87.3.22.67-.16,1.09a2.27,2.27,0,0,1,1,.5c.2-.29-.11-.34-.23-.52.5-.24,1.23-.92,1.78-.51.9.16-.05,1.28,1,1.46,5.52,1.1,10.85,2.49,16.51,2.8.1.34-.06.31-.23.45,1.73-.2,3.23.06,4.8-.16a2.47,2.47,0,0,1,.58,1.23c-.2-.68,8.6,0,8.73.21" style="fill:#2ebfca"/></g></g></svg>