<?xml version="1.0" encoding="utf-8"?>
<!-- Generator: Adobe Illustrator 25.3.1, SVG Export Plug-In . SVG Version: 6.00 Build 0)  -->
<svg version="1.1" xmlns="http://www.w3.org/2000/svg" xmlns:xlink="http://www.w3.org/1999/xlink" x="0px" y="0px"
	 viewBox="0 0 5.1 538.4" style="enable-background:new 0 0 5.1 538.4;" xml:space="preserve">
<style type="text/css">
	.st0{fill:#FFFFFF;}
</style>
<g id="Layer_2">
</g>
<g id="Layer_1">
	<path class="st0" d="M1.5,538.3c0.1,0.2,0.4,0.1,0.4-0.5l-0.5-0.5L1.5,538.3z"/>
	<path class="st0" d="M2.5,534.1c-0.3-0.8-0.7-1.6-1.2-1.1c0.5,0.7,0.3,0.9,0.9,1.7c0.1,0.6-0.2,1.1-0.4,1c0.1,0.2-0.1,1,0.2,1.3
		c0.4-1,0.4-2,0.1-3C2.2,533.8,2.4,534,2.5,534.1z"/>
	<path class="st0" d="M3.3,471.9l-0.1,0.4C3.3,472.2,3.3,472.1,3.3,471.9z"/>
	<path class="st0" d="M3.6,433.4c0,0.3,0.1,0.4,0.1,0.4C3.7,433.6,3.6,433.3,3.6,433.4z"/>
	<path class="st0" d="M4.1,426.8v0.4C4.2,427.1,4.2,427,4.1,426.8z"/>
	<path class="st0" d="M3.3,471.9l0.2-1C3.3,470.8,3.3,471.4,3.3,471.9z"/>
	<path class="st0" d="M1.2,525.5c0,0.2,0.1,0.4,0.1,0.6c0-0.2,0-0.4,0-0.5L1.2,525.5z"/>
	<path class="st0" d="M3.7,488.9v0.3c0.1,0.1,0.1,0.2,0.2,0.3L3.7,488.9z"/>
	<path class="st0" d="M3.8,501.9c0-0.3-0.4-0.4-0.6-0.5c0.2,0.2,0.3,0.4,0.3,0.6C3.6,502,3.7,502,3.8,501.9z"/>
	<path class="st0" d="M3,522.6l0.1,0.4C3.1,522.8,3,522.7,3,522.6z"/>
	<path class="st0" d="M3.8,479.6c0.1,0,0.1-0.1,0.2-0.1C3.9,479.4,3.9,479.5,3.8,479.6z"/>
	<path class="st0" d="M0.5,115.2C0.5,115.2,0.5,115.2,0.5,115.2C0.6,115.2,0.5,115.1,0.5,115.2z"/>
	<path class="st0" d="M2.7,100.1v0.2c0.1,0,0.2,0,0.2,0L2.7,100.1z"/>
	<path class="st0" d="M4.7,414.8L4.7,414.8C4.8,415.2,4.8,415,4.7,414.8z"/>
	<path class="st0" d="M4.4,304.3c-0.4,1.2-0.5-2-1-0.1C3.6,304,4.1,305.9,4.4,304.3z"/>
	<path class="st0" d="M1.3,525.2c0-0.2,0-0.4,0-0.5C1.3,524.8,1.3,525,1.3,525.2z"/>
	<path class="st0" d="M3.4,304.2L3.4,304.2v0.2V304.2z"/>
	<path class="st0" d="M4.5,387.1c-0.1,0.1-0.2,0.2-0.2,0.3C4.3,387.4,4.4,387.3,4.5,387.1z"/>
	<path class="st0" d="M3.8,407.7l0.1-0.5C3.8,407.4,3.8,407.6,3.8,407.7z"/>
	<path class="st0" d="M3.8,376.4c0-0.2,0-0.5,0-0.8c0,0,0,0.1-0.1,0.1C3.9,375.9,3.9,376.1,3.8,376.4z"/>
	<path class="st0" d="M3.8,365.2c0,0.1-0.1,0.1-0.1,0.2c0,0.1,0,0.2,0,0.4L3.8,365.2z"/>
	<path class="st0" d="M0.7,149.1c0.1-0.2,0.2-0.4,0.4-0.5C0.8,148.8,0.7,147.1,0.7,149.1z"/>
	<path class="st0" d="M1.5,525.5c-0.1-0.1-0.2-0.2-0.2-0.3v0.4C1.4,525.6,1.4,525.6,1.5,525.5z"/>
	<path class="st0" d="M0.3,375.9l0.1-1.8C0.4,374.6,0.3,375.3,0.3,375.9z"/>
	<path class="st0" d="M0.8,229.2l-0.1-0.4C0.7,228.9,0.7,229.1,0.8,229.2z"/>
	<path class="st0" d="M0.3,368.9c0.1-0.3,0.2-0.7,0.3-1c0-0.1-0.1-0.1-0.1-0.2L0.3,368.9z"/>
	<path class="st0" d="M1.1,148.6"/>
	<path class="st0" d="M0,136.9c0,1.7,0.6,0.8,0.9,1.1c0.2,2-0.4,0.9-0.7,1.6c0.2,1.3,0.7,2.2,0.7,3.2c-0.1,0.1-0.1,0.3-0.2,0
		c0.5,1.3,0,4,0.6,5.5c0,0.1-0.1,0.2-0.1,0.2c0.2-0.2,0.5-0.3,0.8-0.2c0,0.8,0.4,1.4,0,1.7c0-0.5-0.1-0.5-0.3-0.7l0.2,0.8
		c-0.5,0.7-0.2-1.1-0.6-1.1c0.3,1.5,0.5,3,0.5,4.5c-0.5,0.2-0.2-2.8-0.7-1.2l0.2-1.8c-0.8,1.4,0.1-1.1-0.8,0.2
		c-0.2,2.4,0.3,2.7,0.1,5.1c0.3,0.6,0.4-0.2,0.7,0.4c0.5,3.4-1.4,2.7-0.6,5.2c0.7,0.7,1,1.7,0.7,2.7l-0.6-0.6
		c-0.1,2.3,0.9,1.3,0.5,3.8c-0.2-0.4-0.2-1.8-0.3-1.5c-0.5,1.6,0.3,1.1,0.3,2.3l-0.5,0.2c0.1,2.5,0.5,5.2,0.6,8
		c-0.2-0.2-0.3-0.6-0.5,0c0.2,3.6,0,7.2-0.4,10.8l0.5,1.3c0,0.3-0.2,0.6-0.3,0.2c-0.2,1.3,0.3,0.1,0.5,0.7c0,0.7-0.3,1-0.4,0.5
		c0.4,2.3,0.8,6.6,0.4,9l-0.1-0.5c-0.2,1.9,0.9,2.1,0.5,3.9l-0.1-0.3c-0.2,4.1,0.2,8.7-0.5,11.8c0.7,0.6-0.3,4.1,0.6,4.3
		c-0.5,2.4-0.6,1.7-0.9,5c0,0.9,0.6,1.3,0.7,2.4H0.6l0.5,1.5l-0.6,0.8l0.1,1c0-0.4,0.2-0.9,0.4-0.8c0.2,1.6-0.3,3.9-0.6,3.9l0.4,3.8
		c-0.2-0.1-0.3-0.7-0.4-1.2c0.5,2-0.5,0.4-0.1,2.2c0.1-0.2,0.3,0.1,0.4,0.2c-0.3,1.5-0.3,3-0.2,4.6l-0.3-0.3
		c-0.1,2.8,0.2,5.9,0.2,9.1c0.2-1.1,0.7-0.9,0.8,0.1l-0.5,0.4c0.3,0.6,0.2-1,0.6,0.3c-0.1,1.2-0.6,0.8-0.8,0.1l0.2,1.4
		c-0.2,0.1-0.2-0.2-0.4-0.3c0.3,0.6-0.5,2.5,0,3.3l-0.2,0.1c0,3.1,0.2,4.6,0.2,7.1c0.4,0,0.4,1.1,0.7,1.8c-0.1,1.9-0.5,4-0.5,6.2
		c0.2,1.6,0.4,0.5,0.6,1.2c-0.4,0.1-0.4,2.4-0.6,1.2c0.1,2.7,0.1,3.5,0.4,6.9c0.2-0.4,0.2-0.8,0.4-0.6c0.1,0.6-0.2,1.4-0.4,1.3v-0.2
		c0.6,3.9-1.2,8.9-0.3,12v-0.2l0.4,3.2c-0.1,1.5-0.3-0.9-0.6,0.2c0.7,3.4-0.1,5.4,0.4,8.3c-1.2,2.2,0.1,7.8-0.7,10.8l0.3-0.2
		c0.3,0.8-0.2,0.9-0.2,1.5c0.2-0.1,0.2-0.8,0.4-0.4c0.3,6.5-0.4,13.4-0.7,20c-0.1,2.4,1.5,1.4,0.8,4.4l-0.5-0.9
		c0.6,4.9,0,10,0.5,14.8c-0.1-0.3-0.3-0.3-0.3-0.8c-0.4,1,0,3.8,0.3,3.8c0,0.8-0.3,0.2-0.4,0.6c-0.2,1,0.5,2.6,0.1,3.1
		c-0.1,0.1-0.1-0.3-0.1-0.5c0.2,0.7-0.1,3.1,0.4,2.5c-0.2,1.8,0.2,3.5-0.1,4.9c0.5,0.9-0.2,3.1,0.5,3.4c-0.7-0.1-0.6,3.2-0.2,4.3
		c-0.2-0.4-0.2,1-0.5,0.5c0,1.3,0.1,2.5,0.5,2.3c-0.9,2.4,0.7,4.8-0.4,6.2c0.4,3.9,0.6,7.4,0.8,10.9c-0.7-0.1-0.1-3.8-0.8-3.7
		c0.3,3.3,0.9,5.2,0.7,8.5c-0.1,0.9-0.3-0.5-0.4-0.8c0.3,3.3-0.1,6.4,0.3,9.3c-0.1,0-0.1-0.3-0.2-0.6c0,0.6-0.1,1.4,0.2,1.3L1,408.7
		c0.5-0.9,1,2.3,1.2,2.4c-0.9-1-0.2,2.9-1.4,1.3c0.1,0.4,0.2,0.9,0.4,0.8c-0.1,0.6-0.2,0.7-0.4,0.2c0.2,2.1,0.5,1.3,0.5,3.2
		c-0.2,0-0.2-0.4-0.4-0.6c0.4,1.1,0.6,2.3,0.5,3.5c-0.1-0.1-0.2,0.1-0.2-0.4c0.1,2.7,0.8,4.6,0.5,7.6c-0.7-0.9-0.2,1-0.8,1.2
		l0.2,1.6l0.3-0.6c0,1.4,0.4,2.6,0.2,3.9l-0.2-1l0.1,2.6l0.2-1.5c0.3,1.4,0.7-0.1,0.6,1.7c-0.1,0.7-0.2,1.4-0.4,2.1l0,0
		c0.3,0.8,0.3,1.6,0.2,2.5c-0.2,0.3-0.6-0.2-0.8,0c0.5,0.7,0.1,3.3,0.7,4.2c-0.1-0.3-0.4-0.3-0.5-0.2l0.4,0.6
		c-0.1,0.6-0.2,0.8-0.4,0.6c-0.1,2,0.8-0.6,0.4,1.7c0-0.2-0.1-0.1-0.2-0.5c-0.2,2.3,0.3,4.5,0.1,6.7c-0.6,0.6-0.1-1.9-0.6-1.1
		c0.1,3.1,0.7,6.4,0.6,9.4l0.1-0.6c0.8,0.4-0.4,2.2,0,3.7c-0.1-0.4-0.5-0.5-0.4-0.4c0,2.4,0.2,4.9,0.5,7.3l-0.2-0.4
		c-0.2,1.2-0.1,3.2-0.2,4.5c0.2,0.4,0.2,1.1,0.5,0.7c-1.2,4,0.7,7.7-0.4,11.3c0-0.4-0.2-1-0.2-0.7l0.2,3c0.4-0.2,0.2-0.4,0.5-1
		c0.3,0.6,0.4,1.3,0.4,2c-0.2-1.4-0.6,0-0.8,0.6c0.1-0.1,0.2,0.1,0.4,0c-0.6,1.6,0.7,0.3,0.3,2.4l-0.2-0.1c0.2,0.8,0.3,1.6,0.3,2.4
		c-0.4,0.4-0.2-0.9-0.6-0.9c0,1.2,0.8,2.4,0.4,3.5c-0.1-0.5-0.1-1.3-0.2-1.8c-0.3,0.7-0.5,1.5-0.4,2.3v-0.1l-0.2,2.1l0.1-0.5
		c1.1,1.5,0.2,3.1,0.9,5.2c-0.7-2-0.4-0.3-0.9-0.5c-0.1,0.5-0.3,1.3-0.4,1.1c0.4,1-0.3,1.6,0.3,3c-0.1,0.1,0,1-0.4,0.8
		c0.1,1.3,0.3-0.3,0.5-0.2c0.5,2-0.6,4.6,0.1,7.4c0.3,2.4,0.8,2.9,1.1,5.1c-0.2,0.8-0.6-0.6-0.6-0.6c-0.2,1.1-0.2,2.2,0,3.3
		c-0.1-0.2-0.2,0-0.4,0.4c0,0.9,0.6,0.6,0.3,1.9c-0.3-0.3-0.5-0.6-0.6-0.9c0.1,1.1,0.4,2.2,0.6,3.3c-0.3,0.3-0.4-0.7-0.6-1.1
		c0.1,1.3,0.2,3.3,0.7,3.7l0.1-0.8c0,0.5-0.4,0.2-0.4-0.1c-0.3-1.1,0.1-1.6,0.3-1.6l0.1,0.8c0.9-0.8-0.1-3.2-0.1-4.9l0.7,0.7
		l-0.5-1.7c0.2-0.4,0.5-0.6,0.6,0.2c0.3-1.2-0.2-1,0.1-2c0.1-0.1,0.1-0.1,0.1,0l-0.2-1.1c0.1,0.2,0.5-0.2,0.4,0.5
		c0.4-2-0.5-3.3,0-4.1v0.2c-0.2-2.8-0.5-0.3-1.1-2.4l1.2-1.4l-0.5-0.3c0-0.3,0.1-0.9,0.2-0.8c-0.3-1.1-0.2,0.2-0.5-0.4
		c0.4-1.4-0.2-3.9,0.6-4.2c-0.4-0.5-0.3,1.4-0.5-0.2c0.8-0.4-0.1-1.7,0.2-3c0.4,0.4,0.2,1.6,0.6,0.3c-0.7-0.8,0.2-2.5,0-3.6
		c-0.6,0-0.2-2.4-0.4-4.2c0.2,0.1,0.3-3.4,0.5-5.1l0.1,0c-0.6-0.3-0.5-2.1-0.6-3.4c0.4,0,0.5,0.3,0.6,1v-1.2
		c-0.2-0.4-0.4-0.9-0.4-1.4l0.4,0.3c0-1.6-0.5-3.2-0.2-5.3c-0.4-0.1-1.1,1.6-1.4-0.5c0.2-0.1,0.6-0.2,0.7,0.4
		c-0.1-0.3-0.1-0.7-0.1-1l0.4,0.9c0.2-0.9-0.3-0.5-0.3-1.2c0.3,0,0.2-0.5,0.5-0.4c0,0.2-0.1,0.6,0,0.9c0-0.8,0.2-1.5,0.5-2.2
		c-0.2,0.1-0.4,0-0.5-0.6c0-1.6,0.4-0.5,0.5-1.5c-0.2-0.4,0-1.4-0.5-1.4c0-0.5,0.2-0.6,0.3-0.7c-0.2-0.8,0-3.9-0.6-2.9v0.2
		c0,0,0-0.1,0-0.1l0,0c-0.5-2.7,0.3-5.6,0.1-8.3h0.2c-0.1-1.6-0.2-3.2-0.4-4.7c0-0.5,0.3-1.1,0.5-0.9c-0.2-1-0.2-2.1,0-3.1
		c0.3,1.2,0.2-0.4,0.2,1.3c0.3-1.2,0.3-2.5,0-3.7c0.4,0.6,0.5-1.2,0.4-2l-0.3,1.1c-0.1-0.8-0.1-1.6,0-2.3l0.5,0.4
		c0.6-3.2-1.1-5.9,0-8.4c-0.4-0.9-0.3,1.8-0.7,1c0.2-1.2,0.5-2.4,0.8-3.5c0.3-2-0.8-1.9-0.6-4.1c-0.2,0.3-0.7,0.5-0.9-1.1
		c0.1-1.5,0.8-1.8,0.9-0.9c0,0.4-0.1,0.5-0.1,0.5c0.1,0.5,0.1,1.1,0.4,0.5L4,434.1c0.2-0.8,0.2-2.8,0.5-2.3
		c-0.2-1.1-0.3-0.5-0.4,0.4c0.3-1.9,0-3,0.2-5c-0.1,0.3-0.3,0.6-0.3,0.3c0.2-2.9-0.4-1.3-0.4-3.2c0.3-1.1,0.7,0.4,0.4-1.6
		c0.2-1.2,0.5-0.2,0.6,0.2c-0.4-1.8,0.2-3.4,0.3-4.4l0.1,1c-0.1-0.5-0.1-1-0.1-1.5l-0.4,0.5c0.1-0.5,0.1-1,0.2-1
		c-0.2-0.6-0.6,0.4-1-0.7c0.2-0.7-0.2-2.3,0.3-2.5c-0.2,2.3,0.5-0.3,0.6,1.7c-0.1-0.5-0.1-0.9,0-1.4c0.1-0.1,0.1,0.1,0.1,0.2
		c0.4-2.2-0.6-1-0.6-3.4c0.3,0.3,0.5-0.5,0.5-0.9c0,0.9-0.5,0.5-0.7-0.4c0.2-1.5-0.2-1.6-0.1-2.4l-0.1,0.9c-0.3-0.3-0.2-1-0.3-2.1
		c0.2-0.1,0.1,1,0.2,0.6c-0.5-1.2,0.5-2.6,0.2-4.2c0.2-0.7,0.5-0.1,0.7-0.7c-0.4-1.8,0.4-1.9,0.1-3.8c-0.4,0.5-0.3,0.6-0.6-0.7
		l0.3,3.1l-0.6-2c0,0.9,0.2,2,0.2,2.5c-0.3-1-0.2-0.9-0.5-0.4c0.6-1.3-0.3-2.5,0.1-4h0.9c0.4-2.2-0.5-4-0.2-6.9l-0.2,0.9
		c-0.4-0.4-0.1-1.8-0.2-2.7c0.3,0.1,0.4-0.5,0.6-0.9c-0.2,0,0-2.1-0.6-2.4l0.4-1.3c0.2-2.3-0.9-2.7-0.8-4.9c0.3,0.7,0.6-0.3,0.8,1.2
		c0-0.8,0.1-1.4-0.1-1.4c0.2-0.4-0.4-2.1-0.1-2.8c-0.3-0.3-0.5-0.8-0.4-1.3c0.1-0.1,0.2,0,0.2,0c-0.2,0-0.2-1.3-0.6-0.6
		c1-2.3-0.1-6.5,0.8-8.5c-0.1-1.6-0.2-3.6-0.2-5.1c0.1,0.1,0.2,0,0.1,0.3c0.3-2-0.9-1.3-0.6-3.6c0.5-1.2,0.3,1.2,0.5,0.5
		c1-0.3-0.1-2.8,0.4-4.4l0.1,0.4c0.4-1.2-0.4-2.9-0.3-4.9c0,0,0.1,0.1,0.1,0c-0.5-1.9-0.8-3.8-0.8-5.8c0.4,0.6,0.2,0.9,0.6,0.5
		c-0.1-0.8-0.6,0.2-0.8-1.4c0.2-0.6,0.4-1.8,0.9-1.9v1.6c0.6-0.8,0-2.1,0.1-2.9l0.2,0.1c-0.1-2.4-0.7-2.5-0.7-5.1l-0.2,0.3
		c-0.6-1.4,0.3-1.2-0.1-2.6l0.6-0.4c-0.1-1-0.6-3.3-0.7-5c0.5,1.4,0.8,2.8,1,4.2c0.1-1.2-0.1-2.5-0.4-3.7c0.1,0.4,0.2,0.8,0.1,1.2
		c-0.5-1.4-0.8-3-0.7-4.5c1.2,0.3,0.3-4.9,1.2-6.2c-0.4-3.3,0.2-6.6,0.1-10.4c-0.9,1.4,0-1.1-1-0.9c-0.1-0.4-0.1-0.9,0-1.3l0.6-2.7
		c0.3-0.6,0.2,0.9,0.4,0.8c0.1-2,0.4-0.8,0.7-2.1c-0.3,0.3-0.5-0.7-0.4-1.8l-0.4,1.6c-0.5-2.8,0.8-2.4,0.3-5.1l0.3,0.9
		c-0.2-1.4,0-5.2-0.8-6.6c0.1-0.2,0.4-0.6,0.4,0c0.1-3.4-0.8-7.5-0.4-10.2l0.2,0.3c-0.1-0.6-0.4-1.1-0.2-1.9c0.1,0,0.2,0.3,0.2,0
		c-0.2-0.8-0.3-1.7-0.3-2.5l0.3,0.7c0.3-3.3-0.6-5.1-0.8-7.9c0.7,0,0.9-2.6,1-3.9h0.1c0.1-3.9-0.6-6.6-0.9-10.1
		c0.8-2.2,0.3-7.5,0.7-11.1c-0.1,0.6-0.5-0.1-0.6-0.7c0.1-0.8-0.5-2.3,0.2-2.2v0.3c0.6-0.6,0.5-2.4,0.5-3.7l-0.8-0.2
		c1.2-3.5-0.4-9.2,0.6-11.1c-0.2-0.9-0.2-1.9-0.4-2.7h0.4c0.1-2.1,0.2-4.3,0.1-6.4l0.3,0.6c0-1.6-1.3-2.1-1.3-3.6l0.7-0.4
		c0-2.8,0.6-5.7,0-8.6c0.1,0,0.3,0.1,0.3,0.6c0-1.3,0.4-5.2-0.5-4.7c0.6,0,0.1-3-0.2-4.5l0.4,0.2c-0.5-1-0.8-2-0.9-3.1
		c0.1-0.4,0.4-0.4,0.2,0.2c0.2-1.4-0.4-1.1-0.2-2.9l0.3,0.6c0.1-0.8-0.1-1.5-0.4-2.2c-0.2-0.9,0.1-2.8,0.5-3
		c-0.4-0.5-0.6-1.2-0.4-1.9c0.1-0.1,0.2,0.2,0.3,0.4c0.3-2.5-0.5-3.7-0.1-5.4c0.1,0,0.2-0.1,0.3-0.3c0,2,0,3.5-0.1,3.4
		c0.4,0,0.5-1.6,1-0.3c-0.5-1.6-0.8-3.3-0.8-5c0-0.1,0.1-0.2,0.1-0.2v0.2c0-0.3,0-0.7-0.1-1c0.1-0.4,0.1-0.9,0.1-1.3
		c0.3-0.2,0.2-1.8,0.2-2.6c-0.4,0.1-0.4-1-0.7,0c0-0.1,0,0.1,0.1,0.7c0,0.1,0,0.2,0,0.3c0,0,0,0,0-0.1c0,0.5,0,1.2,0,2
		c-0.3-0.7-0.4-1.4-0.2-2.1c-0.3-0.3-0.5-0.6-0.7-0.9c0.6-1.1,1-3.2,1.3-3.4c-0.2-2.4-0.2-5.7-1-7.2c-0.1-0.7,0.2-0.8,0.4-1
		c0,0.4,0.1,0.7,0.2,1.1c-0.2-1.4-0.1-4.1-0.7-4.4c0.3-1.7,0.5,1,0.4-1.4l0.2,0.3c0.9-4.7-1.5-7.6-0.3-12.8
		c-0.1,0.4-0.1,0.5-0.2,0.6c0.5-5.9-0.5-12.2,0.4-18c0.1-1-0.1-2-0.5-2.8l0.5-0.4l-0.6-1.7c-0.4-2.5,1.2-4.2,0.4-7.3l-0.3,0.4
		c0.1-1.1-0.2-3.5,0.2-3.3c-0.2-0.2-0.3-0.5-0.2-0.8h0.2L3,105.8c0.2-2.1,1,0.3,1-2.8c-0.1-1.2-0.7-3.3-0.9-2.8
		c0,0.5-0.1,1.2-0.4,1.2l-0.1-1.1c-0.7-0.2-1.5-1-2,1.6l0.4,1.8l-0.4,0.6v-1.5c-0.2,0.7-0.2,1.4,0.2,2c-0.2,0.2-0.4,0.5-0.4,0.8
		l0.7,1.8c-0.3,0.2-0.6-0.8-0.7,0.4c0.3,0.8,0.6-0.8,0.9,0.6c-0.3,0.9-0.6,0.6-0.3,1.6c-0.2,0.1-0.3-0.1-0.4-0.5
		c0.2,0.9,0.1,2.4,0.5,2.8c-0.4,0.9,0.1,3-0.6,2.9c0.3,0.8,0.5,1.6,0.6,2.4c-0.8-1.5-0.1,3.1-0.9,2.7c0.8,1.1,0.3,4,0.7,6
		c-0.1-0.1-0.1-0.3-0.1-0.5c-0.1,0.7-0.2,1.5-0.4,2.2c0.6,0.1,0.8,1.9,1.1,2.8c-0.6,1.4-0.7-0.8-1.3-0.4c0.5-0.1,0.5,2.4,0.9,1.9
		c-0.4,1-0.2,0.9-0.7,1.4c0.8,0.2,0.1,1,0.6,1.8c-0.4,1.5-0.7,0.4-0.5,2.1C0.3,138.4,0,136.9,0,136.9z M1.3,176.4L1.3,176.4
		c0-0.3,0-0.6,0-0.8C1.4,175.7,1.4,176,1.3,176.4L1.3,176.4z M1.3,179.7c0-0.4,0-0.9,0-1.4c0.1-0.1,0.3,0,0.3,0.3
		C1.6,178.4,1.5,179.2,1.3,179.7L1.3,179.7z M4.4,172.7c0.1,0.5,0,0.7-0.1,0.8c0-0.2,0-0.5-0.1-0.9c0,0,0,0,0-0.1
		C4.3,172.5,4.4,172.6,4.4,172.7L4.4,172.7z"/>
	<path class="st0" d="M3.9,171.7c0-0.1,0-0.1,0-0.2c0,0.1-0.1,0.2-0.1,0.3l0.1,0.2L3.9,171.7z"/>
	<path class="st0" d="M3.2,472.4L3.2,472.4L3.2,472.4C3.2,472.4,3.2,472.4,3.2,472.4z"/>
	<polygon class="st0" points="0.5,225.5 0.6,225.5 0.6,225.2 	"/>
	<path class="st0" d="M1.7,490.7c-0.1,0.1-0.1,0.2-0.1,0.2C1.6,490.8,1.7,490.7,1.7,490.7z"/>
	<path class="st0" d="M1.6,498.5l-0.2,1.1C1.5,499.2,1.6,498.8,1.6,498.5z"/>
	<path class="st0" d="M1.4,504.6c0,0.1,0.1,0.1,0.2,0.1l0,0L1.4,504.6z"/>
	<path class="st0" d="M0.9,408.1c0-0.1,0-0.2,0-0.2C0.8,407.4,0.8,407.7,0.9,408.1z"/>
	<path class="st0" d="M1.9,436.9c-0.1-0.3-0.2-0.6-0.2-0.9C1.6,436.4,1.6,436.8,1.9,436.9z"/>
	<path class="st0" d="M0.3,376.1L0.3,376.1c0-0.1,0-0.1,0-0.2V376.1z"/>
	<path class="st0" d="M1.7,434.6c-0.1,0.4-0.1,0.9,0,1.3C1.7,435.5,1.7,435,1.7,434.6z"/>
	<path class="st0" d="M1.2,530.9v0.3c0,0,0.1,0,0.1,0L1.2,530.9z"/>
	<path class="st0" d="M1.2,531.2v0.3C1.3,531.4,1.3,531.3,1.2,531.2z"/>
	<path class="st0" d="M1.4,532.2l-0.1-0.7C1.2,531.8,1.3,532,1.4,532.2z"/>
	<path class="st0" d="M1.4,522.9l-0.2-0.1C1.3,522.8,1.3,522.9,1.4,522.9z"/>
	<path class="st0" d="M1.3,520.4c-0.2,0.8-0.2,1.5-0.2,2.3l0.1,0.1C1,522.4,1.6,521,1.3,520.4z"/>
	<path class="st0" d="M3.3,510.3l-0.1,2c0.2-0.4,0.4-0.8,0.4,0.1C4.1,509.8,3.2,512.9,3.3,510.3z"/>
	<path class="st0" d="M3.6,503.9c0.1,1.1,0.2,0,0.4,0C3.8,503.3,3.7,503.1,3.6,503.9z"/>
	<path class="st0" d="M3.6,458.1l0.4,0.1C3.9,457.3,3.8,458.2,3.6,458.1z"/>
	<polygon class="st0" points="1.5,449.3 1.2,450.1 1.6,450.5 	"/>
	<polygon class="st0" points="4.4,444.1 4.4,444.5 4.3,443.1 	"/>
	<path class="st0" d="M4.2,367.2l-0.5,0.2C3.8,368,4.4,368.1,4.2,367.2z"/>
	<path class="st0" d="M3.7,334c0.3-0.6,0.4-1.2,0.2-1.9C3.8,332.7,3.7,333.3,3.7,334z"/>
	<polygon class="st0" points="4.5,234.3 4.7,235 4.6,233.7 	"/>
	<path class="st0" d="M0,36.9c0,1.7,0.6,0.8,0.9,1.2c0.2,2-0.4,0.9-0.7,1.6c0.2,1.3,0.7,2.2,0.7,3.2c-0.1,0.1-0.1,0.3-0.2,0
		c0.5,1.3,0,4,0.6,5.5c0,0.1-0.1,0.2-0.1,0.2c0.2-0.2,0.5-0.3,0.8-0.2c0,0.8,0.4,1.4,0,1.7c0-0.5-0.1-0.5-0.3-0.7l0.2,0.8
		C1.2,50.8,1.6,49,1.2,49c0.3,1.5,0.5,3,0.5,4.5c-0.5,0.2-0.2-2.8-0.7-1.2l0.2-1.8c-0.8,1.4,0.1-1.1-0.8,0.2
		c-0.2,2.4,0.3,2.7,0.1,5.1c0.3,0.5,0.4-0.2,0.7,0.4c0.5,3.4-1.4,2.7-0.6,5.2c0.7,0.7,1,1.7,0.7,2.7l-0.6-0.6
		c-0.1,2.3,0.9,1.3,0.5,3.8c-0.2-0.4-0.2-1.8-0.3-1.5c-0.5,1.6,0.3,1.1,0.3,2.3l-0.5,0.2c0.1,2.5,0.5,5.2,0.6,8
		c-0.2-0.2-0.3-0.6-0.5,0c0.2,3.6,0,7.2-0.4,10.8l0.5,1.3c0,0.3-0.2,0.6-0.3,0.2c-0.2,1.3,0.3,0.1,0.5,0.7c0,0.7-0.3,1-0.4,0.5
		c0.4,2.3,0.8,6.6,0.4,9l-0.1-0.5c-0.2,1.9,0.9,2.1,0.5,3.9l-0.1-0.3c-0.2,4.1,0.2,8.7-0.5,11.8c0.7,0.6-0.3,4.1,0.6,4.3
		c-0.5,2.4-0.6,1.7-0.9,5c0,0.9,0.6,1.3,0.7,2.4H0.6l0.5,1.5l-0.6,0.8l0.1,1c0-0.4,0.2-0.9,0.4-0.8c0.2,1.6-0.3,3.9-0.6,3.9l0.4,3.8
		c-0.2-0.1-0.3-0.7-0.4-1.2c0.5,2-0.5,0.4-0.1,2.2c0.1-0.2,0.3,0.1,0.4,0.2c-0.3,1.5-0.3,3-0.2,4.6l-0.3-0.3
		c-0.1,2.8,0.2,5.9,0.2,9.1c0.2-1.1,0.7-0.9,0.8,0.1l-0.5,0.4c0.3,0.6,0.2-1,0.6,0.3c-0.1,1.2-0.6,0.8-0.8,0.1l0.2,1.4
		c-0.2,0.1-0.2-0.2-0.4-0.3c0.3,0.6-0.5,2.5,0,3.3l-0.2,0.1c0,3.1,0.2,4.6,0.2,7.1c0.4,0.1,0.4,1.1,0.7,1.8c-0.1,1.9-0.5,4-0.5,6.2
		c0.2,1.6,0.4,0.5,0.6,1.2c-0.4,0.1-0.4,2.4-0.6,1.2c0.1,2.7,0.1,3.5,0.4,6.9c0.2-0.4,0.2-0.8,0.4-0.6c0.1,0.6-0.2,1.4-0.4,1.3v-0.2
		c0.6,3.9-1.2,8.9-0.3,12v-0.2l0.4,3.2c-0.1,1.5-0.3-0.9-0.6,0.2c0.7,3.4-0.1,5.4,0.4,8.3c-1.2,2.2,0.1,7.8-0.7,10.8l0.3-0.2
		c0.3,0.8-0.2,0.9-0.2,1.5c0.2-0.1,0.2-0.8,0.4-0.4c0.3,6.5-0.4,13.4-0.7,20c-0.1,2.4,1.5,1.4,0.8,4.4l-0.5-0.9
		c0.6,4.9,0,10,0.5,14.8c-0.1-0.3-0.3-0.3-0.3-0.8c-0.4,1,0,3.8,0.3,3.8c0,0.8-0.3,0.2-0.4,0.6c-0.2,1,0.5,2.6,0.1,3.1
		c-0.1,0.1-0.1-0.3-0.1-0.5c0.2,0.7-0.1,3.1,0.4,2.5c-0.2,1.8,0.2,3.5-0.1,4.9c0.5,0.9-0.2,3.1,0.5,3.4c-0.7-0.1-0.6,3.2-0.2,4.3
		c-0.2-0.4-0.2,1-0.5,0.5c0,1.3,0.1,2.5,0.5,2.3c-0.9,2.4,0.7,4.8-0.4,6.2c0.4,3.9,0.6,7.4,0.8,10.9c-0.7-0.1-0.1-3.8-0.8-3.7
		c0.3,3.3,0.9,5.2,0.7,8.5c-0.1,0.9-0.3-0.5-0.4-0.8c0.3,3.3-0.1,6.4,0.3,9.3c-0.1,0-0.1-0.3-0.2-0.6c0,0.6-0.1,1.4,0.2,1.3L1,308.7
		c0.5-0.9,1,2.3,1.2,2.4c-0.9-1-0.2,2.9-1.4,1.3c0.1,0.4,0.2,0.9,0.4,0.8c-0.1,0.6-0.2,0.7-0.4,0.2c0.2,2.1,0.5,1.3,0.5,3.2
		c-0.2,0-0.2-0.4-0.4-0.6c0.4,1.1,0.6,2.3,0.5,3.5c-0.1-0.1-0.2,0.1-0.2-0.4c0.1,2.7,0.8,4.6,0.5,7.6c-0.7-0.9-0.2,1-0.8,1.2
		l0.2,1.6l0.3-0.6c0,1.4,0.4,2.6,0.2,3.9l-0.2-1l0.1,2.6l0.2-1.5c0.3,1.4,0.7-0.1,0.6,1.7c-0.1,0.7-0.2,1.4-0.4,2.1l0,0
		c0.3,0.8,0.3,1.6,0.2,2.5c-0.2,0.3-0.6-0.2-0.8,0c0.5,0.7,0.1,3.3,0.7,4.2c-0.1-0.3-0.4-0.3-0.5-0.2l0.4,0.6
		c-0.1,0.6-0.2,0.8-0.4,0.6c-0.1,2,0.8-0.6,0.4,1.7c0-0.2-0.1-0.1-0.2-0.5c-0.2,2.3,0.3,4.5,0.1,6.7c-0.6,0.6-0.1-1.9-0.6-1.1
		c0.1,3.1,0.7,6.4,0.6,9.4l0.1-0.6c0.8,0.4-0.4,2.2,0,3.7c-0.1-0.4-0.5-0.5-0.4-0.4c0,2.4,0.2,4.9,0.5,7.3l-0.2-0.4
		c-0.2,1.2-0.1,3.2-0.2,4.5c0.2,0.4,0.2,1.1,0.5,0.7c-1.2,4,0.7,7.7-0.4,11.3c0-0.4-0.2-1-0.2-0.7l0.2,3c0.4-0.2,0.2-0.4,0.5-1
		c0.3,0.6,0.4,1.3,0.4,2c-0.2-1.4-0.6,0-0.8,0.6c0.1-0.1,0.2,0.1,0.4,0c-0.6,1.6,0.7,0.3,0.3,2.4l-0.2-0.1c0.2,0.8,0.3,1.6,0.3,2.4
		c-0.4,0.4-0.2-0.9-0.6-0.9c0,1.2,0.8,2.4,0.4,3.5c-0.1-0.5-0.1-1.3-0.2-1.8c-0.3,0.7-0.5,1.5-0.4,2.3v-0.1l-0.2,2.1l0.1-0.5
		c1.1,1.5,0.2,3.1,0.9,5.2c-0.7-2-0.4-0.3-0.9-0.5c-0.1,0.5-0.3,1.3-0.4,1.1c0.4,1-0.3,1.6,0.3,3c-0.1,0.1,0,1-0.4,0.8
		c0.1,1.3,0.3-0.3,0.5-0.2c0.5,2-0.6,4.6,0.1,7.4c0.3,2.4,0.8,2.9,1.1,5.1c-0.2,0.8-0.6-0.6-0.6-0.6c-0.2,1.1-0.2,2.2,0,3.3
		c-0.1-0.2-0.2,0-0.4,0.4c0,0.9,0.6,0.6,0.3,1.9c-0.3-0.3-0.5-0.6-0.6-0.9c0.1,1.1,0.4,2.2,0.6,3.3c-0.3,0.3-0.4-0.7-0.6-1.1
		c0.1,1.3,0.2,3.3,0.7,3.7l0.1-0.8c0,0.5-0.4,0.2-0.4-0.1c-0.3-1.1,0.1-1.6,0.3-1.6l0.1,0.8c0.9-0.8-0.1-3.2-0.1-4.9l0.7,0.7
		l-0.5-1.7c0.2-0.4,0.5-0.6,0.6,0.2c0.3-1.2-0.2-1,0.1-2c0.1-0.1,0.1-0.1,0.1,0l-0.2-1.1c0.1,0.2,0.5-0.2,0.4,0.5
		c0.4-2-0.5-3.3,0-4.1v0.2c-0.2-2.8-0.5-0.3-1.1-2.4l1.2-1.4l-0.5-0.3c0-0.3,0.1-0.9,0.2-0.8c-0.3-1.1-0.2,0.2-0.5-0.4
		c0.4-1.4-0.2-3.9,0.6-4.2c-0.4-0.5-0.3,1.4-0.5-0.2c0.8-0.4-0.1-1.7,0.2-3c0.4,0.4,0.2,1.6,0.6,0.3c-0.7-0.8,0.2-2.5,0-3.6
		c-0.6,0-0.2-2.4-0.4-4.2c0.2,0.1,0.3-3.4,0.5-5.1l0.1,0c-0.6-0.3-0.5-2.1-0.6-3.4c0.4,0,0.5,0.3,0.6,1v-1.2
		c-0.2-0.4-0.4-0.9-0.4-1.4l0.4,0.3c0-1.6-0.5-3.2-0.2-5.3c-0.4-0.1-1.1,1.6-1.4-0.5c0.2-0.1,0.6-0.2,0.7,0.4
		c-0.1-0.3-0.1-0.7-0.1-1l0.4,0.9c0.2-0.9-0.3-0.5-0.3-1.2c0.3,0,0.2-0.5,0.5-0.4c0,0.2-0.1,0.6,0,0.9c0-0.8,0.2-1.5,0.5-2.2
		c-0.2,0.1-0.4,0-0.5-0.6c0-1.6,0.4-0.5,0.5-1.5c-0.2-0.4,0-1.4-0.5-1.4c0-0.5,0.2-0.6,0.3-0.7c-0.2-0.8,0-3.9-0.6-2.9v0.2
		c0,0,0-0.1,0-0.1l0,0c-0.5-2.7,0.3-5.6,0.1-8.3h0.2c-0.1-1.6-0.2-3.2-0.4-4.7c0-0.5,0.3-1.1,0.5-0.9c-0.2-1-0.2-2.1,0-3.1
		c0.3,1.2,0.2-0.4,0.2,1.3c0.3-1.2,0.3-2.5,0-3.7c0.4,0.6,0.5-1.2,0.4-2l-0.3,1.1c-0.1-0.8-0.1-1.6,0-2.3l0.5,0.4
		c0.6-3.2-1.1-5.9,0-8.4c-0.4-0.9-0.3,1.8-0.7,1c0.2-1.2,0.5-2.4,0.8-3.5c0.3-2-0.8-1.9-0.6-4.1c-0.2,0.3-0.7,0.5-0.9-1.1
		c0.1-1.5,0.8-1.8,0.9-0.9c0,0.4-0.1,0.5-0.1,0.5c0.1,0.5,0.1,1.1,0.4,0.5L4,334.1c0.2-0.8,0.2-2.8,0.5-2.3
		c-0.2-1.1-0.3-0.5-0.4,0.4c0.3-1.9,0-3,0.2-5c-0.1,0.3-0.3,0.6-0.3,0.3c0.2-2.9-0.4-1.3-0.4-3.2c0.3-1.1,0.7,0.4,0.4-1.6
		c0.2-1.2,0.5-0.2,0.6,0.2c-0.4-1.8,0.2-3.4,0.3-4.4l0.1,1c-0.1-0.5-0.1-1-0.1-1.5l-0.4,0.5c0.1-0.5,0.1-1,0.2-1
		c-0.2-0.6-0.6,0.4-1-0.7c0.2-0.7-0.2-2.3,0.3-2.5c-0.2,2.3,0.5-0.3,0.6,1.7c-0.1-0.5-0.1-0.9,0-1.4c0.1-0.1,0.1,0.1,0.1,0.2
		c0.4-2.2-0.6-1-0.6-3.4c0.3,0.3,0.5-0.5,0.5-0.9c0,0.9-0.5,0.5-0.7-0.4c0.2-1.5-0.2-1.6-0.1-2.4l-0.1,0.9c-0.3-0.3-0.2-1-0.3-2.1
		c0.2-0.1,0.1,1,0.2,0.6c-0.5-1.2,0.5-2.6,0.2-4.2c0.2-0.7,0.5-0.1,0.7-0.7c-0.4-1.8,0.4-1.9,0.1-3.8c-0.4,0.5-0.3,0.6-0.6-0.7
		l0.3,3.1l-0.6-2c0,0.9,0.2,2,0.2,2.5c-0.3-1-0.2-0.9-0.5-0.4c0.6-1.3-0.3-2.5,0.1-4h0.9c0.4-2.2-0.5-4-0.2-6.9l-0.2,0.9
		c-0.4-0.4-0.1-1.8-0.2-2.7c0.3,0.1,0.4-0.5,0.6-0.9c-0.2,0,0-2.1-0.6-2.4l0.4-1.3c0.2-2.3-0.9-2.7-0.8-4.9c0.3,0.7,0.6-0.3,0.8,1.2
		c0-0.8,0.1-1.4-0.1-1.4c0.2-0.4-0.4-2.1-0.1-2.8c-0.3-0.3-0.5-0.8-0.4-1.3c0.1-0.1,0.2,0,0.2,0c-0.2,0-0.2-1.3-0.6-0.6
		c1-2.3-0.1-6.5,0.8-8.5c-0.1-1.6-0.2-3.6-0.2-5.1c0.1,0.1,0.2,0,0.1,0.3c0.3-2-0.9-1.3-0.6-3.6c0.5-1.2,0.3,1.2,0.5,0.5
		c1-0.3-0.1-2.8,0.4-4.4l0.1,0.4c0.4-1.2-0.4-2.9-0.3-4.9c0,0,0.1,0.1,0.1,0c-0.5-1.9-0.8-3.8-0.8-5.8c0.4,0.6,0.2,0.9,0.6,0.5
		c-0.1-0.8-0.6,0.2-0.8-1.4c0.2-0.6,0.4-1.8,0.9-1.9v1.6c0.6-0.8,0-2.1,0.1-2.9l0.2,0.1c-0.1-2.4-0.7-2.5-0.7-5.1l-0.2,0.3
		c-0.6-1.4,0.3-1.2-0.1-2.6l0.6-0.4c-0.1-0.9-0.6-3.3-0.7-5c0.5,1.4,0.8,2.8,1,4.2c0.1-1.2-0.1-2.5-0.4-3.7c0.1,0.4,0.2,0.8,0.1,1.2
		c-0.5-1.4-0.8-3-0.7-4.5c1.2,0.3,0.3-4.9,1.2-6.2c-0.4-3.3,0.2-6.6,0.1-10.4c-0.9,1.4,0-1.1-1-0.9c-0.1-0.4-0.1-0.9,0-1.3l0.6-2.7
		c0.3-0.6,0.2,0.9,0.4,0.8c0.1-2,0.4-0.8,0.7-2.1c-0.3,0.3-0.5-0.7-0.4-1.8l-0.4,1.6c-0.5-2.8,0.8-2.4,0.3-5.1l0.3,0.9
		c-0.2-1.4,0-5.2-0.8-6.6c0.1-0.2,0.4-0.6,0.4,0c0.1-3.4-0.8-7.6-0.4-10.2l0.2,0.3c-0.1-0.6-0.4-1.1-0.2-1.9c0.1,0.1,0.2,0.3,0.2,0
		c-0.2-0.8-0.3-1.7-0.3-2.5l0.3,0.7c0.3-3.3-0.6-5.1-0.8-7.9c0.7,0,0.9-2.6,1-3.9h0.1c0.1-3.9-0.6-6.6-0.9-10.1
		c0.8-2.2,0.3-7.5,0.7-11.1c-0.1,0.6-0.5-0.1-0.6-0.7c0.1-0.8-0.5-2.3,0.2-2.2v0.3c0.6-0.6,0.5-2.4,0.5-3.7l-0.8-0.2
		c1.2-3.5-0.4-9.2,0.6-11.1c-0.2-0.9-0.2-1.9-0.4-2.7h0.4c0.1-2.1,0.2-4.3,0.1-6.4l0.3,0.6c0-1.6-1.3-2.1-1.3-3.6l0.7-0.4
		c0-2.8,0.6-5.7,0-8.6c0.1,0,0.3,0.1,0.3,0.6c0-1.3,0.4-5.2-0.5-4.7c0.6,0,0.1-3-0.2-4.5l0.4,0.2c-0.5-1-0.8-2-0.9-3.2
		c0.1-0.4,0.4-0.4,0.2,0.2c0.2-1.4-0.4-1.1-0.2-2.8l0.3,0.6c0.1-0.8-0.1-1.5-0.4-2.2c-0.2-0.9,0.1-2.8,0.5-3
		c-0.4-0.5-0.6-1.2-0.4-1.9c0.1-0.1,0.2,0.2,0.3,0.4c0.3-2.5-0.5-3.7-0.1-5.4C3.9,78,4,77.9,4,77.7c0,2,0,3.5-0.1,3.4
		c0.4,0,0.5-1.6,1-0.3c-0.5-1.6-0.8-3.3-0.8-5c0-0.1,0.1-0.2,0.1-0.2v0.2c0-0.3,0-0.7-0.1-1c0.1-0.4,0.1-0.9,0.1-1.3
		c0.3-0.2,0.2-1.8,0.2-2.6c-0.4,0.1-0.4-1-0.7,0c0-0.1,0,0.1,0.1,0.7c0,0.1,0,0.2,0,0.3c0,0,0,0,0-0.1c0,0.5,0,1.2,0,2
		c-0.3-0.7-0.4-1.4-0.2-2.1c-0.3-0.3-0.5-0.6-0.7-0.9c0.6-1.1,1-3.2,1.3-3.4c-0.2-2.4-0.2-5.7-1-7.2c-0.1-0.7,0.2-0.8,0.4-1
		c0,0.4,0.1,0.7,0.2,1.1c-0.2-1.4-0.1-4.1-0.7-4.4c0.3-1.7,0.5,1,0.4-1.4l0.2,0.3c0.9-4.7-1.5-7.6-0.3-12.8
		c-0.1,0.4-0.1,0.5-0.2,0.6c0.5-5.9-0.5-12.2,0.4-18c0.1-1-0.1-2-0.5-2.8l0.5-0.4l-0.6-1.7c-0.4-2.5,1.2-4.2,0.4-7.3l-0.3,0.4
		C3.3,11.6,3,9.2,3.4,9.3C3.2,9.1,3.1,8.8,3.2,8.5h0.2L3,5.8C3.2,3.7,4,6.1,4,3C3.9,1.9,3.3-0.2,3.1,0.2c0,0.5-0.1,1.2-0.4,1.2
		L2.7,0.3c-0.7-0.2-1.5-1-2,1.6l0.4,1.8L0.8,4.3V2.7C0.6,3.4,0.6,4.1,1,4.7C0.7,4.9,0.6,5.2,0.6,5.5l0.7,1.8C1,7.5,0.7,6.5,0.5,7.6
		c0.3,0.8,0.6-0.8,0.9,0.6C1.1,9.1,0.8,8.8,1.1,9.8C0.9,10,0.8,9.8,0.7,9.4c0.2,0.9,0.1,2.4,0.5,2.9c-0.4,0.9,0.1,3-0.6,3
		c0.3,0.8,0.5,1.6,0.6,2.4c-0.8-1.5-0.1,3.1-0.9,2.7c0.8,1.1,0.3,4,0.7,6c-0.1-0.1-0.1-0.3-0.1-0.5c-0.1,0.7-0.2,1.5-0.4,2.2
		c0.6,0.1,0.8,1.9,1.1,2.8c-0.6,1.4-0.7-0.8-1.3-0.4c0.5-0.1,0.5,2.4,0.9,1.9c-0.4,1-0.2,0.9-0.7,1.4c0.8,0.2,0.1,1,0.6,1.8
		c-0.4,1.5-0.7,0.4-0.5,2C0.3,38.4,0,36.9,0,36.9z M1.3,76.4L1.3,76.4c0-0.3,0-0.6,0-0.8C1.4,75.7,1.4,76,1.3,76.4L1.3,76.4z
		 M1.3,79.7c0-0.4,0-0.9,0-1.4c0.1-0.1,0.3,0,0.3,0.3C1.6,78.4,1.5,79.2,1.3,79.7L1.3,79.7z M4.4,72.7c0.1,0.5,0,0.7-0.1,0.8
		c0-0.2,0-0.5-0.1-0.9c0,0,0,0,0-0.1C4.3,72.5,4.4,72.6,4.4,72.7L4.4,72.7z"/>
</g>
</svg>
