<?xml version="1.0" encoding="utf-8"?>
<!-- Generator: Adobe Illustrator 25.3.1, SVG Export Plug-In . SVG Version: 6.00 Build 0)  -->
<svg version="1.1" id="Layer_1" xmlns="http://www.w3.org/2000/svg" xmlns:xlink="http://www.w3.org/1999/xlink" x="0px" y="0px"
	 viewBox="0 0 352.1 2.2" style="enable-background:new 0 0 352.1 2.2;" xml:space="preserve">
<style type="text/css">
	.st0{fill:#E66229;}
</style>
<g id="Layer_2_1_">
	<g id="Layer_1-2">
		<path class="st0" d="M352.1,1.3c0.1,0,0-0.1-0.1-0.1l-0.1,0.1L352.1,1.3z"/>
		<path class="st0" d="M351,1.1c-0.3,0.1-0.4,0.2-0.3,0.3c0.2-0.1,0.2-0.1,0.4-0.2s0.3,0,0.3,0.1s0.2,0,0.4,0
			c-0.3-0.1-0.5-0.1-0.8,0C350.9,1.2,351,1.1,351,1.1z"/>
		<path class="st0" d="M334.9,0.9L334.9,0.9z"/>
		<path class="st0" d="M324.9,0.9c0.1,0,0.1,0,0.1,0C324.9,0.9,324.9,0.9,324.9,0.9z"/>
		<path class="st0" d="M323.2,0.7h0.1C323.2,0.7,323.2,0.7,323.2,0.7z"/>
		<path class="st0" d="M334.9,0.9h-0.3C334.6,0.9,334.7,0.9,334.9,0.9z"/>
		<path class="st0" d="M348.8,1.4h0.1H348.8z"/>
		<path class="st0" d="M339.3,0.8L339.3,0.8c0.1,0,0.1,0,0.1,0L339.3,0.8z"/>
		<path class="st0" d="M342.6,0.8c-0.1,0-0.1,0.1-0.1,0.1S342.6,0.9,342.6,0.8C342.7,0.9,342.7,0.8,342.6,0.8z"/>
		<path class="st0" d="M348,1L348,1z"/>
		<path class="st0" d="M336.9,0.8L336.9,0.8L336.9,0.8z"/>
		<path class="st0" d="M242.3,1.6L242.3,1.6C242.3,1.6,242.3,1.6,242.3,1.6z"/>
		<path class="st0" d="M238.4,1.1L238.4,1.1C238.4,1.1,238.4,1.1,238.4,1.1L238.4,1.1z"/>
		<path class="st0" d="M320,0.6"/>
		<path class="st0" d="M291.4,0.7c0.3,0.1-0.5,0.1,0,0.2C291.3,0.9,291.8,0.7,291.4,0.7z"/>
		<path class="st0" d="M348.7,1.4"/>
		<path class="st0" d="M291.4,0.9"/>
		<path class="st0" d="M312.8,0.7L312.8,0.7C312.9,0.7,312.9,0.7,312.8,0.7z"/>
		<path class="st0" d="M318.2,0.8h-0.1C318.1,0.8,318.2,0.8,318.2,0.8z"/>
		<path class="st0" d="M310.1,0.8c-0.1,0-0.1,0-0.2,0H310.1z"/>
		<path class="st0" d="M307.2,0.8L307.2,0.8L307.2,0.8L307.2,0.8z"/>
		<path class="st0" d="M251.1,1.5c0,0-0.1-0.1-0.1-0.1C251,1.5,250.6,1.5,251.1,1.5z"/>
		<path class="st0" d="M348.8,1.4C348.8,1.4,348.8,1.4,348.8,1.4L348.8,1.4C348.8,1.4,348.8,1.4,348.8,1.4z"/>
		<path class="st0" d="M309.9,1.6L309.9,1.6z"/>
		<path class="st0" d="M271.9,1.5L271.9,1.5z"/>
		<path class="st0" d="M308.1,1.6c-0.1,0-0.2-0.1-0.2-0.1h-0.1L308.1,1.6z"/>
		<path class="st0" d="M251,1.4"/>
		<path class="st0" d="M247.9,1.7c0.4,0,0.2-0.1,0.3-0.2c0.5,0,0.2,0.1,0.4,0.2s0.6-0.2,0.8-0.2c0,0,0.1,0,0,0.1
			c0.4-0.1,1,0,1.4-0.1h0.1c-0.1-0.1-0.1-0.1-0.1-0.2c0.2,0,0.4-0.1,0.4,0c-0.1,0-0.1,0-0.2,0.1h0.2c0.2,0.1-0.3,0-0.3,0.1
			c0.4-0.1,0.8-0.1,1.2-0.1c0.1,0.1-0.7,0-0.3,0.2h-0.5c0.4,0.2-0.3,0,0,0.2c0.6,0,0.7-0.1,1.3,0c0.1-0.1,0-0.1,0.1-0.2
			c0.9-0.1,0.7,0.3,1.3,0.1c0.2-0.2,0.5-0.2,0.7-0.2l-0.2,0.1c0.6,0,0.3-0.2,1-0.1c-0.1,0-0.3,0.1-0.4,0.1c0.4,0.1,0.3-0.1,0.6-0.1
			l0.1,0.1c0.6,0,1.4-0.1,2.1-0.1c0,0-0.2,0.1,0,0.1c0.9,0,1.9,0,2.8,0.1l0.3-0.1c0.1,0,0.1,0,0.1,0.1l0,0c0.3,0,0-0.1,0.2-0.1
			s0.2,0,0.2,0s0,0-0.1,0c0.8-0.1,1.6-0.1,2.3-0.1h-0.1c0.5,0,0.5-0.2,1-0.1h-0.1c1,0,2,0,3,0.1c0.2-0.2,1.1,0.1,1.1-0.1
			c0.4,0.1,0.9,0.2,1.3,0.2c0.2,0,0.3-0.1,0.6-0.2v0.1l0.4-0.1l0.2,0.1h0.3c-0.1,0-0.2,0-0.1-0.1c0.3,0,0.7,0,1,0.1l1-0.1
			c0,0-0.2,0.1-0.3,0.1c0.5-0.1,0.1,0.1,0.6,0c-0.1,0,0-0.1,0-0.1c0.4,0,0.8,0,1.2,0l-0.1,0.1c0.7,0,1.5,0,2.4,0
			c-0.3,0-0.2-0.2,0-0.2l0.1,0.1c0.2-0.1-0.2,0,0.1-0.1s0.2,0.1,0,0.2h0.4c0,0-0.1,0-0.1,0.1c0.1-0.1,0.6,0.1,0.9,0l0,0
			c0.8,0,1.2,0,1.9,0c0-0.1,0.3-0.1,0.5-0.2c0.6,0.1,1.1,0.1,1.7,0.1c0.4,0,0.1-0.1,0.3-0.1c0,0.1,0.6,0.1,0.3,0.2
			c0.6,0,1.2,0,1.8-0.1c-0.1,0-0.2-0.1-0.1-0.1s0.3,0,0.3,0.1l0,0c1-0.1,2.3,0.3,3.1,0.1h0l0.8-0.1c0.4,0-0.2,0.1,0.1,0.1
			c0.9-0.2,1.4,0,2.1-0.1c0.6,0.3,2,0,2.8,0.2V1.6c0.2-0.1,0.2,0,0.4,0.1c0,0-0.2-0.1-0.1-0.1c1.7-0.1,3.5,0.1,5.2,0.2
			c0.6,0,0.4-0.3,1.1-0.2l-0.2,0.1c1.3-0.2,2.6,0,3.9-0.1c-0.1,0-0.1,0.1-0.2,0.1c0.3,0.1,0.7,0,1-0.1c0.2,0,0,0.1,0.2,0.1
			c0.3,0,0.7-0.1,0.8,0H306c0.2,0,0.8,0,0.6-0.1c0.5,0,0.9,0,1.3,0c0.2-0.1,0.8,0,0.9-0.1c0,0.2,0.8,0.1,1.1,0c-0.1,0,0.3,0,0.1,0.1
			c0.3,0,0.6,0,0.6-0.1c0.6,0.2,1.3-0.2,1.6,0.1c0.9-0.1,1.9-0.1,2.8-0.2c0,0.2-1,0-1,0.2c0.7-0.1,1.5-0.2,2.2-0.2
			c0.2,0-0.1,0.1-0.2,0.1c0.9-0.1,1.6,0,2.4-0.1h-0.2c0.1,0,0.4,0,0.3,0h-0.2c-0.2-0.1,0.6-0.2,0.6-0.3c-0.2,0.2,0.8,0,0.4,0.3
			c0.1,0,0.2-0.1,0.2-0.1c0.1,0,0.2,0,0,0.1c0.5,0,0.3-0.1,0.8-0.1c0,0-0.1,0-0.1,0.1c0.3-0.1,0.6-0.1,0.9-0.1c0,0,0,0-0.1,0
			c0.7,0,1.2-0.2,2-0.1c-0.2,0.2,0.3,0.1,0.3,0.2h0.3l-0.1-0.1c0.3,0,0.7-0.1,1-0.1l-0.3,0.1h0.7l-0.4,0c0.4-0.1,0-0.2,0.4-0.1
			c0.2,0,0.4,0,0.6,0.1l0,0c0.2-0.1,0.4-0.1,0.6-0.1c0.1,0,0,0.2,0,0.2s0.9,0,1.1-0.2c-0.1,0-0.1,0.1-0.1,0.1l0.1-0.1
			c0.2,0,0.2,0,0.2,0.1c0.5,0-0.2-0.2,0.4-0.1c0,0,0,0-0.1,0c0.6,0,1.2-0.1,1.7,0c0.2,0.1-0.5,0-0.3,0.1c0.8-0.1,1.6-0.1,2.4-0.1
			h-0.1c0.1-0.2,0.6,0.1,1,0c-0.1,0-0.1,0.1-0.1,0.1c0.6,0,1.3,0,1.9-0.1l-0.1,0c0.4,0,0.8,0,1.2,0c0.1,0,0.3,0,0.2-0.1
			c1,0.3,2-0.1,2.9,0.1c-0.1,0-0.3,0-0.2,0h0.8c-0.1-0.1-0.1,0-0.3-0.1c0.2-0.1,0.3-0.1,0.5-0.1c-0.4,0,0,0.1,0.2,0.2v0.1
			c0.4,0.2,0.1-0.2,0.6-0.1l0,0c0.2,0,0.4-0.1,0.6-0.1c0.1,0.1-0.2,0-0.2,0.1c0.3,0,0.6-0.2,0.9-0.1c-0.1,0-0.3,0-0.5,0
			c0.2,0.1,0.4,0.1,0.6,0.1l0,0h0.5h-0.1c0.4-0.2,0.8,0,1.4-0.2c-0.5,0.2-0.1,0.1-0.1,0.2c0.1,0,0.3,0.1,0.3,0.1
			c0.3-0.1,0.4,0.1,0.8-0.1c0,0,0.3,0,0.2,0.1c0.3,0-0.1-0.1,0-0.1c0.5-0.1,1.2,0.2,1.9,0s0.7-0.2,1.3-0.2c0.2,0-0.2,0.1-0.2,0.1
			c0.3,0.1,0.6,0.1,0.9,0c-0.1,0,0,0.1,0.1,0.1s0.2-0.1,0.5-0.1c-0.1,0.1-0.2,0.1-0.2,0.2c0.3,0,0.6-0.1,0.9-0.1
			c0.1,0.1-0.2,0.1-0.3,0.1c0.3,0,0.7-0.1,1-0.2h-0.2c0.1,0,0.1,0.1,0,0.1c-0.3,0.1-0.4,0-0.4-0.1h0.2c-0.2-0.2-0.9,0-1.3,0l0.2-0.1
			l-0.4,0.1c-0.1,0-0.1-0.1,0.1-0.1c-0.3-0.1-0.3,0.1-0.5,0l0,0l0,0h-0.3c0.1,0,0-0.1,0.1-0.1c-0.5-0.1-0.9,0.1-1,0l0,0
			c-0.7,0-0.1,0.1-0.6,0.2l-0.4-0.3L345.8,1c-0.1,0-0.2,0-0.2,0c-0.3,0.1,0,0-0.1,0.1c-0.4-0.1-1,0-1.1-0.1c-0.1,0.1,0.4,0.1,0,0.1
			c-0.1-0.2-0.5,0-0.8,0c0.1-0.1,0.4,0,0.1-0.1c-0.2,0.2-0.6,0-0.9,0c0,0.1-0.6,0.1-1.1,0.1c0,0-0.9-0.1-1.3-0.1l0,0
			C340.2,1,339.8,1,339.5,1c0-0.1,0.1-0.1,0.2-0.1h-0.3c-0.1,0-0.2,0.1-0.4,0.1l0.1-0.1c-0.5,0-0.9,0.1-1.4,0c0,0.1,0.4,0.3-0.1,0.3
			c0,0,0-0.1,0.1-0.2c-0.1,0-0.2,0-0.3,0l0.2-0.1c-0.2,0-0.1,0.1-0.3,0.1c0-0.1-0.1,0-0.1-0.1c0.1,0,0.2,0,0.2,0
			c-0.3,0-0.5,0-0.8-0.1c0,0,0,0.1-0.2,0.1c-0.4,0-0.1-0.1-0.4-0.1s-0.4,0-0.4,0.1s-0.1,0-0.2-0.1c-0.2,0-1,0-0.8,0.1l0,0
			c-0.7,0.1-1.5-0.1-2.2,0l0,0c-0.4,0-0.8,0-1.2,0.1c-0.2,0-0.3-0.1-0.2-0.1c-0.3,0-0.5,0-0.8,0c0.3-0.1-0.1-0.1,0.3,0
			c-0.3-0.1-0.6-0.1-0.9,0c0.1-0.1-0.3-0.1-0.5-0.1l0.3,0.1c-0.2,0-0.4,0-0.6,0l0.1-0.1c-0.9-0.1-1.5,0.2-2.2,0
			c-0.2,0.1,0.5,0.1,0.2,0.1c-0.3,0-0.6-0.1-0.9-0.2c-0.5-0.1-0.5,0.2-1,0.1c0.1,0.1,0,0.1-0.2,0.2h-0.1c-0.4,0-0.5-0.2-0.2-0.2
			s0.1,0,0.1,0s0.3,0,0.1-0.1l0,0c-0.2,0-0.7,0-0.6-0.1c-0.3,0-0.1,0.1,0.1,0.1c-0.5-0.1-0.8,0-1.3,0c0.1,0,0.1,0.1,0.1,0.1
			c-0.8,0-0.3,0.1-0.8,0.1c-0.3-0.1,0.1-0.2-0.4-0.1c-0.3,0-0.1-0.1,0.1-0.1c-0.4,0-0.8,0-1.1-0.1h0.2c-0.1,0-0.3,0-0.4,0l0.1,0.1
			c-0.1,0-0.3,0-0.3-0.1s0.1,0.1-0.2,0.2s-0.6,0-0.7-0.1c0.6,0-0.1-0.1,0.5-0.1c-0.1,0-0.2,0-0.4,0c0,0,0,0,0.1,0
			c-0.6-0.1-0.3,0.1-0.9,0.1c0.1-0.1-0.1-0.1-0.2-0.1c0.2,0,0.1,0.1-0.1,0.2c-0.2,0-0.4,0-0.6,0h0.2c-0.1,0.1-0.3,0.1-0.5,0.1
			c0,0,0.2,0,0.1-0.1c-0.3,0.1-0.7-0.1-1.1,0c-0.2,0,0-0.1-0.2-0.1c-0.5,0.1-0.5-0.1-1,0c0.1,0.1,0.2,0.1-0.2,0.1l0.8-0.1l-0.5,0.1
			c0.2,0,0.5-0.1,0.6,0c-0.2,0.1-0.2,0-0.1,0.1c-0.3-0.1-0.7,0.1-1,0V0.7c-0.6-0.1-1,0.1-1.8,0.1h0.2c-0.1,0.1-0.5,0-0.7,0
			c0-0.1-0.1-0.1-0.2-0.1s-0.5,0-0.6,0.1l-0.4-0.1c-0.6,0-0.7,0.2-1.3,0.2c0.2-0.1-0.1-0.1,0.3-0.2c-0.2,0-0.4,0-0.4,0
			s-0.5,0.1-0.7,0s-0.1,0.1-0.3,0.1l0,0c0,0-0.3,0-0.1,0.1c-0.6-0.2-1.7,0-2.2-0.2l-1.2,0.1c0,0,0,0,0.1,0c-0.5-0.1-0.3,0.2-0.9,0.1
			c-0.3-0.1,0.3-0.1,0.1-0.1c-0.1-0.2-0.7,0-1.1-0.1h0.1c-0.4,0-0.8,0-1.3,0.1l0,0c-0.5,0.1-1,0.2-1.5,0.2c0.1-0.1,0.2,0,0.1-0.1
			s0.1,0.1-0.4,0.2c-0.1,0-0.5-0.1-0.5-0.2h0.4c-0.2-0.1-0.5,0-0.8,0V0.8c-0.6,0-0.6,0.2-1.3,0.1l0.1,0c-0.3,0.1-0.3-0.1-0.6,0
			l-0.1-0.1c-0.4,0.1-0.9,0.1-1.3,0.2c0.4-0.1,0.7-0.2,1.1-0.2c-0.3,0-0.7,0-1,0.1c0.1,0,0.2,0,0.3,0C297,1,296.6,1,296.2,1
			c0.1-0.3-1.3-0.1-1.6-0.3c-0.9,0.1-1.7,0-2.7,0c0.4,0.2-0.3,0-0.2,0.2h-0.3l-0.7-0.1c-0.2-0.1,0.2,0,0.2-0.1
			c-0.6,0-0.2-0.1-0.6-0.2c0.1,0.1-0.2,0.1-0.5,0.1l0.4,0.1c-0.7,0.1-0.6-0.2-1.3-0.1l0.2-0.1c-0.6,0-1.2,0-1.7,0.2
			c-0.1,0-0.2-0.1,0-0.1c-0.9,0-2,0.2-2.6,0.1l0.1,0c-0.2,0-0.3,0.1-0.5,0c0,0,0.1-0.1,0-0.1c-0.2,0-0.5,0.1-0.7,0.1l0.2-0.1
			c-0.7,0-1.3,0.1-2,0.2c0-0.2-0.7-0.2-1-0.2l0,0c-0.9,0-1.8,0.1-2.6,0.2c-0.6-0.2-2-0.1-2.9-0.2c0.1,0,0,0.1-0.2,0.1
			s-0.6,0.1-0.6,0h0.1c-0.2-0.1-0.6-0.1-1-0.1v0.2c-0.9-0.3-2.4,0.1-2.9-0.1c-0.2,0-0.5,0-0.7,0.1V0.7c-0.6,0-1.1,0-1.7,0l0.2-0.1
			c-0.4,0-0.5,0.3-0.9,0.3l-0.1-0.1c-0.7-0.1-1.5-0.1-2.2,0c0,0,0-0.1,0.1-0.1c-0.3,0-1.4-0.1-1.2,0.1c0-0.1-0.8,0-1.2,0V0.7
			c-0.3,0.1-0.5,0.2-0.8,0.2c-0.1,0-0.1-0.1,0,0c-0.4,0-0.3,0.1-0.7,0l0.2-0.1c-0.2,0-0.4,0-0.6,0.1c-0.3,0-0.5,0-0.8-0.1
			c-0.1,0.1-0.3,0.1-0.5,0.1c0,0,0,0,0.1-0.1c-0.6-0.1-1,0.1-1.4,0c0,0-0.1,0-0.1,0c0.3,0,0.6,0,0.9,0c0-0.1-0.4-0.1-0.1-0.2
			c-0.4,0.1-0.9,0.2-1.3,0.2h-0.1l0,0c-0.1,0-0.2,0-0.3,0h-0.3c0-0.1-0.5,0-0.7,0c0,0.1-0.2,0.1,0,0.2c0,0,0,0,0.2,0h0.6
			c-0.2,0.1-0.4,0.1-0.6,0L256.7,1c-0.3-0.1-0.9-0.2-0.9-0.3c-0.6,0-1.3,0.1-1.9,0.2c-0.2,0-0.2,0-0.3-0.1c0.1,0,0.2,0,0.3,0
			c-0.4,0-1,0-1.1,0.2c-0.5-0.1,0.2-0.1-0.4-0.1h0.1c-1.2-0.2-2,0.3-3.3,0.1c0.1,0,0.1,0,0.1,0c-1.5-0.1-3.1,0.1-4.7-0.1
			c-0.3,0-0.5,0-0.7,0.1l0-0.1L243.4,1c-0.6,0.1-1.1-0.3-1.9-0.1l0.1,0.1c-0.3,0-0.9,0-0.9,0c-0.1,0-0.1,0-0.2,0V0.9L239.8,1
			c-0.6,0,0.1-0.2-0.7-0.2c-0.3,0-0.9,0.2-0.7,0.2s0.3,0,0.3,0.1h-0.3c-0.1,0.2-0.3,0.3,0.4,0.5l0.5-0.1l0.1,0.1h-0.4
			c0.2,0.1,0.4,0.1,0.5,0c0.1,0,0.1,0.1,0.2,0.1l0.5-0.2c0.1,0.1-0.2,0.1,0.1,0.2s-0.2-0.1,0.2-0.2s0.2,0.1,0.4,0.1
			c0,0,0,0.1-0.1,0.1c0.2,0,0.6,0,0.7-0.1c0.2,0.1,0.8,0,0.8,0.1c0.2-0.1,0.4-0.1,0.6-0.1c-0.4,0.2,0.8,0,0.7,0.2
			c0.5-0.1,1-0.2,1.6-0.2c0,0-0.1,0-0.1,0c0.2,0,0.4,0,0.6,0.1c0-0.1,0.5-0.2,0.7-0.3c0.4,0.1-0.2,0.2-0.1,0.3
			c0-0.1,0.6-0.1,0.5-0.2c0.3,0.1,0.2,0,0.4,0.2c0.1-0.2,0.3,0,0.5-0.1c0.4,0.1,0.1,0.2,0.5,0.1C248.3,1.6,247.9,1.7,247.9,1.7z
			 M259,1.4h-0.4c0,0,0-0.1,0.1-0.1C258.9,1.3,259,1.3,259,1.4z M257.2,0.7c0.1,0,0.2,0,0.2,0H257.2L257.2,0.7z"/>
		<path class="st0" d="M257,0.8L257,0.8L257,0.8L257,0.8L257,0.8z"/>
		<path class="st0" d="M335,1L335,1L335,1z"/>
		<polygon class="st0" points="270.9,1.6 270.9,1.5 270.9,1.6 		"/>
		<path class="st0" d="M339.7,1.3L339.7,1.3L339.7,1.3z"/>
		<path class="st0" d="M341.8,1.3h0.3H341.8z"/>
		<path class="st0" d="M343.4,1.4L343.4,1.4L343.4,1.4z"/>
		<path class="st0" d="M318.3,1.5L318.3,1.5C318.1,1.5,318.2,1.5,318.3,1.5z"/>
		<path class="st0" d="M325.8,1.3h-0.2C325.7,1.3,325.8,1.3,325.8,1.3z"/>
		<path class="st0" d="M310,1.6"/>
		<path class="st0" d="M325.2,1.3c0.1,0,0.2,0,0.3,0C325.4,1.3,325.3,1.3,325.2,1.3z"/>
		<path class="st0" d="M350.2,1.4L350.2,1.4z"/>
		<path class="st0" d="M350.3,1.4L350.3,1.4C350.3,1.4,350.3,1.4,350.3,1.4z"/>
		<path class="st0" d="M350.5,1.4h-0.2C350.4,1.4,350.5,1.4,350.5,1.4z"/>
		<path class="st0" d="M348.1,1.4L348.1,1.4L348.1,1.4z"/>
		<path class="st0" d="M347.4,1.4c0.2,0,0.4,0,0.6,0l0,0C348,1.4,347.6,1.3,347.4,1.4z"/>
		<path class="st0" d="M344.8,0.9h0.5c-0.1,0-0.2-0.1,0-0.1C344.7,0.7,345.5,1,344.8,0.9z"/>
		<path class="st0" d="M343.2,0.9C343.4,0.9,343.2,0.8,343.2,0.9C343,0.8,343,0.8,343.2,0.9z"/>
		<path class="st0" d="M331.3,0.9L331.3,0.9C331.1,0.8,331.3,0.8,331.3,0.9z"/>
		<polygon class="st0" points="329,1.4 329.2,1.4 329.3,1.3 		"/>
		<polygon class="st0" points="327.6,0.7 327.8,0.7 327.4,0.7 		"/>
		<path class="st0" d="M307.7,0.7l0.1,0.1C307.9,0.8,307.9,0.7,307.7,0.7z"/>
		<path class="st0" d="M299.1,0.8c-0.2-0.1-0.3-0.1-0.5,0C298.8,0.8,299,0.9,299.1,0.8z"/>
		<polygon class="st0" points="273.2,0.7 273.4,0.6 273.1,0.6 		"/>
	</g>
</g>
<g id="Layer_2-2">
	<g id="Layer_1-2-2">
		<path class="st0" d="M255.3,1.6c0.1-0.1,0-0.2-0.1-0.2L255,1.6L255.3,1.6z"/>
		<path class="st0" d="M254.3,1.1c-0.2,0.1-0.4,0.3-0.3,0.5c0.2-0.2,0.2-0.1,0.4-0.4c0.1,0,0.3,0.1,0.2,0.2s0.2,0,0.3-0.1
			c-0.2-0.2-0.5-0.2-0.7,0C254.1,1.2,254.2,1.2,254.3,1.1z"/>
		<path class="st0" d="M239,0.8h0.1H239z"/>
		<path class="st0" d="M229.6,0.7c0.1,0,0.1,0,0.1,0S229.6,0.6,229.6,0.7z"/>
		<path class="st0" d="M227.9,0.4h0.1C228.1,0.4,228,0.4,227.9,0.4z"/>
		<path class="st0" d="M239,0.8l-0.2-0.1C238.7,0.8,238.9,0.8,239,0.8z"/>
		<path class="st0" d="M252.1,1.7c0,0,0.1,0,0.1-0.1L252.1,1.7L252.1,1.7z"/>
		<path class="st0" d="M243.1,0.6L243.1,0.6c0.1,0,0.1-0.1,0.2-0.1L243.1,0.6z"/>
		<path class="st0" d="M246.3,0.5c-0.1,0-0.1,0.2-0.1,0.3s0.1-0.1,0.2-0.1C246.4,0.6,246.4,0.6,246.3,0.5z"/>
		<path class="st0" d="M251.4,0.9L251.4,0.9z"/>
		<path class="st0" d="M240.9,0.5C240.9,0.5,240.9,0.5,240.9,0.5C240.9,0.5,240.9,0.5,240.9,0.5z"/>
		<path class="st0" d="M151.6,2L151.6,2C151.6,2,151.6,2,151.6,2z"/>
		<path class="st0" d="M147.9,1.1L147.9,1.1c0,0,0-0.1,0-0.1V1.1z"/>
		<path class="st0" d="M225,0.2L225,0.2C225.1,0.1,225,0.1,225,0.2z"/>
		<path class="st0" d="M197.9,0.3c0.3,0.2-0.5,0.2,0,0.4C197.9,0.6,198.3,0.4,197.9,0.3z"/>
		<path class="st0" d="M252,1.6"/>
		<path class="st0" d="M197.9,0.7"/>
		<path class="st0" d="M218.2,0.3L218.2,0.3C218.2,0.3,218.2,0.3,218.2,0.3z"/>
		<path class="st0" d="M223.3,0.5L223.3,0.5z"/>
		<path class="st0" d="M215.6,0.5c-0.1,0-0.1,0-0.2,0H215.6z"/>
		<path class="st0" d="M212.9,0.5L212.9,0.5L212.9,0.5L212.9,0.5z"/>
		<path class="st0" d="M159.9,1.9c0,0-0.1-0.1-0.1-0.2C159.8,1.9,159.4,1.9,159.9,1.9z"/>
		<path class="st0" d="M252.1,1.6C252.1,1.6,252.1,1.6,252.1,1.6L252.1,1.6C252.1,1.7,252.1,1.6,252.1,1.6z"/>
		<path class="st0" d="M215.5,2.1L215.5,2.1z"/>
		<path class="st0" d="M179.5,1.9L179.5,1.9z"/>
		<path class="st0" d="M213.7,2.1c-0.1-0.1-0.2-0.1-0.2-0.1c0,0,0,0,0,0.1L213.7,2.1z"/>
		<path class="st0" d="M159.8,1.7"/>
		<path class="st0" d="M156.9,2.2c0.4,0,0.2-0.3,0.3-0.4c0.5-0.1,0.2,0.2,0.4,0.3c0.3-0.1,0.5-0.3,0.8-0.3c0,0,0.1,0.1,0,0.1
			c0.3-0.2,1,0,1.4-0.3l0.1,0.1c-0.1-0.1-0.1-0.2-0.1-0.3c0.2,0,0.3-0.2,0.4,0c-0.1,0-0.1,0.1-0.2,0.1l0.2-0.1
			c0.2,0.2-0.3,0.1-0.3,0.3c0.4-0.1,0.7-0.2,1.1-0.2c0.1,0.2-0.7,0.1-0.3,0.3l-0.5-0.1c0.4,0.4-0.3,0,0,0.4c0.6,0.1,0.7-0.1,1.2-0.1
			c0.1-0.1,0-0.2,0.1-0.3c0.8-0.2,0.7,0.6,1.3,0.3c0.2-0.2,0.2-0.5,0.7-0.3l-0.1,0.3c0.6,0,0.3-0.4,0.9-0.2
			c-0.1,0.1-0.5,0.1-0.4,0.1c0.4,0.2,0.3-0.1,0.6-0.1v0.2c0.6,0,1.3-0.2,2-0.2c0,0.1-0.1,0.1,0,0.2c0.9-0.1,1.8,0,2.6,0.2l0.3-0.2
			c0.1,0,0.1,0.1,0.1,0.1l0,0c0.3,0.1,0-0.1,0.2-0.2s0.2,0,0.2,0.1s0,0.1-0.1,0.1c0.7-0.2,1.5-0.3,2.2-0.2l-0.1,0.1
			c0.5,0.1,0.5-0.4,0.9-0.2h-0.1c1-0.1,1.9,0,2.9,0.2c0.1-0.3,1,0.1,1.1-0.3c0.4,0.2,0.8,0.3,1.2,0.4c0.2,0,0.3-0.2,0.6-0.3v0.2
			l0.4-0.2l0.2,0.2h0.2c-0.1,0-0.1-0.1-0.1-0.2c0.3-0.1,0.7,0,0.9,0.2l1-0.2c0,0.1-0.2,0.1-0.3,0.2c0.5-0.2,0.1,0.2,0.5,0
			c-0.1,0,0-0.1,0-0.2c0.4,0.1,0.7,0.1,1.1,0.1l-0.1,0.2c0.7,0,1.4-0.1,2.2-0.1c-0.3-0.1-0.2-0.3,0-0.3l0.1,0.2
			c0.1-0.1-0.2-0.1,0.1-0.3c0.3,0,0.2,0.3,0,0.3l0.4-0.1c0,0.1-0.1,0.1-0.1,0.2c0.1-0.1,0.6,0.2,0.8,0v0.1c0.8,0,1.1-0.1,1.7-0.1
			c0-0.2,0.3-0.2,0.4-0.3c0.5,0.1,1.1,0.2,1.6,0.2c0.4-0.1,0.1-0.2,0.3-0.3c0,0.2,0.6,0.2,0.3,0.3c0.6,0,1.1-0.1,1.7-0.2
			c-0.1-0.1-0.2-0.1-0.1-0.2s0.3,0,0.3,0.1l0,0l0,0c1-0.3,2.2,0.5,2.9,0.1l0,0l0.8-0.2c0.4,0-0.2,0.1,0.1,0.2c0.9-0.3,1.3,0,2-0.2
			c0.5,0.5,1.9,0,2.6,0.3V2c0.2-0.1,0.2,0.1,0.4,0.1s-0.2-0.1-0.1-0.2c1.6,0,3.3,0.1,4.9,0.3c0.6,0,0.3-0.6,1.1-0.3l-0.2,0.2
			c1.2-0.3,2.5,0,3.6-0.2c-0.1,0-0.1,0.1-0.2,0.1c0.2,0.2,1,0,1-0.1c0.2,0,0,0.1,0.2,0.2c0.2,0.1,0.6-0.2,0.8,0c0,0-0.1,0-0.1,0.1
			c0.2-0.1,0.8,0,0.6-0.2c0.4,0.1,0.9-0.1,1.2,0c0.2-0.2,0.8,0.1,0.8-0.2c0,0.3,0.8,0.2,1.1,0.1c-0.1,0.1,0.2,0.1,0.1,0.2
			c0.3,0,0.6-0.1,0.6-0.2c0.6,0.4,1.2-0.3,1.5,0.2c0.9-0.2,1.8-0.3,2.7-0.3c0,0.3-0.9,0-0.9,0.3c0.7-0.2,1.4-0.3,2.1-0.3
			c0.2,0-0.1,0.1-0.2,0.2c0.8-0.1,1.6,0,2.3-0.1c0,0-0.1,0.1-0.1,0.1c0.1,0,0.3,0,0.3-0.1h-0.1c-0.2-0.2,0.6-0.4,0.6-0.5
			c-0.2,0.4,0.7,0.1,0.3,0.6c0.1,0,0.2-0.1,0.2-0.2c0.1,0,0.2,0.1,0.1,0.2c0.5-0.1,0.3-0.2,0.8-0.2c0,0.1-0.1,0.1-0.1,0.2
			c0.2-0.2,0.6-0.2,0.9-0.2c0,0,0,0.1-0.1,0.1c0.7,0,1.1-0.3,1.9-0.2c-0.2,0.3,0.2,0.1,0.3,0.3h0.3l-0.1-0.1c0.4,0,0.6-0.2,0.9-0.1
			l-0.3,0.1h0.6l-0.4-0.1c0.3-0.1,0-0.3,0.4-0.2c0.2,0,0.4,0.1,0.5,0.2l0,0c0.2-0.1,0.4-0.1,0.6-0.1c0.1,0.1,0,0.3,0,0.3
			c0.2-0.2,0.8-0.1,1-0.3C232,1.4,232,1.5,232,1.6l0.1-0.2c0.2,0,0.2,0.1,0.2,0.2c0.5,0-0.2-0.3,0.4-0.2c0,0,0,0-0.1,0.1
			c0.6,0.1,1.1-0.1,1.6,0c0.2,0.3-0.4,0.1-0.3,0.3c0.8-0.1,1.5-0.2,2.3-0.2h-0.1c0.1-0.4,0.6,0.2,0.9,0c-0.1,0-0.1,0.2-0.1,0.2
			c0.6,0,1.2-0.1,1.8-0.2l-0.1,0.1c0.4,0.1,0.7,0.1,1.1,0.1c0.1-0.1,0.3-0.1,0.2-0.2c0.9,0.5,1.9-0.3,2.8,0.2
			c-0.1,0-0.2,0.1-0.2,0.1l0.7-0.1c-0.1-0.2-0.1-0.1-0.2-0.2c0.1-0.1,0.3-0.2,0.5-0.2c-0.3,0.1,0,0.3,0.1,0.3V1.4
			c0.4,0.3,0.1-0.3,0.6-0.1v0.1c0.2-0.1,0.4-0.1,0.6-0.1c0.1,0.2-0.2,0.1-0.2,0.2c0.3,0,0.6-0.4,0.9-0.2c-0.1,0.1-0.3,0.1-0.4,0.1
			c0.2,0.1,0.4,0.2,0.6,0.2l0,0l0.5,0.1H246c0.4-0.5,0.8-0.1,1.3-0.4c-0.5,0.3-0.1,0.2-0.1,0.4c0.1,0.1,0.3,0.1,0.3,0.2
			c0.2-0.2,0.4,0.1,0.7-0.1c0,0.1,0.3,0,0.2,0.2c0.3,0-0.1-0.1,0-0.2c0.5-0.2,1.1,0.3,1.8,0c0.6-0.1,0.7-0.4,1.2-0.5
			c0.2,0.1-0.1,0.2-0.1,0.2c0.3,0.1,0.5,0.1,0.8,0c0,0.1,0,0.1,0.1,0.2s0.1-0.2,0.5-0.2c-0.1,0.1-0.1,0.2-0.2,0.3
			c0.3-0.1,0.5-0.2,0.8-0.2c0.1,0.1-0.2,0.2-0.3,0.2c0.3-0.1,0.8-0.1,0.9-0.3l-0.2-0.1c0.1,0,0.1,0.2,0,0.2
			c-0.3,0.1-0.4-0.1-0.4-0.1h0.2c-0.2-0.4-0.8,0.1-1.2,0l0.2-0.3l-0.4,0.2c-0.1-0.1-0.1-0.2,0.1-0.3c-0.3-0.1-0.2,0.1-0.5,0
			c0,0,0,0,0,0l0,0l-0.3,0.1c0.1-0.1,0-0.2,0.1-0.2c-0.5-0.2-0.8,0.2-0.9,0l0,0c-0.7,0.1-0.1,0.2-0.6,0.5l-0.4-0.5l-0.1,0.2
			c-0.1,0-0.2,0-0.2-0.1c-0.3,0.1,0,0.1-0.1,0.2c-0.4-0.2-0.9,0.1-1-0.2c-0.1,0.2,0.3,0.1,0,0.2c-0.1-0.4-0.4,0.1-0.7-0.1
			c0.1-0.2,0.4-0.1,0.1-0.3c-0.2,0.3-0.6-0.1-0.9,0c0,0.3-0.6,0.1-1,0.2c-0.4-0.1-0.8-0.2-1.3-0.2V0.6c-0.1,0.3-0.5,0.2-0.8,0.3
			c0-0.1,0.1-0.2,0.2-0.3h-0.3c-0.1,0.1-0.2,0.1-0.4,0.1l0.1-0.2c-0.4,0.1-0.9,0.1-1.3,0.1c0,0.2,0.4,0.5-0.1,0.6
			c0-0.1,0-0.2,0.1-0.3c-0.1,0-0.2,0-0.2,0l0.2-0.2c-0.2-0.1-0.1,0.1-0.3,0.1c0-0.1-0.1-0.1-0.1-0.2s0.2,0.1,0.2,0
			c-0.3,0-0.5-0.1-0.8-0.2c0,0.1,0,0.2-0.1,0.2c-0.4,0-0.1-0.2-0.4-0.2c-0.1,0.1-0.3,0-0.4,0.2c-0.1,0-0.1-0.1-0.2-0.1
			c-0.2,0.1-1,0-0.7,0.2l0,0c-0.7,0.2-1.4-0.1-2.1,0l0,0c-0.4,0-0.8,0.1-1.2,0.2c-0.1,0-0.2-0.1-0.2-0.2c-0.2,0.1-0.5,0.1-0.8,0
			c0.3-0.1-0.1-0.1,0.3-0.1c-0.4-0.1-0.5-0.2-0.9,0c0.1-0.2-0.3-0.2-0.5-0.2l0.3,0.1c-0.2,0-0.4,0-0.6,0l0.1-0.2
			c-0.8-0.3-1.4,0.5-2,0c-0.2,0.2,0.4,0.1,0.2,0.3c-0.4,0-0.7-0.4-0.9-0.4c-0.5-0.1-0.5,0.3-1,0.2c0.1,0.1,0,0.3-0.2,0.4h-0.1
			c-0.4,0-0.4-0.3-0.2-0.4s0.1,0,0.1,0s0.3-0.1,0.1-0.1v0.1c-0.2-0.1-0.7-0.1-0.6-0.2c-0.3,0.1-0.1,0.1,0.1,0.2
			c-0.4,0-0.8-0.1-1.2-0.1c0.1,0,0.1,0.1,0.1,0.1c-0.7-0.1-0.3,0.2-0.8,0.2c-0.3-0.1,0.1-0.3-0.4-0.2c-0.3-0.1-0.1-0.2,0.1-0.3
			c-0.4,0.2-0.8-0.1-1.1-0.1h0.2c-0.1,0-0.3,0-0.4,0l0.1,0.2c-0.1,0-0.2,0-0.2-0.1c-0.1,0.1,0.1,0.3-0.2,0.4
			c-0.2-0.1-0.6,0.1-0.6-0.1c0.6,0.1-0.1-0.2,0.4-0.2c-0.1,0-0.2,0-0.4,0c0,0,0,0,0.1-0.1c-0.5-0.2-0.2,0.2-0.8,0.2
			c0.1-0.1-0.1-0.2-0.2-0.2c0.2,0,0.1,0.2-0.1,0.3c-0.4-0.1-0.4,0.1-0.6,0.1l0.2,0c-0.1,0.1-0.3,0.1-0.5,0.1c0-0.1,0.2-0.1,0.1-0.1
			c-0.3,0.2-0.6-0.2-1-0.1c-0.2-0.1,0-0.2-0.2-0.3c-0.4,0.2-0.5-0.2-0.9,0c0.1,0.2,0.1,0.1-0.2,0.3l0.8-0.1l-0.5,0.2
			c0.2,0,0.5-0.1,0.6-0.1c-0.2,0.1-0.2,0.1-0.1,0.2c-0.3-0.2-0.6,0.1-0.9,0V0.4c-0.6-0.2-1,0.2-1.7,0.1l0.2,0.1
			c-0.1,0.2-0.4,0-0.7,0.1c0-0.1-0.1-0.2-0.2-0.3c0,0.1-0.5,0-0.6,0.3l-0.3-0.2c-0.6-0.1-0.7,0.4-1.2,0.3c0.2-0.1-0.1-0.2,0.3-0.4
			c-0.2,0-0.4,0-0.4,0.1c-0.1-0.1-0.5,0.2-0.7,0c-0.1,0.1-0.1,0.2-0.3,0.2 M215.2,0.7c0,0.1-0.3,0.1-0.1,0.2c-0.6-0.4-1.6,0-2.1-0.3
			c-0.4,0-0.8,0.1-1.2,0.1c0,0,0-0.1,0.1,0c-0.5-0.1-0.3,0.4-0.9,0.2c-0.3-0.2,0.3-0.1,0.1-0.2c-0.1-0.4-0.7,0.1-1.1-0.2h0.1
			c-0.3-0.2-0.7,0.2-1.2,0.1c0,0,0,0,0-0.1c-0.4,0.2-0.9,0.3-1.4,0.4c0.1-0.2,0.2-0.1,0.1-0.3c-0.2,0,0.1,0.3-0.4,0.3
			c-0.1-0.1-0.4-0.2-0.5-0.4h0.4c-0.2-0.2-0.5,0-0.7,0V0.5c-0.6,0-0.6,0.3-1.2,0.3l0.1,0.1c-0.3,0.2-0.3-0.2-0.6,0l-0.1-0.3
			c-0.4,0.1-0.8,0.2-1.2,0.3c0.3-0.2,0.6-0.3,1-0.4c-0.2,0-0.8,0-0.9,0.1c0.1,0,0.2-0.1,0.3,0c-0.3,0.2-0.7,0.3-1.1,0.3
			c0.1-0.5-1.2-0.1-1.5-0.5c-0.9,0.1-1.7,0.1-2.6,0c0.3,0.4-0.3,0-0.2,0.4h-0.4l-0.6-0.2c-0.2-0.1,0.2-0.1,0.2-0.2
			c-0.5,0-0.2-0.2-0.6-0.3c0.1,0.1-0.2,0.2-0.4,0.2l0.4,0.2c-0.7,0.2-0.6-0.4-1.3-0.1l0.2-0.1c-0.3,0.1-1.3,0-1.6,0.3
			c-0.1,0-0.1-0.2,0-0.2c-0.8-0.1-1.8,0.4-2.5,0.1l0.1-0.1c-0.2,0-0.3,0.2-0.5,0.1c0,0,0.1-0.1,0-0.1s-0.4,0.2-0.6,0.1l0.2-0.1
			c-0.8-0.1-1.2,0.3-1.9,0.4c0-0.3-0.6-0.4-0.9-0.4v0c-0.8,0-1.7,0.2-2.5,0.4c-0.6-0.3-1.8-0.1-2.7-0.3c0.1,0,0,0.2-0.2,0.3
			S182,0.6,182,0.4h0.1c-0.1-0.3-0.6-0.2-0.9-0.2v0.4c-0.9-0.6-2.3,0.2-2.7-0.3c-0.2,0.1-0.5,0.1-0.7,0.2V0.2c-0.5,0-1.1,0-1.6,0
			l0.1-0.2c-0.4,0-0.5,0.6-0.9,0.6l-0.1-0.3c-0.7-0.1-1.4-0.1-2.1,0c0,0,0-0.1,0.1-0.1c-0.3,0-1.3-0.2-1.1,0.2c0-0.3-0.7,0-1.1,0.1
			V0.3c-0.2,0.2-0.5,0.4-0.8,0.4c-0.1,0-0.1-0.1,0-0.1c-0.4-0.1-0.3,0.2-0.7,0.1l0.2-0.1c-0.4,0-0.3,0-0.5,0.2
			c-0.3,0.1-0.6,0-0.7-0.2c-0.1,0.2-0.3,0.2-0.5,0.2c0-0.1,0-0.1,0.1-0.1c-0.6-0.1-0.9,0.2-1.3,0c0,0,0-0.1-0.1-0.1
			c0.3,0,0.6,0,0.9,0c0-0.2-0.4-0.2-0.1-0.4c-0.3,0.1-0.9,0.4-1.3,0.3V0.4l0,0c-0.1,0-0.2,0-0.2,0c-0.1,0-0.2,0-0.3,0
			c0-0.1-0.4-0.1-0.6-0.1c0,0.2-0.2,0.2,0,0.3c0,0,0,0,0.2,0h0.6c-0.1,0.1-0.4,0.2-0.5,0.1l-0.3,0.3c-0.2-0.3-0.8-0.4-0.9-0.6
			c-0.6,0.1-1.4,0.1-1.8,0.4c-0.2,0-0.2-0.1-0.3-0.1c0.1,0,0.2,0,0.3-0.1c-0.3,0.1-1,0-1.1,0.3c-0.4-0.1,0.2-0.2-0.4-0.2l0.1-0.1
			c-1.1-0.4-1.9,0.6-3.1,0.1c0.1,0,0.1,0,0.1,0.1c-1.4-0.2-3,0.2-4.4-0.2c-0.4-0.1-0.5,0.1-0.7,0.2L153,0.6l-0.4,0.2
			c-0.6,0.2-1-0.5-1.8-0.2l0.1,0.1c-0.3,0-0.9,0.1-0.8-0.1c0,0-0.1,0.1-0.2,0.1V0.7l-0.7,0.2c-0.5-0.1,0.1-0.4-0.7-0.5
			c-0.3,0-0.8,0.3-0.7,0.4s0.3,0.1,0.3,0.2h-0.3c-0.1,0.3-0.2,0.7,0.4,0.9l0.4-0.2l0.1,0.2h-0.4c0.2,0.2,0.3,0,0.5-0.1
			c0,0.1,0.1,0.1,0.2,0.2l0.4-0.3c0.1,0.1-0.2,0.2,0.1,0.3c0.2-0.1-0.2-0.3,0.1-0.4c0.2,0.2,0.1,0.3,0.4,0.1c0,0.1,0,0.1-0.1,0.2
			c0.2-0.1,0.6,0,0.7-0.2c0.2,0.2,0.7,0,0.7,0.2c0.2-0.1,0.4-0.2,0.6-0.2c-0.4,0.4,0.8,0,0.7,0.4c0.3-0.3,0.9-0.1,1.5-0.3
			c0,0-0.1,0.1-0.1,0.1c0.2,0,0.4,0.1,0.5,0.2c0-0.3,0.5-0.3,0.7-0.5c0.3,0.3-0.2,0.3-0.1,0.5c0-0.2,0.6-0.2,0.5-0.4
			c0.2,0.2,0.2,0.1,0.4,0.3c0.1-0.3,0.2-0.1,0.4-0.3c0.4,0.2,0.1,0.3,0.5,0.2c0.2,0.2-0.2,0.3-0.2,0.3L215.2,0.7z M167.4,1.6H167
			c0-0.1,0-0.1,0.1-0.1C167.2,1.5,167.3,1.6,167.4,1.6L167.4,1.6z M165.7,0.3c0.1,0,0.2,0,0.2,0L165.7,0.3L165.7,0.3z"/>
		<path class="st0" d="M165.4,0.5L165.4,0.5L165.4,0.5L165.4,0.5L165.4,0.5z"/>
		<path class="st0" d="M239.1,0.8L239.1,0.8L239.1,0.8z"/>
		<polygon class="st0" points="178.6,2 178.6,1.9 178.5,2 		"/>
		<path class="st0" d="M243.6,1.5C243.6,1.5,243.6,1.5,243.6,1.5L243.6,1.5z"/>
		<path class="st0" d="M245.5,1.5l0.3,0.1L245.5,1.5z"/>
		<path class="st0" d="M247,1.6L247,1.6L247,1.6L247,1.6z"/>
		<path class="st0" d="M223.4,1.8L223.4,1.8C223.2,1.9,223.3,1.9,223.4,1.8z"/>
		<path class="st0" d="M230.4,1.4l-0.2,0.1C230.3,1.5,230.4,1.5,230.4,1.4z"/>
		<path class="st0" d="M215.5,2.1"/>
		<path class="st0" d="M229.9,1.5c0.1,0,0.2,0,0.3,0C230.1,1.5,230,1.5,229.9,1.5z"/>
		<path class="st0" d="M253.4,1.7L253.4,1.7z"/>
		<path class="st0" d="M253.5,1.7L253.5,1.7C253.6,1.7,253.5,1.6,253.5,1.7z"/>
		<path class="st0" d="M253.8,1.6h-0.2C253.7,1.6,253.8,1.7,253.8,1.6z"/>
		<path class="st0" d="M251.5,1.6L251.5,1.6z"/>
		<path class="st0" d="M250.9,1.6c0.1,0,0.4,0.2,0.6,0.1V1.7C251.4,1.8,251,1.5,250.9,1.6z"/>
		<path class="st0" d="M248.4,0.8l0.5,0c-0.1-0.1-0.2-0.2,0-0.2C248.3,0.4,249,0.8,248.4,0.8z"/>
		<path class="st0" d="M246.9,0.7c0.3,0,0-0.1,0-0.1C246.7,0.6,246.7,0.6,246.9,0.7z"/>
		<path class="st0" d="M235.6,0.7V0.5C235.4,0.5,235.6,0.5,235.6,0.7z"/>
		<polygon class="st0" points="233.5,1.6 233.7,1.7 233.8,1.5 		"/>
		<polygon class="st0" points="232.2,0.3 232.3,0.3 231.9,0.4 		"/>
		<path class="st0" d="M213.3,0.4l0.1,0.2C213.5,0.5,213.6,0.3,213.3,0.4z"/>
		<path class="st0" d="M205.2,0.6c-0.1-0.1-0.3-0.2-0.5-0.1C204.9,0.5,205.1,0.6,205.2,0.6z"/>
		<polygon class="st0" points="180.8,0.3 180.9,0.2 180.6,0.2 		"/>
	</g>
</g>
<g id="Layer_2-3">
	<g id="Layer_1-2-3">
		<path class="st0" d="M200.2,1.6c0.1-0.1,0-0.2-0.1-0.2L200,1.6L200.2,1.6z"/>
		<path class="st0" d="M199.2,1.1c-0.3,0.1-0.4,0.3-0.3,0.5c0.2-0.2,0.2-0.1,0.4-0.4c0.2,0,0.3,0.1,0.3,0.2s0.2,0,0.3-0.1
			c-0.2-0.2-0.5-0.2-0.8,0C199,1.2,199.1,1.2,199.2,1.1z"/>
		<path class="st0" d="M183,0.8h0.1H183z"/>
		<path class="st0" d="M173,0.7c0.1,0,0.1,0,0.1,0S173,0.6,173,0.7z"/>
		<path class="st0" d="M171.3,0.4h0.1C171.4,0.4,171.3,0.4,171.3,0.4z"/>
		<path class="st0" d="M183,0.8l-0.3-0.1C182.7,0.8,182.9,0.8,183,0.8z"/>
		<path class="st0" d="M196.9,1.7c0.1,0,0.1,0,0.1-0.1L196.9,1.7L196.9,1.7z"/>
		<path class="st0" d="M187.4,0.6L187.4,0.6c0.1,0,0.1-0.1,0.2-0.1L187.4,0.6z"/>
		<path class="st0" d="M190.8,0.5c-0.1,0-0.1,0.2-0.1,0.3s0.1-0.1,0.2-0.1C190.8,0.6,190.8,0.6,190.8,0.5z"/>
		<path class="st0" d="M196.1,0.9L196.1,0.9z"/>
		<path class="st0" d="M185,0.5L185,0.5C185,0.5,185,0.5,185,0.5z"/>
		<path class="st0" d="M90.4,2L90.4,2C90.4,2,90.4,2,90.4,2z"/>
		<path class="st0" d="M86.5,1.1L86.5,1.1c0,0,0-0.1,0-0.1V1.1z"/>
		<path class="st0" d="M168.2,0.2L168.2,0.2C168.3,0.1,168.2,0.1,168.2,0.2z"/>
		<path class="st0" d="M139.5,0.3c0.3,0.2-0.5,0.2,0,0.4C139.4,0.6,139.9,0.4,139.5,0.3z"/>
		<path class="st0" d="M196.8,1.6"/>
		<path class="st0" d="M139.5,0.7"/>
		<path class="st0" d="M160.9,0.3L160.9,0.3C161,0.3,161,0.3,160.9,0.3z"/>
		<path class="st0" d="M166.3,0.5L166.3,0.5z"/>
		<path class="st0" d="M158.2,0.5c-0.1,0-0.1,0-0.2,0H158.2z"/>
		<path class="st0" d="M155.3,0.5L155.3,0.5L155.3,0.5L155.3,0.5z"/>
		<path class="st0" d="M99.2,1.9c0,0-0.1-0.1-0.1-0.2C99.2,1.9,98.7,1.9,99.2,1.9z"/>
		<path class="st0" d="M196.9,1.6C196.9,1.6,196.9,1.6,196.9,1.6L196.9,1.6C196.9,1.6,196.9,1.6,196.9,1.6z"/>
		<path class="st0" d="M158.1,2.1L158.1,2.1z"/>
		<path class="st0" d="M120,1.9L120,1.9z"/>
		<path class="st0" d="M156.2,2.1C156.2,2.1,156.1,2,156,2L155.9,2L156.2,2.1z"/>
		<path class="st0" d="M99.1,1.7"/>
		<path class="st0" d="M96.1,2.2c0.4,0,0.2-0.3,0.3-0.4c0.5-0.1,0.2,0.2,0.4,0.3c0.3-0.1,0.6-0.3,0.8-0.3c0,0,0.1,0.1,0,0.1
			c0.4-0.2,1,0,1.4-0.3c0,0,0,0,0.1,0.1C99,1.6,99,1.5,99,1.4c0.2,0,0.4-0.2,0.4,0c-0.1,0-0.1,0.1-0.2,0.1l0.2-0.1
			c0.2,0.2-0.3,0.1-0.3,0.3c0.4-0.1,0.8-0.2,1.2-0.2c0.1,0.2-0.7,0.1-0.3,0.3l-0.5-0.1c0.4,0.4-0.3,0,0,0.4c0.6,0.1,0.7-0.1,1.3-0.1
			c0.1-0.1,0-0.2,0.1-0.3c0.9-0.2,0.7,0.6,1.3,0.3c0.2-0.2,0.2-0.5,0.7-0.3l-0.2,0.3c0.6,0,0.3-0.4,1-0.2c-0.1,0.1-0.5,0.1-0.4,0.1
			c0.4,0.2,0.3-0.1,0.6-0.1l0.1,0.2c0.7,0,1.4-0.2,2.1-0.2c0,0.1-0.2,0.1,0,0.2c0.9-0.1,1.9,0,2.8,0.2l0.3-0.2
			c0.1,0,0.1,0.1,0.1,0.1l0,0c0.3,0.1,0-0.1,0.2-0.2s0.2,0,0.2,0.1s0,0.1-0.1,0.1c0.8-0.2,1.6-0.3,2.3-0.2L112,1.9
			c0.5,0.1,0.6-0.4,1-0.2h-0.1c1,0,2,0,3,0.2c0.2-0.3,1.1,0.1,1.1-0.3c0.4,0.2,0.8,0.3,1.3,0.4c0.2,0,0.3-0.2,0.6-0.3v0.2l0.4-0.2
			l0.2,0.2h0.3c-0.1,0-0.2-0.1-0.1-0.2c0.4-0.1,0.7,0,1,0.2l1-0.2c0,0.1-0.2,0.1-0.3,0.2c0.5-0.2,0.1,0.2,0.6,0c-0.1,0,0-0.1,0-0.2
			c0.4,0.1,0.8,0.1,1.2,0.1L123,2.1c0.7,0,1.5-0.1,2.3-0.1c-0.3-0.1-0.2-0.3,0-0.3l0.1,0.2c0.2-0.1-0.2-0.1,0.1-0.3
			c0.3,0,0.2,0.3,0,0.3l0.4-0.1c0,0.1-0.1,0.1-0.1,0.2c0.2-0.1,0.6,0.2,0.9,0v0.1c0.8,0,1.2-0.1,1.8-0.1c0-0.2,0.3-0.2,0.5-0.3
			c0.6,0.1,1.1,0.2,1.7,0.2c0.4-0.1,0.1-0.2,0.3-0.3c0,0.2,0.6,0.2,0.3,0.3c0.6,0,1.2-0.1,1.8-0.2c-0.1-0.1-0.2-0.1-0.1-0.2
			s0.3,0,0.3,0.1l0,0l0,0c1-0.3,2.3,0.5,3.1,0.1h-0.1l0.8-0.2c0.4,0-0.2,0.1,0.1,0.2c0.9-0.3,1.4,0,2.1-0.2c0.6,0.5,2,0,2.8,0.3V2
			c0.2-0.1,0.2,0.1,0.4,0.1c0-0.1-0.2-0.1-0.1-0.2c1.7,0,3.5,0.1,5.2,0.3c0.6,0,0.4-0.6,1.2-0.3l-0.2,0.2c1.3-0.3,2.6,0,3.9-0.2
			c-0.1,0-0.1,0.1-0.2,0.1c0.3,0.2,1,0,1-0.1c0.2,0,0.1,0.1,0.2,0.2c0.3,0.1,0.7-0.2,0.8,0c0,0-0.1,0-0.1,0.1c0.2-0.1,0.8,0,0.6-0.2
			c0.5,0.1,0.9-0.1,1.3,0c0.2-0.2,0.8,0.1,0.9-0.2c0,0.3,0.8,0.2,1.1,0.1c-0.1,0.1,0.3,0.1,0.1,0.2c0.3,0,0.6-0.1,0.6-0.2
			c0.6,0.4,1.2-0.3,1.6,0.2c0.9-0.2,1.9-0.3,2.8-0.3c0,0.3-1,0-1,0.3c0.7-0.2,1.5-0.3,2.2-0.3c0.2,0-0.1,0.1-0.2,0.2
			c0.9-0.1,1.6,0,2.4-0.1l-0.2,0.1c0.1,0,0.3,0,0.3-0.1h-0.1c-0.2-0.2,0.6-0.4,0.6-0.5c-0.3,0.4,0.8,0.1,0.4,0.6
			c0.1,0,0.2-0.1,0.2-0.2c0.1,0,0.2,0.1,0.1,0.2c0.5-0.1,0.3-0.2,0.8-0.2c0,0.1-0.1,0.1-0.1,0.2c0.3-0.2,0.6-0.2,0.9-0.2
			c0,0,0,0.1-0.1,0.1c0.7,0,1.2-0.3,2-0.2c-0.2,0.3,0.3,0.1,0.3,0.3h0.3l-0.1-0.1c0.4,0,0.7-0.2,1-0.1l-0.3,0.1h0.7l-0.4-0.1
			c0.4-0.1,0-0.3,0.4-0.2c0.2,0,0.4,0.1,0.6,0.2l0,0c0.2-0.1,0.4-0.1,0.6-0.1c0.1,0.1,0,0.3,0,0.3c0.2-0.2,0.9-0.1,1.1-0.3
			c-0.1,0.1-0.1,0.1-0.1,0.2l0.1-0.2c0.2,0,0.2,0.1,0.2,0.2c0.5,0-0.2-0.3,0.4-0.2c0,0,0,0-0.1,0.1c0.6,0.1,1.2-0.1,1.7,0
			c0.2,0.3-0.5,0.1-0.3,0.3c0.8-0.1,1.6-0.2,2.4-0.2h-0.2c0.1-0.4,0.6,0.2,1,0c-0.1,0-0.1,0.2-0.1,0.2c0.6,0,1.3-0.1,1.9-0.2
			l-0.1,0.1c0.4,0,0.8,0.1,1.2,0.1c0.1-0.1,0.3-0.1,0.2-0.2c1,0.5,2-0.3,2.9,0.2c-0.1,0-0.3,0.1-0.2,0.1l0.8-0.1
			c-0.1-0.2-0.1-0.1-0.3-0.2c0.1-0.1,0.3-0.2,0.5-0.2c-0.4,0.1,0,0.3,0.2,0.3V1.4c0.4,0.3,0.1-0.3,0.6-0.1v0.1
			c0.2-0.1,0.4-0.1,0.6-0.1c0.1,0.2-0.2,0.1-0.2,0.2c0.3,0,0.6-0.4,0.9-0.2c-0.1,0.1-0.3,0.1-0.5,0.1c0.2,0.1,0.4,0.2,0.6,0.2l0,0
			l0.5,0.1h-0.1c0.4-0.5,0.8-0.1,1.4-0.4c-0.5,0.3-0.1,0.2-0.1,0.4c0.1,0.1,0.4,0.1,0.3,0.2c0.3-0.2,0.4,0.1,0.8-0.1
			c0,0.1,0.3,0,0.2,0.2c0.3,0-0.1-0.1,0-0.2c0.5-0.2,1.2,0.3,1.9,0c0.6-0.1,0.8-0.4,1.3-0.5c0.2,0.1-0.2,0.2-0.2,0.2
			c0.3,0.1,0.6,0.1,0.9,0c-0.1,0.1,0,0.1,0.1,0.2s0.2-0.2,0.5-0.2c-0.1,0.1-0.1,0.2-0.2,0.3c0.3-0.1,0.6-0.2,0.9-0.2
			c0.1,0.1-0.2,0.2-0.3,0.2c0.3-0.1,0.9-0.1,1-0.3l-0.2-0.1c0.1,0,0.1,0.2,0,0.2c-0.3,0.1-0.4-0.1-0.4-0.1h0.2
			c-0.2-0.4-0.8,0.1-1.3,0l0.2-0.3l-0.4,0.2c-0.1-0.1-0.1-0.2,0.1-0.3c-0.3-0.1-0.3,0.1-0.5,0c0,0,0,0,0,0l0,0L196,1.1
			c0.1-0.1,0-0.2,0.1-0.2c-0.5-0.2-0.9,0.2-1,0l0,0c-0.7,0.1-0.1,0.2-0.6,0.5l-0.4-0.5L194,1.1c-0.1,0-0.2,0-0.2-0.1
			c-0.3,0.1,0,0.1-0.1,0.2c-0.4-0.2-1,0.1-1.1-0.2c-0.1,0.2,0.4,0.1,0,0.2c-0.1-0.4-0.4,0.1-0.8-0.1c0.1-0.2,0.4-0.1,0.1-0.3
			c-0.2,0.3-0.7-0.1-0.9,0c0,0.3-0.6,0.1-1.1,0.2c-0.4-0.1-0.9-0.2-1.3-0.2V0.6c-0.1,0.3-0.6,0.2-0.9,0.3c0-0.1,0.1-0.2,0.2-0.3
			h-0.3c-0.1,0.1-0.2,0.1-0.4,0.1l0.1-0.2c-0.4,0.1-0.9,0.1-1.4,0.1c0,0.2,0.4,0.5-0.1,0.6c0-0.1,0-0.2,0.1-0.3c-0.1,0-0.2,0-0.3,0
			l0.2-0.2c-0.2-0.1-0.1,0.1-0.3,0.1c0-0.1-0.1-0.1-0.1-0.2s0.2,0.1,0.2,0c-0.3,0-0.6,0-0.8-0.2c0,0.1,0,0.2-0.2,0.2
			c-0.4,0-0.1-0.2-0.4-0.2c-0.1,0.1-0.4,0-0.4,0.2c-0.1,0-0.1-0.1-0.2-0.1c-0.2,0.1-1,0-0.8,0.2l0,0c-0.7,0.2-1.5-0.1-2.2,0l0,0
			c-0.4,0-0.8,0.1-1.2,0.2c-0.2,0-0.3-0.1-0.2-0.2c-0.3,0.1-0.5,0.1-0.8,0c0.3-0.1-0.1-0.1,0.3-0.1c-0.4-0.1-0.5-0.2-0.9,0
			c0.1-0.2-0.3-0.2-0.5-0.2l0.3,0.1c-0.2,0-0.4,0-0.6,0l0.1-0.2c-0.8-0.3-1.5,0.5-2.2,0c-0.2,0.2,0.4,0.1,0.2,0.3
			c-0.4,0-0.8-0.4-0.9-0.4c-0.5-0.1-0.5,0.3-1,0.2c0.1,0.1,0,0.3-0.2,0.4h-0.1c-0.4,0-0.5-0.3-0.2-0.4s0.1,0,0.1,0s0.3-0.1,0.1-0.1
			v0.1c-0.2-0.1-0.7-0.1-0.6-0.2c-0.3,0.1-0.1,0.1,0.1,0.2c-0.5-0.1-0.8,0-1.3-0.1c0.1,0,0.1,0.1,0.1,0.1c-0.8-0.1-0.3,0.2-0.9,0.2
			c-0.3-0.1,0.1-0.3-0.4-0.2c-0.3-0.1-0.1-0.2,0.1-0.3c-0.5,0.2-0.9-0.1-1.1-0.1h0.2c-0.1,0-0.3,0-0.4,0l0.1,0.2
			c-0.1,0-0.3,0-0.3-0.1c-0.1,0.1,0.1,0.3-0.2,0.4c-0.2-0.1-0.6,0.1-0.6-0.1c0.6,0.1-0.1-0.2,0.4-0.2c-0.1,0-0.2,0-0.4,0
			c0,0,0,0,0.1-0.1c-0.6-0.2-0.3,0.2-0.9,0.2c0.1-0.1-0.1-0.2-0.2-0.2c0.2,0,0.1,0.2-0.1,0.3c-0.4-0.1-0.4,0.1-0.6,0.1l0.2,0
			c-0.1,0.1-0.3,0.1-0.5,0.1c0-0.1,0.2-0.1,0.1-0.1c-0.3,0.2-0.7-0.2-1.1-0.1c-0.2-0.1,0-0.2-0.2-0.3c-0.5,0.2-0.5-0.2-1,0
			c0.1,0.2,0.2,0.1-0.2,0.3l0.8-0.1L164,0.6c0.2,0,0.5-0.1,0.6-0.1c-0.2,0.1-0.2,0.1-0.1,0.2c-0.3-0.2-0.7,0.1-1,0V0.4
			c-0.6-0.2-1,0.2-1.8,0.1l0.2,0.1c-0.1,0.2-0.5,0-0.7,0.1c0-0.1-0.1-0.2-0.2-0.3c0,0.1-0.5,0-0.6,0.3l-0.4-0.2
			c-0.6-0.1-0.7,0.4-1.3,0.3c0.2-0.1-0.1-0.2,0.3-0.4c-0.2,0-0.4,0-0.4,0.1c-0.1-0.1-0.6,0.2-0.7,0c-0.1,0.1-0.1,0.2-0.3,0.2
			 M157.7,0.7c0,0.1-0.3,0.1-0.1,0.2c-0.6-0.4-1.7,0-2.2-0.3c-0.4,0-0.9,0.1-1.3,0.1c0,0,0-0.1,0.1,0c-0.5-0.1-0.3,0.4-0.9,0.2
			c-0.3-0.2,0.3-0.1,0.1-0.2c-0.1-0.4-0.7,0.1-1.1-0.2h0.1c-0.3-0.2-0.8,0.2-1.3,0.1c0,0,0,0,0-0.1c-0.5,0.2-1,0.3-1.5,0.4
			c0.1-0.2,0.2-0.1,0.1-0.3c-0.2,0,0.1,0.3-0.4,0.3c-0.1-0.1-0.4-0.2-0.5-0.4h0.4c-0.2-0.2-0.5,0-0.8,0V0.5c-0.6,0-0.6,0.3-1.3,0.3
			l0.1,0.1c-0.3,0.2-0.3-0.2-0.6,0l-0.1-0.3c-0.4,0.1-0.9,0.2-1.3,0.3c0.3-0.2,0.7-0.3,1.1-0.4c-0.2,0-0.8,0-0.9,0.1
			c0.1,0,0.2-0.1,0.3,0c-0.3,0.2-0.8,0.3-1.2,0.3c0.1-0.5-1.2-0.1-1.6-0.5c-0.9,0.1-1.8,0.1-2.7,0c0.4,0.4-0.3,0-0.2,0.4h-0.3
			l-0.7-0.2c-0.2-0.1,0.2-0.1,0.2-0.2c-0.6,0-0.2-0.2-0.6-0.3c0.1,0.1-0.2,0.2-0.5,0.2l0.4,0.2c-0.7,0.2-0.6-0.4-1.3-0.1l0.2-0.1
			c-0.3,0-1.3,0-1.7,0.3c-0.1,0-0.1-0.2,0-0.2c-0.9-0.1-1.9,0.4-2.6,0.1l0.1-0.1c-0.2,0-0.3,0.2-0.5,0.1c0,0,0.1-0.1,0-0.1
			s-0.4,0.2-0.7,0.1l0.2-0.1c-0.9-0.1-1.3,0.3-2,0.4c0-0.3-0.7-0.4-1-0.4v0c-0.9,0-1.7,0.2-2.6,0.4c-0.6-0.3-2-0.1-2.9-0.3
			c0.1,0,0,0.2-0.2,0.3s-0.6,0.2-0.6-0.1h0.1c-0.2-0.3-0.6-0.2-1-0.2v0.4c-0.9-0.6-2.4,0.2-2.9-0.3c-0.2,0.1-0.5,0.1-0.7,0.2V0.2
			c-0.6,0-1.1,0-1.7,0l0.2-0.2c-0.4,0-0.5,0.6-0.9,0.6l-0.1-0.3c-0.7-0.1-1.5-0.1-2.2,0c0,0,0-0.1,0.2-0.1c-0.3,0-1.3-0.2-1.2,0.2
			c0-0.3-0.8,0-1.2,0.1V0.3c-0.2,0.2-0.5,0.4-0.8,0.4c-0.1,0-0.1-0.1,0.1-0.1c-0.4-0.1-0.3,0.2-0.8,0.1l0.2-0.1
			c-0.2,0-0.4,0-0.6,0.2c-0.3,0.1-0.6,0-0.8-0.2c-0.1,0.2-0.3,0.2-0.5,0.2c0,0,0-0.1,0.1-0.1c-0.7-0.1-1,0.2-1.4,0
			c0,0,0-0.1-0.1-0.1c0.3,0,0.6,0,0.9,0c0-0.2-0.4-0.2-0.1-0.4c-0.4,0.1-0.9,0.4-1.3,0.3l-0.1-0.1l0,0c-0.1,0-0.2,0-0.3,0
			c-0.1,0-0.2,0-0.3,0c0-0.1-0.5-0.1-0.7-0.1c0,0.2-0.2,0.2,0,0.3c0,0,0,0,0.2,0h0.6c-0.2,0.1-0.4,0.2-0.6,0.1l-0.3,0.3
			c-0.3-0.3-0.8-0.4-0.9-0.6c-0.6,0.1-1.5,0.1-1.9,0.4c-0.2,0-0.2-0.1-0.3-0.1c0.1,0,0.2,0,0.3-0.1c-0.3,0.1-1.1,0-1.1,0.3
			c-0.4-0.1,0.3-0.2-0.4-0.2l0.1-0.1c-1.2-0.4-2,0.6-3.3,0.1c0.1,0,0.1,0,0.2,0.1C96,0.5,94.4,1,92.9,0.6c-0.4-0.1-0.5,0.1-0.8,0.2
			L92,0.6l-0.4,0.2C91,1,90.5,0.3,89.7,0.7l0.1,0.1c-0.3,0-0.9,0.1-0.9-0.1c0,0-0.1,0.1-0.2,0.1V0.7L88,0.9
			c-0.6-0.1,0.1-0.4-0.7-0.5c-0.3,0-0.9,0.3-0.7,0.4s0.3,0.1,0.3,0.2h-0.3c-0.1,0.3-0.3,0.7,0.4,0.9l0.5-0.2l0.2,0.2h-0.4
			c0.2,0.2,0.4,0,0.5-0.1c0,0.1,0.1,0.1,0.2,0.2l0.5-0.3c0.1,0.1-0.2,0.2,0.1,0.3c0.2-0.1-0.2-0.3,0.2-0.4c0.2,0.2,0.2,0.3,0.4,0.1
			c0,0.1,0,0.1-0.1,0.2c0.2-0.1,0.6,0,0.7-0.2c0.2,0.2,0.8,0,0.8,0.2c0.2-0.1,0.4-0.2,0.6-0.2c-0.4,0.4,0.8,0,0.7,0.4
			c0.3-0.3,1-0.1,1.6-0.3c0,0-0.1,0.1-0.1,0.1c0.2,0,0.4,0.1,0.6,0.2c0-0.3,0.5-0.3,0.7-0.5c0.3,0.3-0.2,0.3-0.1,0.5
			c0-0.2,0.6-0.2,0.5-0.4c0.3,0.2,0.2,0.1,0.4,0.3c0.1-0.3,0.2-0.1,0.5-0.3c0.4,0.2,0.1,0.3,0.5,0.2c0.2,0.2-0.2,0.3-0.2,0.3
			L157.7,0.7z M107.2,1.6h-0.4c0-0.1,0-0.1,0.1-0.1C107,1.5,107.1,1.6,107.2,1.6z M105.4,0.3c0.1,0,0.2,0,0.2,0L105.4,0.3L105.4,0.3
			z"/>
		<path class="st0" d="M105.1,0.5L105.1,0.5L105.1,0.5L105.1,0.5L105.1,0.5z"/>
		<path class="st0" d="M183.1,0.8L183.1,0.8L183.1,0.8z"/>
		<polygon class="st0" points="119.1,2 119.1,1.9 119,2 		"/>
		<path class="st0" d="M187.9,1.5C187.9,1.5,187.9,1.5,187.9,1.5L187.9,1.5z"/>
		<path class="st0" d="M189.9,1.5l0.3,0.1L189.9,1.5z"/>
		<path class="st0" d="M191.5,1.6C191.5,1.6,191.5,1.6,191.5,1.6L191.5,1.6L191.5,1.6z"/>
		<path class="st0" d="M166.4,1.8L166.4,1.8C166.2,1.9,166.3,1.9,166.4,1.8z"/>
		<path class="st0" d="M173.9,1.4l-0.2,0.1C173.8,1.5,173.9,1.5,173.9,1.4z"/>
		<path class="st0" d="M158.1,2.1"/>
		<path class="st0" d="M173.3,1.5c0.1,0,0.2,0,0.3,0C173.5,1.5,173.4,1.5,173.3,1.5z"/>
		<path class="st0" d="M198.3,1.7L198.3,1.7z"/>
		<path class="st0" d="M198.4,1.7L198.4,1.7C198.5,1.7,198.4,1.6,198.4,1.7z"/>
		<path class="st0" d="M198.6,1.6h-0.2C198.5,1.6,198.6,1.7,198.6,1.6z"/>
		<path class="st0" d="M196.2,1.6L196.2,1.6C196.2,1.7,196.2,1.7,196.2,1.6z"/>
		<path class="st0" d="M195.6,1.6c0.1,0,0.4,0.2,0.6,0.1V1.7C196.1,1.8,195.7,1.5,195.6,1.6z"/>
		<path class="st0" d="M192.9,0.8l0.5,0c-0.1-0.1-0.2-0.2,0-0.2C192.9,0.4,193.6,0.8,192.9,0.8z"/>
		<path class="st0" d="M191.3,0.7c0.3,0,0-0.1,0-0.1C191.1,0.6,191.1,0.6,191.3,0.7z"/>
		<path class="st0" d="M179.4,0.7V0.5C179.2,0.5,179.4,0.5,179.4,0.7z"/>
		<polygon class="st0" points="177.1,1.6 177.3,1.7 177.4,1.5 		"/>
		<polygon class="st0" points="175.8,0.3 175.9,0.3 175.5,0.4 		"/>
		<path class="st0" d="M155.9,0.4l0.1,0.2C156,0.5,156.1,0.3,155.9,0.4z"/>
		<path class="st0" d="M147.2,0.6c-0.1-0.1-0.3-0.2-0.5-0.1C146.9,0.5,147.1,0.6,147.2,0.6z"/>
		<polygon class="st0" points="121.3,0.3 121.5,0.2 121.2,0.2 		"/>
	</g>
</g>
<g id="Layer_2-4">
	<g id="Layer_1-2-4">
		<path class="st0" d="M113.7,1.6c0.1-0.1,0-0.2-0.1-0.2l-0.1,0.2L113.7,1.6z"/>
		<path class="st0" d="M112.7,1.1c-0.3,0.1-0.4,0.3-0.3,0.5c0.2-0.2,0.2-0.1,0.4-0.4c0.2,0,0.3,0.1,0.3,0.2s0.2,0,0.3-0.1
			c-0.2-0.2-0.5-0.2-0.8,0C112.5,1.2,112.6,1.2,112.7,1.1z"/>
		<path class="st0" d="M96.5,0.8h0.1H96.5z"/>
		<path class="st0" d="M86.5,0.7c0.1,0,0.1,0,0.1,0S86.5,0.6,86.5,0.7z"/>
		<path class="st0" d="M84.8,0.4L84.8,0.4C84.9,0.4,84.9,0.4,84.8,0.4z"/>
		<path class="st0" d="M96.5,0.8l-0.3-0.1C96.2,0.8,96.4,0.8,96.5,0.8z"/>
		<path class="st0" d="M110.4,1.7c0.1,0,0.1,0,0.1-0.1L110.4,1.7L110.4,1.7z"/>
		<path class="st0" d="M100.9,0.6L100.9,0.6c0.1,0,0.1-0.1,0.2-0.1L100.9,0.6z"/>
		<path class="st0" d="M104.3,0.5c-0.1,0-0.1,0.2-0.1,0.3s0.1-0.1,0.2-0.1C104.3,0.6,104.3,0.6,104.3,0.5z"/>
		<path class="st0" d="M109.6,0.9L109.6,0.9z"/>
		<path class="st0" d="M98.5,0.5L98.5,0.5C98.5,0.5,98.5,0.5,98.5,0.5z"/>
		<path class="st0" d="M3.9,2L3.9,2C3.9,2,3.9,2,3.9,2z"/>
		<path class="st0" d="M0,1.1L0,1.1C0,1,0,1,0,1V1.1z"/>
		<path class="st0" d="M81.7,0.2L81.7,0.2C81.8,0.1,81.7,0.1,81.7,0.2z"/>
		<path class="st0" d="M53,0.3c0.3,0.2-0.5,0.2,0,0.4C52.9,0.6,53.4,0.4,53,0.3z"/>
		<path class="st0" d="M110.3,1.6"/>
		<path class="st0" d="M53,0.7"/>
		<path class="st0" d="M74.4,0.3L74.4,0.3C74.5,0.4,74.5,0.3,74.4,0.3z"/>
		<path class="st0" d="M79.9,0.5L79.9,0.5z"/>
		<path class="st0" d="M71.7,0.5c-0.1,0-0.1,0-0.2,0H71.7z"/>
		<path class="st0" d="M68.8,0.5L68.8,0.5L68.8,0.5L68.8,0.5z"/>
		<path class="st0" d="M12.8,1.9c-0.1,0-0.1-0.1-0.1-0.2C12.7,1.9,12.2,1.9,12.8,1.9z"/>
		<path class="st0" d="M110.4,1.6C110.4,1.6,110.4,1.6,110.4,1.6L110.4,1.6C110.4,1.7,110.4,1.6,110.4,1.6z"/>
		<path class="st0" d="M71.6,2.1L71.6,2.1z"/>
		<path class="st0" d="M33.5,1.9L33.5,1.9z"/>
		<path class="st0" d="M69.8,2.1C69.7,2.1,69.6,2,69.5,2L69.4,2L69.8,2.1z"/>
		<path class="st0" d="M12.6,1.7"/>
		<path class="st0" d="M9.6,2.2c0.4,0,0.2-0.3,0.3-0.4c0.5-0.1,0.2,0.2,0.4,0.3c0.3-0.1,0.6-0.3,0.8-0.3c0,0,0.1,0.1,0,0.1
			c0.4-0.2,1,0,1.4-0.3l0.1,0.1c-0.1-0.1-0.1-0.2-0.1-0.3c0.2,0,0.4-0.2,0.4,0c-0.1,0-0.1,0.1-0.2,0.1L13,1.4
			c0.2,0.2-0.3,0.1-0.3,0.3c0.4-0.1,0.8-0.2,1.1-0.2c0.1,0.2-0.7,0.1-0.3,0.3l-0.5-0.1c0.4,0.4-0.3,0,0,0.4c0.6,0.1,0.7-0.1,1.3-0.1
			c0.1-0.1,0-0.2,0.1-0.3c0.9-0.2,0.7,0.6,1.4,0.3c0.2-0.2,0.2-0.5,0.7-0.3l-0.2,0.3c0.6,0,0.3-0.4,1-0.2c-0.1,0.1-0.5,0.1-0.4,0.1
			c0.4,0.2,0.3-0.1,0.6-0.1l0.1,0.2c0.6,0,1.4-0.2,2.1-0.2c0,0.1-0.2,0.1,0,0.2c0.9-0.1,1.9,0,2.8,0.2l0.3-0.2C23,1.9,23,1.9,22.9,2
			l0,0c0.3,0.1,0-0.1,0.2-0.2s0.2,0,0.2,0.1c0,0,0,0.1-0.1,0.1c0.8-0.2,1.6-0.3,2.3-0.2l-0.1,0.1c0.5,0.1,0.5-0.4,1-0.2h-0.1
			c1,0,2,0,3,0.2c0.2-0.3,1.1,0.1,1.1-0.3c0.4,0.2,0.9,0.4,1.4,0.5c0.2,0,0.3-0.2,0.6-0.3v0.2l0.4-0.2L33.1,2h0.3
			c-0.1,0-0.2-0.1-0.2-0.2c0.4-0.1,0.7,0,1,0.3l1-0.2C35.2,2,35,2,34.9,2c0.5-0.2,0.1,0.2,0.6,0c-0.1,0,0-0.1,0-0.2
			C35.8,2,36.2,2,36.6,2l-0.1,0.1c0.7,0,1.5-0.1,2.3-0.1c-0.3-0.1-0.2-0.3,0-0.3L39,1.9c0.2-0.1-0.2-0.1,0.1-0.3
			c0.3,0,0.2,0.3,0,0.3l0.4-0.1c0,0.1-0.1,0.1-0.1,0.2c0.2-0.1,0.6,0.2,0.9,0v0C41,2.1,41.4,2,42.1,2c0-0.2,0.3-0.2,0.5-0.3
			c0.6,0.1,1.1,0.2,1.7,0.2c0.4-0.1,0.1-0.2,0.3-0.3c0,0.2,0.6,0.2,0.3,0.3c0.6,0,1.2-0.1,1.8-0.2c-0.1-0.1-0.2-0.1-0.2-0.2
			s0.3,0,0.3,0.1l0,0l0,0c1-0.3,2.3,0.5,3.1,0.1l0,0l0.8-0.2c0.4,0-0.2,0.1,0.1,0.2c0.9-0.3,1.4,0,2.1-0.2c0.6,0.5,2,0,2.8,0.3V2
			C56,1.8,56,2,56.2,2.1S56,1.9,56.1,1.9c1.7,0,3.5,0.1,5.2,0.3c0.6,0,0.4-0.6,1.2-0.3l-0.2,0.2c1.3-0.3,2.6,0,3.9-0.2
			C66,1.8,66,2,65.9,2c0.3,0.2,1,0,1-0.1c0.2,0,0,0.1,0.2,0.2c0.3,0.1,0.7-0.2,0.8,0c0,0-0.1,0-0.1,0.1c0.2-0.1,0.8,0,0.7-0.2
			c0.5,0.1,0.9-0.1,1.3,0c0.2-0.2,0.8,0.1,0.9-0.2c0,0.3,0.8,0.2,1.1,0.1c-0.1,0.1,0.3,0.1,0.1,0.2c0.3,0,0.6-0.1,0.6-0.2
			C73,2.2,73.6,1.5,74,2c0.9-0.2,1.9-0.3,2.8-0.3c0,0.3-1,0-1,0.3c0.7-0.2,1.5-0.3,2.2-0.3c0.2,0-0.1,0.1-0.2,0.2
			c0.9-0.1,1.7,0,2.4-0.1L80,1.8c0.2,0,0.3,0,0.3-0.1h-0.2c-0.2-0.2,0.6-0.4,0.6-0.5c-0.2,0.4,0.8,0.1,0.3,0.6
			c0.1,0,0.2-0.1,0.2-0.2c0.2,0,0.2,0.1,0,0.2c0.5-0.1,0.3-0.2,0.8-0.2c0,0.1-0.1,0.1-0.2,0.2c0.3-0.2,0.6-0.2,0.9-0.2
			c0,0,0,0.1-0.1,0.1c0.7,0,1.2-0.3,2-0.2c-0.2,0.3,0.3,0.1,0.3,0.3h0.3l-0.1-0.1c0.4,0,0.7-0.2,1-0.1l-0.3,0.1h0.7l-0.4-0.1
			c0.4-0.1,0-0.3,0.4-0.2c0.2,0,0.4,0.1,0.6,0.2l0,0c0.2-0.1,0.4-0.1,0.6-0.1c0.1,0.1,0,0.3,0,0.3c0.2-0.2,0.8-0.1,1.1-0.3
			C89,1.4,89,1.5,89,1.6l0.2-0.2c0.2,0,0.2,0.1,0.2,0.2c0.5,0-0.2-0.3,0.4-0.2c0,0,0,0-0.1,0.1c0.6,0.1,1.2-0.1,1.7,0
			c0.2,0.3-0.5,0.1-0.3,0.3c0.8-0.1,1.6-0.2,2.4-0.2h-0.1c0.1-0.4,0.6,0.2,1,0c-0.1,0-0.1,0.2-0.1,0.2c0.6,0,1.3-0.1,1.9-0.2
			l-0.1,0.1c0.4,0.1,0.8,0.1,1.2,0.1c0.1-0.1,0.3-0.1,0.2-0.2c1,0.5,2-0.3,2.9,0.2c-0.1,0-0.3,0.1-0.2,0.1l0.8-0.1
			c-0.1-0.2-0.1-0.1-0.3-0.2c0.2-0.1,0.3-0.2,0.5-0.2c-0.4,0.1,0,0.3,0.2,0.3V1.4c0.4,0.3,0.1-0.3,0.6-0.1v0.1
			c0.2-0.1,0.4-0.1,0.6-0.1c0.1,0.2-0.2,0.1-0.2,0.2c0.3,0,0.6-0.4,0.9-0.2c-0.1,0.1-0.3,0.1-0.5,0.1c0.2,0.1,0.4,0.2,0.6,0.2l0,0
			l0.5,0.1h-0.1c0.4-0.5,0.8-0.1,1.3-0.4c-0.5,0.3-0.1,0.2-0.1,0.4c0.1,0.1,0.3,0.1,0.3,0.2c0.3-0.2,0.4,0.1,0.8-0.1
			c0,0.1,0.3,0,0.2,0.2c0.3,0-0.1-0.1,0-0.2c0.5-0.2,1.2,0.3,1.9,0c0.6-0.1,0.7-0.4,1.3-0.5c0.2,0.1-0.2,0.2-0.2,0.2
			c0.3,0.1,0.6,0.1,0.9,0c-0.1,0.1,0,0.1,0.1,0.2s0.2-0.2,0.5-0.2c-0.1,0.1-0.1,0.2-0.2,0.3c0.3-0.1,0.6-0.2,0.9-0.2
			c0.1,0.1-0.2,0.2-0.3,0.2c0.3-0.1,0.9-0.1,1-0.3L112,1.4c0.1,0,0.1,0.2,0,0.2c-0.3,0.1-0.4-0.1-0.4-0.1h0.2
			c-0.2-0.4-0.8,0.1-1.3,0l0.2-0.3l-0.4,0.2c-0.1-0.1-0.2-0.2,0.1-0.3c-0.3-0.1-0.3,0.1-0.5,0c0,0,0,0,0,0l0,0l-0.3,0.1
			c0.1-0.1,0-0.2,0.1-0.2c-0.5-0.2-0.8,0.2-1,0l0,0c-0.7,0.1-0.1,0.2-0.6,0.5l-0.4-0.5l-0.1,0.2c-0.1,0-0.2,0-0.2-0.1
			c-0.3,0.1,0,0.1-0.1,0.2c-0.4-0.2-1,0.1-1.1-0.2c-0.1,0.2,0.4,0.1,0,0.2c-0.1-0.4-0.4,0.1-0.8-0.1c0.1-0.2,0.4-0.1,0.1-0.3
			c-0.2,0.3-0.7-0.1-0.9,0c0,0.3-0.6,0.1-1.1,0.2c-0.4-0.1-0.9-0.2-1.3-0.2V0.6c-0.1,0.3-0.5,0.2-0.9,0.3c0-0.1,0.1-0.2,0.2-0.3
			h-0.3c-0.1,0.1-0.2,0.1-0.4,0.1l0.1-0.2c-0.4,0.1-0.9,0.1-1.4,0.1c0,0.2,0.4,0.5-0.1,0.6c0-0.1,0-0.2,0.1-0.3c-0.1,0-0.2,0-0.3,0
			l0.2-0.2c-0.2-0.1-0.1,0.1-0.3,0.1c0-0.1-0.1-0.1-0.1-0.2s0.2,0.1,0.2,0c-0.3,0-0.6,0-0.8-0.2c0,0.1,0,0.2-0.2,0.2
			c-0.4,0-0.1-0.2-0.4-0.2c-0.1,0.1-0.4,0-0.4,0.2c-0.1,0-0.1-0.1-0.2-0.1c-0.2,0.1-1,0-0.8,0.2l0,0c-0.7,0.2-1.5-0.1-2.2,0l0,0
			c-0.4,0-0.8,0.1-1.2,0.2c-0.2,0-0.3-0.1-0.2-0.2c-0.3,0.1-0.5,0.1-0.8,0c0.3-0.1-0.1-0.1,0.3-0.1c-0.4-0.1-0.5-0.2-1,0
			c0.2-0.2-0.3-0.2-0.5-0.2l0.3,0.1c-0.2,0-0.4,0-0.6,0l0.1-0.2c-0.8-0.3-1.5,0.5-2.2,0c-0.2,0.2,0.5,0.1,0.2,0.3
			c-0.4,0-0.8-0.4-0.9-0.4c-0.5-0.1-0.5,0.3-1,0.2c0.1,0.1,0,0.3-0.2,0.4h-0.1c-0.4,0-0.5-0.3-0.2-0.4s0.1,0,0.1,0s0.3-0.1,0.1-0.1
			v0.1c-0.2-0.1-0.7-0.1-0.6-0.2c-0.3,0.1-0.1,0.1,0.1,0.2c-0.5-0.1-0.8,0-1.3-0.1c0.1,0,0.2,0.1,0.1,0.1c-0.8-0.1-0.3,0.2-0.8,0.2
			c-0.3-0.1,0.1-0.3-0.4-0.2c-0.3-0.1-0.1-0.2,0.1-0.3c-0.5,0.2-0.9-0.1-1.2-0.1l0.3,0c-0.1,0-0.3,0-0.4,0l0.1,0.2
			c-0.1,0-0.3,0-0.3-0.1c-0.1,0.1,0.1,0.3-0.2,0.4c-0.2-0.1-0.6,0.1-0.7-0.1c0.6,0.1-0.1-0.2,0.4-0.2c-0.1,0-0.2,0-0.4,0
			c0,0,0,0,0.1-0.1c-0.6-0.2-0.3,0.2-0.9,0.2c0.1-0.1-0.1-0.2-0.2-0.2c0.2,0,0.1,0.2-0.1,0.3C80,0.4,80,0.6,79.8,0.5l0.2,0
			c-0.1,0.1-0.3,0.1-0.5,0.1c0-0.1,0.2-0.1,0.2-0.1c-0.3,0.2-0.7-0.2-1.1-0.1c-0.2-0.1,0-0.2-0.2-0.3c-0.5,0.2-0.5-0.2-1,0
			c0.1,0.2,0.2,0.1-0.2,0.3L78,0.4l-0.5,0.2c0.2,0,0.5-0.1,0.7-0.1c-0.2,0.1-0.2,0.1-0.1,0.2c-0.3-0.2-0.7,0.1-1,0V0.4
			c-0.6-0.2-1,0.2-1.8,0.1l0.2,0.1c-0.1,0.2-0.5,0-0.7,0.1c0-0.1-0.1-0.2-0.2-0.3c0,0.1-0.5,0-0.6,0.3l-0.3-0.2
			c-0.6-0.1-0.7,0.4-1.3,0.3c0.2-0.1-0.1-0.2,0.3-0.4c-0.2,0-0.4,0-0.4,0.1c-0.1-0.1-0.5,0.2-0.7,0c-0.1,0.1-0.1,0.2-0.3,0.2
			c0,0,0,0,0-0.1c0,0.1-0.3,0.1-0.2,0.2c-0.6-0.4-1.7,0-2.2-0.3c-0.4,0-0.9,0.1-1.3,0.1c0,0,0-0.1,0.1,0c-0.5-0.1-0.3,0.4-0.9,0.2
			c-0.3-0.2,0.3-0.1,0.1-0.2c-0.1-0.4-0.7,0.1-1.1-0.2h0.1c-0.3-0.2-0.8,0.2-1.3,0.1c0,0,0,0,0-0.1c-0.5,0.2-1,0.3-1.5,0.4
			c0.2-0.2,0.2-0.1,0.1-0.3c-0.2,0,0.1,0.3-0.4,0.3c-0.1-0.1-0.5-0.2-0.5-0.4h0.4c-0.2-0.2-0.5,0-0.8,0V0.5c-0.6,0-0.6,0.3-1.3,0.3
			l0.1,0.1c-0.3,0.2-0.3-0.2-0.6,0l-0.1-0.2c-0.4,0.1-0.9,0.2-1.3,0.3c0.3-0.2,0.7-0.3,1.1-0.4c-0.2,0-0.8,0-1,0.1
			c0.1,0,0.2-0.1,0.3,0c-0.3,0.2-0.7,0.3-1.1,0.3c0.1-0.5-1.3-0.1-1.6-0.5c-0.9,0.1-1.8,0.1-2.7,0c0.3,0.4-0.3,0-0.2,0.4H53
			l-0.7-0.2c-0.2-0.1,0.2-0.1,0.2-0.2c-0.6,0-0.2-0.2-0.6-0.3c0.1,0.1-0.2,0.2-0.5,0.2l0.4,0.2c-0.7,0.2-0.6-0.4-1.3-0.1l0.2-0.1
			c-0.4,0.1-1.4,0-1.7,0.3c-0.1,0-0.2-0.2,0-0.2c-0.9-0.1-2,0.4-2.6,0.1l0.1-0.1c-0.2,0-0.3,0.2-0.5,0.1c0,0,0.1-0.1,0-0.1
			s-0.4,0.2-0.7,0.1l0.2-0.1c-0.9-0.1-1.3,0.3-2,0.4c0-0.3-0.7-0.4-1-0.4V0.1c-0.9,0-1.7,0.2-2.6,0.4c-0.6-0.4-2-0.1-2.9-0.3
			c0.1,0,0,0.2-0.2,0.3s-0.6,0.2-0.6-0.1h0.1c-0.2-0.3-0.6-0.2-1-0.2v0.4c-0.9-0.6-2.4,0.2-2.9-0.3c-0.2,0.1-0.5,0.1-0.7,0.2V0.2
			c-0.6,0-1.1,0-1.7,0l0.2-0.1c-0.4,0-0.5,0.5-0.9,0.5l-0.1-0.3c-0.7-0.1-1.5-0.1-2.2,0c0,0,0-0.1,0.1-0.1c-0.3,0-1.4-0.2-1.2,0.2
			c0-0.3-0.8,0-1.2,0.1V0.4c-0.2,0.2-0.5,0.4-0.8,0.4c-0.1,0-0.1-0.1,0-0.1c-0.4-0.1-0.3,0.2-0.7,0.1l0.2-0.1c-0.2,0-0.4,0-0.6,0.2
			c-0.3,0.1-0.6,0-0.8-0.2c-0.1,0.2-0.3,0.2-0.5,0.2c0,0,0-0.1,0.1-0.1c-0.6-0.1-1,0.2-1.4,0c0,0,0,0-0.1-0.1c0.3,0,0.6,0,0.9,0
			c0-0.2-0.4-0.2-0.1-0.5c-0.4,0.1-0.9,0.5-1.3,0.3c0,0,0,0-0.1-0.1l0,0c-0.1,0-0.2,0-0.3,0c-0.1,0-0.2,0-0.3,0
			c0-0.1-0.5-0.1-0.7-0.1c0,0.2-0.2,0.2,0,0.3c0,0,0,0,0.2,0h0.6c-0.2,0.1-0.4,0.2-0.6,0.1L18.4,1c-0.3-0.3-0.9-0.4-0.9-0.6
			c-0.6,0.1-1.5,0.1-1.9,0.4c-0.2,0-0.2-0.1-0.3-0.1c0.1,0,0.2,0,0.3-0.1c-0.4,0.1-1.1,0-1.1,0.3c-0.5-0.1,0.2-0.2-0.4-0.2l0.1-0.1
			c-1.2-0.4-2,0.6-3.3,0.1c0.1,0,0.1,0,0.1,0.1C9.5,0.5,7.9,1,6.4,0.6C5.9,0.5,5.9,0.7,5.6,0.8L5.5,0.6L5.1,0.8C4.5,1,4,0.3,3.2,0.7
			l0.1,0.1C3,0.8,2.4,0.9,2.4,0.7c0,0-0.1,0.1-0.2,0.1V0.7L1.5,0.9C1,0.8,1.6,0.4,0.8,0.4C0.5,0.4-0.1,0.7,0,0.8S0.3,0.9,0.4,1H0.1
			C0,1.3-0.2,1.6,0.5,1.9L1,1.7l0.1,0.2H0.7c0.2,0.2,0.4,0,0.5-0.1c0,0.1,0.1,0.1,0.2,0.2l0.4-0.2C1.9,1.8,1.7,1.9,2,2
			c0.2-0.1-0.2-0.3,0.2-0.4c0.2,0.2,0.2,0.3,0.4,0.1c0,0.1,0,0.1-0.1,0.2c0.2-0.1,0.6,0,0.7-0.2C3.4,1.9,4,1.7,3.9,2
			c0.2-0.1,0.4-0.2,0.6-0.2c-0.4,0.4,0.8,0,0.7,0.4c0.3-0.3,1-0.1,1.6-0.3c0,0-0.1,0.1-0.1,0.1c0.2,0,0.4,0.1,0.6,0.2
			c0-0.3,0.5-0.3,0.7-0.5c0.4,0.3-0.2,0.3-0.1,0.5c0-0.2,0.6-0.2,0.5-0.4C8.6,1.9,8.6,1.8,8.7,2C8.7,1.7,9,2,9.2,1.8
			C9.6,1.9,9.3,2.1,9.7,2C10,2.1,9.6,2.2,9.6,2.2z M20.7,1.6h-0.4c0-0.1,0-0.1,0.1-0.1C20.5,1.5,20.6,1.6,20.7,1.6L20.7,1.6z
			 M18.9,0.3c0.1,0,0.2,0,0.2,0L18.9,0.3L18.9,0.3z"/>
		<path class="st0" d="M18.6,0.5L18.6,0.5L18.6,0.5L18.6,0.5L18.6,0.5z"/>
		<path class="st0" d="M96.6,0.8L96.6,0.8L96.6,0.8z"/>
		<polygon class="st0" points="32.6,2 32.6,1.9 32.5,2 		"/>
		<path class="st0" d="M101.4,1.5C101.4,1.5,101.4,1.5,101.4,1.5L101.4,1.5z"/>
		<path class="st0" d="M103.4,1.5l0.3,0.1L103.4,1.5z"/>
		<path class="st0" d="M105,1.6L105,1.6L105,1.6L105,1.6z"/>
		<path class="st0" d="M80,1.8L80,1.8C79.8,1.9,79.9,1.9,80,1.8z"/>
		<path class="st0" d="M87.4,1.4l-0.2,0.1C87.3,1.5,87.4,1.5,87.4,1.4z"/>
		<path class="st0" d="M71.6,2.1"/>
		<path class="st0" d="M86.8,1.5c0.1,0,0.2,0,0.3,0C87,1.5,86.9,1.5,86.8,1.5z"/>
		<path class="st0" d="M111.8,1.7L111.8,1.7z"/>
		<path class="st0" d="M111.9,1.7L111.9,1.7C112,1.7,111.9,1.6,111.9,1.7z"/>
		<path class="st0" d="M112.2,1.6H112C112,1.6,112.1,1.7,112.2,1.6z"/>
		<path class="st0" d="M109.7,1.6L109.7,1.6C109.7,1.7,109.7,1.7,109.7,1.6z"/>
		<path class="st0" d="M109.1,1.6c0.2,0,0.4,0.2,0.6,0.1V1.7C109.6,1.8,109.2,1.5,109.1,1.6z"/>
		<path class="st0" d="M106.4,0.8l0.5,0c-0.1-0.1-0.2-0.2,0-0.2C106.3,0.4,107.1,0.8,106.4,0.8z"/>
		<path class="st0" d="M104.8,0.7c0.3,0,0-0.1,0-0.1C104.6,0.6,104.6,0.6,104.8,0.7z"/>
		<path class="st0" d="M92.9,0.7V0.5C92.7,0.5,92.9,0.5,92.9,0.7z"/>
		<polygon class="st0" points="90.6,1.6 90.8,1.7 90.9,1.5 		"/>
		<polygon class="st0" points="89.3,0.3 89.4,0.3 89,0.4 		"/>
		<path class="st0" d="M69.3,0.4l0.1,0.2C69.5,0.5,69.6,0.3,69.3,0.4z"/>
		<path class="st0" d="M60.7,0.6c-0.1-0.1-0.3-0.2-0.5-0.1C60.4,0.5,60.6,0.6,60.7,0.6z"/>
		<polygon class="st0" points="34.8,0.3 35,0.2 34.7,0.2 		"/>
	</g>
</g>
</svg>
