<svg id="Layer_1" data-name="Layer 1" xmlns="http://www.w3.org/2000/svg" viewBox="0 0 352.12 2.19"><g id="Layer_2" data-name="Layer 2"><g id="Layer_1-2" data-name="Layer 1-2"><path d="M352.23,2.22c.06,0,0-.1-.14-.08l-.12.13Z" transform="translate(-0.13 -0.88)" style="fill:#058797"/><path d="M351.16,2c-.27.07-.38.17-.29.27.19-.11.23-.06.44-.2s.28,0,.26.08.25,0,.35,0a1.28,1.28,0,0,0-.78,0C351,2.06,351.1,2,351.16,2Z" transform="translate(-0.13 -0.88)" style="fill:#058797"/><path d="M335,1.82h0Z" transform="translate(-0.13 -0.88)" style="fill:#058797"/><path d="M325,1.75c.08,0,.11,0,.11,0A.22.22,0,0,0,325,1.75Z" transform="translate(-0.13 -0.88)" style="fill:#058797"/><path d="M323.3,1.62h.1A.33.33,0,0,0,323.3,1.62Z" transform="translate(-0.13 -0.88)" style="fill:#058797"/><path d="M335,1.82l-.26,0S334.87,1.81,335,1.82Z" transform="translate(-0.13 -0.88)" style="fill:#058797"/><path d="M348.9,2.29l.14,0h-.14Z" transform="translate(-0.13 -0.88)" style="fill:#058797"/><path d="M339.39,1.72h.08a.13.13,0,0,0,.07-.05Z" transform="translate(-0.13 -0.88)" style="fill:#058797"/><path d="M342.77,1.69c-.07,0-.1.1-.13.14s.1-.06.17-.07A.09.09,0,0,0,342.77,1.69Z" transform="translate(-0.13 -0.88)" style="fill:#058797"/><path d="M348.14,1.88h0Z" transform="translate(-0.13 -0.88)" style="fill:#058797"/><path d="M337,1.69v0A0,0,0,0,0,337,1.69Z" transform="translate(-0.13 -0.88)" style="fill:#058797"/><path d="M242.45,2.46v0S242.43,2.46,242.45,2.46Z" transform="translate(-0.13 -0.88)" style="fill:#058797"/><path d="M238.51,2h.05a.06.06,0,0,0,0-.06Z" transform="translate(-0.13 -0.88)" style="fill:#058797"/><path d="M320.17,1.49Z" transform="translate(-0.13 -0.88)" style="fill:#058797"/><path d="M291.52,1.57c.32.09-.52.11,0,.21C291.44,1.74,291.92,1.62,291.52,1.57Z" transform="translate(-0.13 -0.88)" style="fill:#058797"/><path d="M348.81,2.27Z" transform="translate(-0.13 -0.88)" style="fill:#058797"/><path d="M291.48,1.78Z" transform="translate(-0.13 -0.88)" style="fill:#058797"/><path d="M312.94,1.55l.07.05S313,1.56,312.94,1.55Z" transform="translate(-0.13 -0.88)" style="fill:#058797"/><path d="M318.34,1.69h-.13A.29.29,0,0,0,318.34,1.69Z" transform="translate(-0.13 -0.88)" style="fill:#058797"/><path d="M310.21,1.69a.74.74,0,0,0-.21,0h.21Z" transform="translate(-0.13 -0.88)" style="fill:#058797"/><path d="M307.31,1.69s0,0,0,0h.09Z" transform="translate(-0.13 -0.88)" style="fill:#058797"/><path d="M251.25,2.41a.48.48,0,0,1-.13-.09C251.16,2.39,250.73,2.42,251.25,2.41Z" transform="translate(-0.13 -0.88)" style="fill:#058797"/><path d="M348.89,2.23s0,0-.08,0h.09S348.91,2.25,348.89,2.23Z" transform="translate(-0.13 -0.88)" style="fill:#058797"/><path d="M310.08,2.49h0Z" transform="translate(-0.13 -0.88)" style="fill:#058797"/><path d="M272,2.39h0Z" transform="translate(-0.13 -0.88)" style="fill:#058797"/><path d="M308.25,2.49a.85.85,0,0,0-.25-.07l-.06,0Z" transform="translate(-0.13 -0.88)" style="fill:#058797"/><path d="M251.12,2.32Z" transform="translate(-0.13 -0.88)" style="fill:#058797"/><path d="M248.08,2.55c.44,0,.21-.13.3-.2.52,0,.24.09.42.16s.58-.16.82-.15c0,0,.07,0,0,.06.35-.11,1,0,1.43-.14l.06,0q-.11-.09-.06-.18c.19,0,.36-.08.43,0a.24.24,0,0,0-.18.06l.2,0c.18.13-.28.05-.28.14a6.53,6.53,0,0,1,1.17-.11c.07.12-.71,0-.31.15l-.49,0c.36.19-.29,0,0,.19.62,0,.69-.06,1.32,0,.14-.06,0-.09.1-.16.88-.12.69.31,1.34.14a.81.81,0,0,1,.71-.15l-.16.14c.6,0,.34-.2,1-.11a2.48,2.48,0,0,1-.39.06c.41.11.29-.08.61-.08l.07.13c.64,0,1.35-.11,2.07-.13,0,0-.16.07,0,.11a18.37,18.37,0,0,1,2.79.09l.34-.11c.08,0,.11,0,.07.06h0c.33,0,0-.07.18-.11s.18,0,.19.05,0,0-.06,0a9.42,9.42,0,0,1,2.33-.08l-.12,0c.49,0,.55-.22,1-.12l-.09,0a23.17,23.17,0,0,1,3,.1c.16-.15,1.06.07,1.13-.14a8,8,0,0,0,1.29.21c.23,0,.34-.13.62-.15v.11l.38-.12.21.13.27,0c-.1,0-.16-.05-.15-.08a2.18,2.18,0,0,1,1,.13l1-.09s-.19.06-.32.08c.53-.11.09.12.58,0-.06,0,0-.06,0-.08a5,5,0,0,0,1.17,0l-.07.07c.73,0,1.53,0,2.35,0-.29,0-.22-.17,0-.18l.09.11c.16-.07-.25,0,.07-.13s.2.14,0,.17l.37,0s-.07.05-.09.1c.15-.07.64.12.86,0v0c.82,0,1.19,0,1.86,0,0-.1.27-.08.47-.16a15.58,15.58,0,0,0,1.71.1c.41,0,.12-.08.3-.14,0,.09.62.08.31.15.61,0,1.22,0,1.8-.09-.1,0-.21-.06-.15-.09s.31,0,.34.07h0c1-.14,2.32.27,3.12.08h-.05l.83-.1c.38,0-.23.07.06.13.89-.16,1.4,0,2.14-.08.57.27,2,0,2.79.15V2.43c.2-.06.25,0,.4.06,0-.05-.23-.06-.09-.1,1.68-.07,3.47.1,5.19.15.63,0,.36-.33,1.15-.17l-.22.12c1.27-.15,2.61,0,3.85-.12-.08,0-.08.06-.2.06a2,2,0,0,0,1-.06c.19,0,0,.06.16.1.27,0,.66-.12.8,0l-.12,0c.17,0,.81,0,.65-.09.46,0,.89-.05,1.26,0,.24-.11.8.05.88-.1,0,.16.82.13,1.11.05-.1,0,.27,0,.15.12.34,0,.64,0,.58-.12.62.2,1.26-.15,1.61.1.92-.08,1.87-.14,2.82-.18,0,.16-1,0-1,.18a16.3,16.3,0,0,1,2.2-.17c.21,0-.13.07-.2.1.86-.07,1.65,0,2.41-.07l-.16,0c.15,0,.35,0,.34-.05l-.16,0c-.24-.1.6-.22.63-.28-.25.21.75,0,.35.32.13,0,.21-.06.19-.1.15,0,.2,0,0,.1.53,0,.34-.12.84-.12,0,0-.1,0-.15.09a2.54,2.54,0,0,1,.9-.11s0,0-.1,0c.7,0,1.2-.18,2-.12-.23.16.26.06.3.19h.3l-.13-.06a9.22,9.22,0,0,1,1-.06l-.28.06.68,0-.38-.05c.36-.07,0-.17.44-.13a2.43,2.43,0,0,1,.56.08h0a1.73,1.73,0,0,1,.63-.06c.07,0,0,.15,0,.18s.85,0,1.09-.15q-.11.06-.06.12l.15-.1c.17,0,.19.05.17.1.5,0-.16-.17.44-.09,0,0,0,0-.13,0,.61,0,1.18-.06,1.73,0,.17.13-.48,0-.29.14.79-.07,1.6-.11,2.42-.13h-.14c.1-.19.57.1,1,0-.09,0-.12.1-.1.08a14.63,14.63,0,0,0,1.9-.1l-.1.05c.38,0,.77,0,1.16,0,.1-.05.29,0,.17-.11,1,.29,2-.15,2.92.08-.11,0-.26,0-.17,0l.78,0c-.06-.08-.1,0-.26-.11a1.21,1.21,0,0,1,.52-.09c-.36.05,0,.13.16.18V2.11c.41.15.07-.17.63-.07v0a3.2,3.2,0,0,1,.63-.07c.09.1-.22,0-.24.12.32,0,.64-.18.93-.08-.14,0-.33,0-.48,0a1.61,1.61,0,0,0,.59.1h0l.54,0-.14,0c.4-.25.81,0,1.35-.21-.53.16-.08.09-.12.2.14,0,.34.06.28.09.26-.08.43.07.78-.06,0,0,.27,0,.22.1.34,0-.08-.06,0-.11.51-.12,1.2.15,1.94,0s.74-.18,1.32-.24c.2,0-.16.12-.16.12a2.54,2.54,0,0,0,.87,0c-.06,0,0,.06.09.1s.16-.13.48-.08a.83.83,0,0,1-.24.15c.28,0,.56-.1.86-.13.07.06-.18.09-.29.13a3.93,3.93,0,0,0,1-.15l-.21,0c.12,0,.06.08,0,.1-.28.08-.42,0-.43-.07l.22,0c-.23-.2-.85,0-1.27,0l.17-.15-.43.13c-.09,0-.15-.13.06-.15-.3-.07-.27.06-.54,0,0,0,0,0,0,0h0l-.29,0c.06,0,0-.1.13-.08-.53-.09-.85.11-1,0h0c-.74,0-.07.11-.63.23l-.37-.27-.07.11c-.07,0-.22,0-.2,0-.28.07,0,0-.11.12-.37-.1-1,0-1.1-.13-.13.08.36.06,0,.12-.11-.19-.45,0-.78-.05.1-.1.42-.05.09-.14-.2.17-.65,0-.94,0,0,.14-.61.06-1.08.1,0,0-.9-.07-1.33-.12v0c-.09.13-.54.11-.87.14,0-.06.08-.12.25-.15h-.32a1,1,0,0,1-.37.08l.08-.1a9.56,9.56,0,0,1-1.36.05c0,.09.43.26-.14.32,0,0,0-.14.11-.16a.91.91,0,0,1-.28,0l.23-.08c-.24,0-.13.07-.32.06,0-.07-.14,0-.12-.11a.66.66,0,0,0,.25,0,2,2,0,0,1-.8-.11s0,.1-.16.11c-.41,0-.14-.09-.38-.13s-.37,0-.38.11-.14-.05-.19-.08c-.21.05-1,0-.75.13h0c-.71.1-1.46-.06-2.16,0h0a10,10,0,0,0-1.23.1c-.17,0-.27-.06-.24-.11a2.4,2.4,0,0,1-.81,0c.31-.06-.11-.06.32-.05a2.7,2.7,0,0,0-.94,0c.15-.09-.31-.11-.51-.09l.29.07c-.2,0-.41,0-.61,0l.11-.12c-.85-.14-1.52.25-2.17,0-.22.08.46.06.25.15a7.12,7.12,0,0,1-.91-.18c-.52-.07-.49.17-1,.13.13.06,0,.15-.2.18h-.08c-.39,0-.47-.18-.23-.21s.14,0,.13,0,.29,0,.14-.09v0c-.19,0-.72,0-.6-.11-.29,0-.12.07.09.09-.49-.06-.78,0-1.29,0,.08,0,.15.07.07.07-.75-.05-.33.08-.84.1-.28-.07.11-.16-.41-.1-.31-.05-.07-.12.07-.15a3.88,3.88,0,0,1-1.15-.07h.19a2.61,2.61,0,0,1-.4,0l.14.09c-.14,0-.26,0-.26-.06s.12.15-.18.22-.59.05-.66-.06c.62,0-.06-.12.45-.14a1.15,1.15,0,0,1-.37,0s0,0,.06,0c-.57-.11-.26.12-.86.12.08-.06-.14-.12-.24-.11.24,0,.12.11-.1.16a2.54,2.54,0,0,0-.63,0l.23,0c-.08.07-.27.06-.54.08,0-.05.24,0,.15-.06-.3.11-.67-.11-1.1,0-.19,0,0-.12-.18-.15-.47.09-.51-.08-1,0,.14.09.16.07-.18.15l.8-.06-.51.13c.24,0,.51-.06.65,0-.24.07-.22.05-.1.12-.33-.13-.66.07-1,0V1.6c-.59-.1-1,.11-1.78.06l.24,0c-.1.09-.47,0-.71.05,0-.07-.13-.1-.24-.14s-.54,0-.61.13l-.35-.09c-.62,0-.7.2-1.28.18.17-.08-.09-.13.3-.18-.2,0-.37,0-.37,0s-.54.1-.73,0-.11.11-.32.1a0,0,0,0,1,0,0s-.34,0-.15.12c-.6-.22-1.68,0-2.2-.17L306,1.77s0,0,.08,0c-.53-.07-.33.2-.93.13-.32-.11.32-.06.13-.1-.08-.24-.74,0-1.14-.11h.09a11,11,0,0,0-1.27.07s0,0,0,0a7.07,7.07,0,0,1-1.49.2c.15-.1.22,0,.13-.14s.06.14-.39.17c-.14,0-.45-.09-.49-.19h.41c-.21-.13-.53,0-.75,0V1.65c-.63,0-.64.16-1.33.15l.07.05c-.29.13-.29-.1-.64,0l-.11-.14c-.41.07-.85.12-1.3.16a8.36,8.36,0,0,1,1.09-.22,3.37,3.37,0,0,0-1,.08,1.62,1.62,0,0,1,.31,0,3.2,3.2,0,0,1-1.17.16c.09-.29-1.26-.07-1.61-.29-.86.11-1.7,0-2.71,0,.35.21-.29,0-.23.22h-.34l-.67-.13c-.16-.06.23,0,.21-.09-.56,0-.21-.1-.6-.16.07.08-.17.12-.46.09l.4.1c-.7.12-.61-.19-1.33-.07l.23-.07a7.66,7.66,0,0,0-1.72.17c-.07,0-.16-.08,0-.1-.88,0-2,.19-2.64.08l.06-.05c-.16,0-.28.1-.49.05,0,0,.07-.06,0-.06a3.36,3.36,0,0,1-.7.06l.19-.06a10.9,10.9,0,0,0-2,.19c0-.16-.67-.21-1-.24v0c-.9,0-1.78.09-2.61.19-.6-.17-1.95-.07-2.87-.17.14,0,0,.13-.19.14s-.6.11-.56,0h.07c-.16-.14-.6-.11-1-.11v.19c-.92-.29-2.4.1-2.89-.15-.22.05-.49.05-.7.1v-.1a15.5,15.5,0,0,0-1.67,0l.16-.09c-.44,0-.55.29-.94.29l-.07-.14a12.66,12.66,0,0,0-2.22,0s0-.07.15-.07c-.34,0-1.35-.1-1.22.1,0-.13-.76,0-1.16,0l0-.1a1.86,1.86,0,0,1-.82.2c-.11,0-.1-.08.05-.05-.37-.05-.29.09-.74,0l.17-.07a1.13,1.13,0,0,0-.57.1,1.38,1.38,0,0,1-.78-.11.76.76,0,0,1-.48.1s0-.05.09-.07c-.65-.07-1,.12-1.39,0a.19.19,0,0,0-.08,0c.31,0,.62,0,.92,0,0-.09-.41-.11-.09-.23a4.73,4.73,0,0,1-1.32.17l-.06,0h0a1.22,1.22,0,0,0-.27,0l-.27,0c0-.08-.46,0-.67-.05,0,.1-.25.09,0,.17,0,0,0,0,.18,0h.59a.94.94,0,0,1-.56,0l-.28.16c-.26-.15-.85-.23-.92-.32a7.51,7.51,0,0,0-1.87.23c-.18,0-.2-.05-.27-.08a1.43,1.43,0,0,0,.28-.05c-.35.05-1,0-1.13.16-.46-.06.25-.13-.37-.1l.08,0c-1.2-.21-2,.34-3.3.07.09,0,.14,0,.15,0-1.53-.11-3.15.11-4.66-.08a1.49,1.49,0,0,0-.74.11L244,1.72l-.45.13c-.64.09-1.1-.27-1.91-.1l.1.08c-.28,0-.91,0-.86,0a.22.22,0,0,1-.2,0V1.77l-.72.09c-.55,0,.08-.22-.72-.23-.3,0-.86.16-.74.2s.3,0,.32.09l-.28,0c-.07.17-.26.34.42.46l.46-.1.15.08h-.39a.81.81,0,0,0,.52,0,.33.33,0,0,0,.19.09l.46-.16c.06.06-.2.13.1.16s-.2-.14.16-.19.16.14.42.07c0,0,0,.07-.12.09.23-.05.61,0,.73-.11.23.09.79,0,.77.13a2.66,2.66,0,0,1,.62-.13c-.39.19.8,0,.7.22a7.62,7.62,0,0,1,1.56-.17.31.31,0,0,1-.13,0,2.86,2.86,0,0,1,.56.1c0-.14.49-.17.73-.26.35.13-.21.16-.1.29,0-.12.61-.12.49-.21.27.08.23,0,.37.16.05-.18.26,0,.48-.14.39.09.1.16.53.11C248.46,2.5,248.08,2.55,248.08,2.55Zm10.24-.28Zm.86,0h-.37s0-.08.09-.07A.71.71,0,0,1,259.18,2.27Zm-1.82-.72c.14,0,.18,0,.2,0h-.24Z" transform="translate(-0.13 -0.88)" style="fill:#058797"/><path d="M257.12,1.69h-.06l.08,0,.05,0Z" transform="translate(-0.13 -0.88)" style="fill:#058797"/><path d="M335.12,1.83h0v0Z" transform="translate(-0.13 -0.88)" style="fill:#058797"/><polygon points="270.93 1.57 270.93 1.54 270.86 1.56 270.93 1.57" style="fill:#058797"/><path d="M339.86,2.18l.06,0Z" transform="translate(-0.13 -0.88)" style="fill:#058797"/><path d="M341.9,2.2l.29,0Z" transform="translate(-0.13 -0.88)" style="fill:#058797"/><path d="M343.48,2.27v0h0Z" transform="translate(-0.13 -0.88)" style="fill:#058797"/><path d="M318.45,2.37h-.06C318.25,2.4,318.34,2.39,318.45,2.37Z" transform="translate(-0.13 -0.88)" style="fill:#058797"/><path d="M325.9,2.14l-.25,0C325.8,2.19,325.9,2.19,325.9,2.14Z" transform="translate(-0.13 -0.88)" style="fill:#058797"/><path d="M310.14,2.49" transform="translate(-0.13 -0.88)" style="fill:#058797"/><path d="M325.31,2.18a1,1,0,0,0,.34,0A1.93,1.93,0,0,0,325.31,2.18Z" transform="translate(-0.13 -0.88)" style="fill:#058797"/><path d="M350.3,2.3h0Z" transform="translate(-0.13 -0.88)" style="fill:#058797"/><path d="M350.39,2.29l.08,0S350.4,2.27,350.39,2.29Z" transform="translate(-0.13 -0.88)" style="fill:#058797"/><path d="M350.65,2.27l-.18,0A1.41,1.41,0,0,1,350.65,2.27Z" transform="translate(-0.13 -0.88)" style="fill:#058797"/><path d="M348.21,2.27v0A0,0,0,0,0,348.21,2.27Z" transform="translate(-0.13 -0.88)" style="fill:#058797"/><path d="M347.58,2.27a4.65,4.65,0,0,0,.59,0v0S347.72,2.2,347.58,2.27Z" transform="translate(-0.13 -0.88)" style="fill:#058797"/><path d="M344.93,1.81l.54,0c-.09,0-.21-.09,0-.1C344.82,1.62,345.63,1.83,344.93,1.81Z" transform="translate(-0.13 -0.88)" style="fill:#058797"/><path d="M343.3,1.75c.28,0,0-.05,0-.07C343.11,1.71,343.11,1.72,343.3,1.75Z" transform="translate(-0.13 -0.88)" style="fill:#058797"/><path d="M331.41,1.75V1.66C331.22,1.69,331.43,1.69,331.41,1.75Z" transform="translate(-0.13 -0.88)" style="fill:#058797"/><polygon points="329 1.35 329.21 1.41 329.31 1.32 329 1.35" style="fill:#058797"/><polygon points="327.65 0.69 327.75 0.68 327.38 0.72 327.65 0.69" style="fill:#058797"/><path d="M307.82,1.61l.09.11C308,1.69,308.06,1.57,307.82,1.61Z" transform="translate(-0.13 -0.88)" style="fill:#058797"/><path d="M299.2,1.72a.7.7,0,0,0-.48,0C298.91,1.69,299.1,1.74,299.2,1.72Z" transform="translate(-0.13 -0.88)" style="fill:#058797"/><polygon points="273.21 0.66 273.39 0.62 273.06 0.65 273.21 0.66" style="fill:#058797"/></g></g><g id="Layer_2-2" data-name="Layer 2"><g id="Layer_1-2-2" data-name="Layer 1-2"><path d="M255.41,2.44c.05-.06,0-.19-.14-.16l-.11.24Z" transform="translate(-0.13 -0.88)" style="fill:#058797"/><path d="M254.4,2c-.25.13-.36.33-.28.51.18-.22.22-.12.42-.38.15,0,.27.07.25.15s.24.05.32-.09a.61.61,0,0,0-.73,0C254.28,2.12,254.34,2.06,254.4,2Z" transform="translate(-0.13 -0.88)" style="fill:#058797"/><path d="M239.12,1.67l.11,0Z" transform="translate(-0.13 -0.88)" style="fill:#058797"/><path d="M229.7,1.55c.07,0,.1,0,.1-.05S229.7,1.53,229.7,1.55Z" transform="translate(-0.13 -0.88)" style="fill:#058797"/><path d="M228.08,1.3h.1S228.1,1.28,228.08,1.3Z" transform="translate(-0.13 -0.88)" style="fill:#058797"/><path d="M239.12,1.67l-.25-.07C238.86,1.67,239,1.65,239.12,1.67Z" transform="translate(-0.13 -0.88)" style="fill:#058797"/><path d="M252.26,2.57a.26.26,0,0,0,.13-.06h-.13Z" transform="translate(-0.13 -0.88)" style="fill:#058797"/><path d="M243.28,1.49h.08a.36.36,0,0,0,.07-.1Z" transform="translate(-0.13 -0.88)" style="fill:#058797"/><path d="M246.48,1.43c-.07,0-.1.18-.13.26s.1-.11.16-.13A.31.31,0,0,0,246.48,1.43Z" transform="translate(-0.13 -0.88)" style="fill:#058797"/><path d="M251.55,1.79h0Z" transform="translate(-0.13 -0.88)" style="fill:#058797"/><path d="M241,1.43a.08.08,0,0,0,0-.07A.09.09,0,0,0,241,1.43Z" transform="translate(-0.13 -0.88)" style="fill:#058797"/><path d="M151.71,2.89v0S151.69,2.89,151.71,2.89Z" transform="translate(-0.13 -0.88)" style="fill:#058797"/><path d="M148,1.94h0a.21.21,0,0,0,0-.11Z" transform="translate(-0.13 -0.88)" style="fill:#058797"/><path d="M225.13,1.05h0C225.22,1,225.18,1,225.13,1.05Z" transform="translate(-0.13 -0.88)" style="fill:#058797"/><path d="M198.06,1.19c.3.17-.49.22,0,.41C198,1.53,198.44,1.3,198.06,1.19Z" transform="translate(-0.13 -0.88)" style="fill:#058797"/><path d="M252.18,2.52Z" transform="translate(-0.13 -0.88)" style="fill:#058797"/><path d="M198,1.6Z" transform="translate(-0.13 -0.88)" style="fill:#058797"/><path d="M218.3,1.16l.06.09A.12.12,0,0,0,218.3,1.16Z" transform="translate(-0.13 -0.88)" style="fill:#058797"/><path d="M223.4,1.43h0Z" transform="translate(-0.13 -0.88)" style="fill:#058797"/><path d="M215.71,1.43c-.07,0-.09-.05-.19,0h.19Z" transform="translate(-0.13 -0.88)" style="fill:#058797"/><path d="M213,1.43s0,0,0,0h.08Z" transform="translate(-0.13 -0.88)" style="fill:#058797"/><path d="M160,2.79a.83.83,0,0,1-.12-.16C159.93,2.76,159.54,2.81,160,2.79Z" transform="translate(-0.13 -0.88)" style="fill:#058797"/><path d="M252.25,2.46s0,.07-.07.08h.08S252.28,2.49,252.25,2.46Z" transform="translate(-0.13 -0.88)" style="fill:#058797"/><path d="M215.6,3h0Z" transform="translate(-0.13 -0.88)" style="fill:#058797"/><path d="M179.65,2.77h0Z" transform="translate(-0.13 -0.88)" style="fill:#058797"/><path d="M213.87,3a.6.6,0,0,0-.24-.13s0,0,0,.05Z" transform="translate(-0.13 -0.88)" style="fill:#058797"/><path d="M159.9,2.62Z" transform="translate(-0.13 -0.88)" style="fill:#058797"/><path d="M157,3.07c.42,0,.2-.25.28-.4.5-.07.23.19.4.32.31-.07.54-.3.77-.29,0,0,.07.06,0,.11.33-.2,1,0,1.35-.26l.06.06a.54.54,0,0,1-.06-.35c.18,0,.34-.15.41,0-.11,0-.12.06-.17.12l.19-.07c.17.23-.27.08-.27.26a3.3,3.3,0,0,1,1.11-.21c.07.23-.67.07-.29.28l-.47-.07c.35.37-.27,0,0,.37.59.06.66-.12,1.25-.06.13-.12,0-.18.09-.31.84-.23.66.58,1.27.27.17-.15.23-.45.67-.29l-.15.26c.57,0,.32-.38.95-.2-.12.1-.46.09-.37.11.39.21.27-.14.58-.14l0,.23c.61,0,1.29-.21,2-.24,0,.06-.15.14,0,.21a8.93,8.93,0,0,1,2.64.16l.31-.2c.08,0,.11.07.08.12h0c.32.08,0-.12.17-.21s.18,0,.19.09,0,.07-.06.09a4.17,4.17,0,0,1,2.2-.15l-.11.06c.46.08.52-.41.95-.22l-.09,0a11.3,11.3,0,0,1,2.85.21c.15-.29,1,.12,1.06-.28a4.21,4.21,0,0,0,1.22.41c.22,0,.32-.25.59-.3v.22l.36-.23.2.25.25,0c-.09,0-.14-.09-.14-.15a1.17,1.17,0,0,1,.95.25l1-.18c0,.09-.17.12-.29.17.49-.22.09.22.54,0-.06,0,0-.12,0-.16a2.19,2.19,0,0,0,1.11.07l-.06.15c.68,0,1.44-.07,2.21-.07-.28-.07-.21-.32,0-.34l.09.22c.15-.14-.24-.09.06-.26.29,0,.19.26,0,.33l.35-.07c0,.06-.06.09-.08.18.14-.14.61.23.82,0V3c.77,0,1.12-.08,1.74-.09,0-.19.26-.15.45-.31a8.55,8.55,0,0,0,1.62.21c.38-.1.11-.17.28-.28,0,.18.59.16.29.29a11.93,11.93,0,0,0,1.71-.18c-.1-.07-.2-.11-.15-.17s.3,0,.32.13v0h0c1-.26,2.18.51,2.94.14h0l.78-.18c.36,0-.21.13.06.24.85-.3,1.33,0,2-.16.54.52,1.9,0,2.64.29V2.84c.19-.12.23.08.37.1s-.2-.11-.08-.17a31.19,31.19,0,0,1,4.9.28c.6,0,.34-.63,1.09-.34l-.2.23c1.19-.27,2.46,0,3.63-.22-.07,0-.07.12-.19.12.25.16,1,0,1-.13.18,0,0,.12.16.19s.62-.21.76,0a.42.42,0,0,1-.12.06c.16-.08.76,0,.61-.17.44.09.85-.08,1.2,0,.23-.21.75.1.82-.2,0,.31.78.25,1.06.11-.1.09.25.09.13.23.32,0,.61-.06.55-.23.59.37,1.19-.29,1.52.18.87-.16,1.77-.27,2.67-.35,0,.31-.95,0-.95.35a7.9,7.9,0,0,1,2.08-.32c.2.05-.12.14-.19.19.81-.13,1.56,0,2.28-.14a.89.89,0,0,1-.15.09c.14,0,.32,0,.31-.1l-.14,0c-.23-.2.56-.43.59-.55-.24.41.71.11.33.62.13,0,.2-.11.18-.19.15,0,.19.08.05.19.5-.08.32-.23.79-.23,0,.07-.1.1-.14.18a1.21,1.21,0,0,1,.85-.21s0,.1-.09.09c.66,0,1.13-.35,1.9-.22-.22.29.24.1.28.35l.29,0-.13-.12c.35,0,.65-.18.95-.1l-.26.1.64,0-.36-.1c.34-.13,0-.32.42-.25a1.18,1.18,0,0,1,.52.15h0a.84.84,0,0,1,.6-.1c.07.08,0,.28,0,.34.17-.22.81-.06,1-.29a.21.21,0,0,0-.06.21l.14-.17c.17,0,.18.08.17.19.47,0-.16-.33.41-.18,0,0,0,0-.12.06.58.07,1.11-.11,1.63,0,.17.26-.45.07-.27.28a18.87,18.87,0,0,1,2.29-.25h-.14c.1-.36.55.18.95,0-.08,0-.11.2-.09.16a7.58,7.58,0,0,0,1.8-.2l-.1.09a10,10,0,0,0,1.1.09c.1-.1.28-.08.16-.22.95.55,1.9-.28,2.76.16-.11,0-.25.08-.16.08l.74-.08c-.06-.16-.1-.1-.25-.22a.8.8,0,0,1,.49-.17c-.34.11,0,.26.15.35V2.23c.39.27.06-.32.6-.14v.09a2,2,0,0,1,.6-.13c.08.19-.21.09-.23.24.3,0,.6-.35.87-.17-.13.06-.31.06-.45.11a.86.86,0,0,0,.56.19h0l.51.09-.13,0c.38-.48.77-.09,1.27-.4-.5.29-.08.17-.12.37.14.06.33.12.27.18.25-.17.41.14.74-.11,0,.07.26,0,.21.17.31,0-.08-.11,0-.2.48-.22,1.13.28,1.83,0,.58-.13.7-.36,1.25-.47.19.11-.15.24-.15.24a1.25,1.25,0,0,0,.81,0c0,.06,0,.11.09.19s.15-.25.46-.15a.83.83,0,0,1-.23.27c.26-.06.53-.18.81-.24.07.11-.17.17-.27.25.31-.06.82-.11.95-.29l-.2-.07c.11,0,.06.16,0,.19-.27.14-.39-.06-.4-.13l.2,0c-.21-.39-.8.06-1.2,0l.16-.28-.4.23c-.09-.07-.15-.23.05-.28-.28-.13-.25.11-.5,0,0,0,0,0,0-.05h0l-.28.09c.06-.06,0-.21.13-.17-.51-.16-.81.22-.95,0h0c-.7.1-.07.21-.59.46l-.35-.52-.07.21c-.07,0-.21,0-.19-.11-.27.14,0,.09-.1.23-.36-.19-.95.09-1-.25-.12.16.33.12,0,.24-.1-.36-.43.06-.74-.1.09-.19.4-.09.08-.26-.19.32-.61-.07-.88,0,0,.26-.58.11-1,.19a7.31,7.31,0,0,0-1.26-.22V1.5c-.08.26-.51.21-.83.26,0-.11.08-.22.24-.28h-.29a.52.52,0,0,1-.35.15l.07-.19a4.36,4.36,0,0,1-1.29.1c0,.18.41.49-.12.6,0-.09,0-.25.09-.29a.47.47,0,0,1-.25,0l.21-.16c-.22-.07-.12.13-.3.12,0-.14-.13-.1-.11-.21s.16.06.23,0a1.13,1.13,0,0,1-.76-.21c0,.07,0,.18-.15.2-.39,0-.13-.16-.36-.24-.09.1-.34,0-.35.2-.12,0-.13-.09-.18-.15-.2.09-1,0-.71.24h0c-.67.21-1.38-.11-2.05,0v0a5.3,5.3,0,0,0-1.16.19c-.15,0-.25-.11-.22-.21a1,1,0,0,1-.76,0c.29-.11-.11-.1.3-.08-.39-.06-.48-.17-.89,0,.14-.18-.3-.22-.49-.17l.28.12a2.72,2.72,0,0,1-.57,0l.09-.23c-.8-.27-1.43.48-2,0-.21.16.43.11.24.3-.36,0-.74-.36-.87-.36-.49-.12-.46.34-1,.25.12.13,0,.29-.19.35l-.07,0c-.37,0-.45-.34-.22-.41s.13,0,.12.05.28-.06.13-.15v.08c-.18-.08-.68-.07-.57-.2-.27.07-.11.13.09.17a12.09,12.09,0,0,0-1.22-.08c.08,0,.15.13.07.13-.71-.09-.31.16-.8.2-.26-.13.11-.3-.38-.2-.29-.08-.06-.21.06-.28-.45.16-.83-.1-1.08-.13l.18,0a1.58,1.58,0,0,1-.38,0l.13.16c-.13,0-.25,0-.25-.1-.13.11.12.27-.17.42-.18-.09-.55.08-.62-.13.58.07-.05-.22.43-.25a.69.69,0,0,1-.35,0s0,0,.06-.06c-.54-.19-.25.25-.82.25.08-.13-.13-.24-.23-.21.23,0,.12.2-.09.29-.37-.09-.4.07-.59.06l.22.05c-.08.12-.26.1-.52.14,0-.09.23-.06.15-.1-.29.21-.64-.22-1-.08-.18-.08,0-.23-.17-.29-.45.16-.48-.16-.95,0,.13.16.15.12-.17.28l.76-.11-.49.23c.23,0,.49-.1.62-.07-.23.13-.21.09-.09.22-.32-.24-.63.15-.95,0V1.25c-.55-.18-1,.21-1.68.11l.22.07c-.09.16-.43,0-.66.08,0-.13-.13-.18-.23-.26,0,.1-.51,0-.58.26l-.33-.18c-.58-.07-.66.39-1.21.34.16-.14-.08-.24.29-.35-.19,0-.35,0-.35.07-.12-.08-.52.18-.69.05-.07.06-.1.21-.3.19a0,0,0,0,1,0-.06c0,.06-.33.09-.15.23-.57-.42-1.58,0-2.08-.32-.41,0-.83.08-1.25.09,0,0,0-.06.08-.05-.51-.13-.32.39-.89.25-.29-.22.31-.12.13-.2-.08-.44-.7.06-1.08-.2h.09c-.3-.16-.71.16-1.2.13a.08.08,0,0,0,0-.07,3.85,3.85,0,0,1-1.41.37c.14-.18.2-.09.12-.27-.21,0,.06.29-.36.33-.14-.09-.43-.18-.47-.36h.39c-.2-.25-.5,0-.71,0V1.36c-.6,0-.61.3-1.25.28l.06.08c-.27.25-.27-.18-.61,0l-.1-.27a9.21,9.21,0,0,1-1.23.31,4,4,0,0,1,1-.42c-.24,0-.79,0-.9.15.08,0,.21-.09.29-.05a1.72,1.72,0,0,1-1.11.31c.09-.55-1.19-.13-1.52-.55a13.08,13.08,0,0,1-2.56-.05c.34.41-.27,0-.21.43H198l-.62-.24c-.16-.13.2-.1.19-.19-.53,0-.19-.18-.56-.29.06.15-.17.21-.44.16l.38.19c-.67.22-.58-.35-1.26-.13l.21-.13c-.34.07-1.28,0-1.62.33-.06-.05-.14-.16,0-.19-.83-.06-1.84.36-2.49.15l.06-.1c-.16,0-.27.19-.47.09,0-.05.07-.11,0-.11s-.41.18-.65.12l.18-.12c-.82-.13-1.25.28-1.9.35,0-.3-.64-.4-.95-.45V1a13.25,13.25,0,0,0-2.47.37c-.57-.33-1.84-.13-2.71-.32.13.05,0,.23-.17.26s-.57.22-.54-.06h.07c-.15-.27-.57-.2-.95-.21V1.4c-.86-.55-2.26.2-2.73-.27-.2.08-.46.08-.66.18v-.2a10.42,10.42,0,0,0-1.58,0l.15-.16c-.4,0-.51.55-.88.55l-.07-.27a5.93,5.93,0,0,0-2.1,0s0-.13.15-.14c-.33,0-1.28-.19-1.15.21,0-.26-.72,0-1.1.08l0-.18a1.14,1.14,0,0,1-.77.38c-.1,0-.09-.15,0-.1-.35-.1-.27.18-.7.08l.16-.13c-.36,0-.33.05-.53.19a.73.73,0,0,1-.74-.22.44.44,0,0,1-.46.19.11.11,0,0,1,.09-.12c-.61-.13-.91.22-1.31,0a.19.19,0,0,0-.08-.07,6.31,6.31,0,0,1,.87,0c0-.18-.39-.21-.08-.45-.34.13-.87.45-1.26.34l0-.06h0a.53.53,0,0,0-.25,0,1.09,1.09,0,0,0-.26-.05c0-.14-.43-.08-.63-.08,0,.19-.24.16,0,.32,0,0,0,0,.17,0h.56a.48.48,0,0,1-.53.07l-.27.31c-.25-.3-.8-.44-.86-.61-.6.11-1.4.07-1.77.43-.17.05-.19-.1-.26-.15.1,0,.22,0,.27-.09-.33.1-1,0-1.07.29-.43-.11.23-.23-.35-.19l.08-.06c-1.14-.41-1.9.64-3.13.12.09,0,.14.05.15.09-1.45-.21-3,.2-4.4-.16-.41-.07-.46.09-.71.21l-.08-.2-.42.23c-.61.18-1-.5-1.8-.17l.09.13c-.27,0-.86.09-.82-.07,0,0-.08.15-.19.07V1.57l-.67.19c-.52-.08.07-.43-.69-.45-.28,0-.8.31-.69.38s.28.09.3.18l-.26,0c-.07.32-.25.65.39.87l.44-.19.14.15h-.37c.21.15.34,0,.49-.07a.3.3,0,0,0,.18.17l.44-.3c.06.12-.19.24.09.31.21-.14-.19-.28.15-.37.21.15.15.26.4.14,0,.07,0,.14-.12.17.22-.1.58,0,.7-.21.21.18.74,0,.72.25a1.46,1.46,0,0,1,.59-.25c-.37.36.76,0,.66.41.28-.32.95-.14,1.47-.32,0,0-.08.08-.12.06a1.54,1.54,0,0,1,.52.19c0-.27.47-.33.7-.5.33.26-.2.32-.1.55,0-.21.58-.21.47-.39.25.16.22.07.35.3.05-.34.24-.06.45-.26.37.16.09.31.5.2C157.39,3,157,3.07,157,3.07Zm9.67-.55Zm.82,0h-.36c0-.06,0-.14.09-.13A.65.65,0,0,1,167.52,2.52ZM165.8,1.16c.13,0,.17,0,.19.05h-.23Z" transform="translate(-0.13 -0.88)" style="fill:#058797"/><path d="M165.57,1.43h-.06l.08,0,0,0Z" transform="translate(-0.13 -0.88)" style="fill:#058797"/><path d="M239.25,1.7h0v0Z" transform="translate(-0.13 -0.88)" style="fill:#058797"/><polygon points="178.6 1.99 178.6 1.94 178.53 1.98 178.6 1.99" style="fill:#058797"/><path d="M243.72,2.36a.1.1,0,0,0,.06.05Z" transform="translate(-0.13 -0.88)" style="fill:#058797"/><path d="M245.65,2.4l.27.07Z" transform="translate(-0.13 -0.88)" style="fill:#058797"/><path d="M247.14,2.52V2.44h0Z" transform="translate(-0.13 -0.88)" style="fill:#058797"/><path d="M223.5,2.72h-.05C223.31,2.77,223.4,2.76,223.5,2.72Z" transform="translate(-0.13 -0.88)" style="fill:#058797"/><path d="M230.53,2.28l-.22.09C230.44,2.38,230.53,2.38,230.53,2.28Z" transform="translate(-0.13 -0.88)" style="fill:#058797"/><path d="M215.65,3" transform="translate(-0.13 -0.88)" style="fill:#058797"/><path d="M230,2.36a.47.47,0,0,0,.33,0A.92.92,0,0,0,230,2.36Z" transform="translate(-0.13 -0.88)" style="fill:#058797"/><path d="M253.58,2.59h0Z" transform="translate(-0.13 -0.88)" style="fill:#058797"/><path d="M253.67,2.57l.07,0S253.68,2.52,253.67,2.57Z" transform="translate(-0.13 -0.88)" style="fill:#058797"/><path d="M253.91,2.52l-.17,0C253.8,2.52,253.88,2.55,253.91,2.52Z" transform="translate(-0.13 -0.88)" style="fill:#058797"/><path d="M251.62,2.52v0Z" transform="translate(-0.13 -0.88)" style="fill:#058797"/><path d="M251,2.52c.14,0,.36.15.56.11V2.57C251.55,2.67,251.15,2.4,251,2.52Z" transform="translate(-0.13 -0.88)" style="fill:#058797"/><path d="M248.52,1.66l.5.05c-.08-.08-.2-.17,0-.19C248.41,1.3,249.17,1.68,248.52,1.66Z" transform="translate(-0.13 -0.88)" style="fill:#058797"/><path d="M247,1.55c.27,0,0-.11,0-.15C246.8,1.47,246.8,1.48,247,1.55Z" transform="translate(-0.13 -0.88)" style="fill:#058797"/><path d="M235.74,1.55V1.37C235.56,1.43,235.76,1.43,235.74,1.55Z" transform="translate(-0.13 -0.88)" style="fill:#058797"/><polygon points="233.46 1.57 233.66 1.68 233.75 1.52 233.46 1.57" style="fill:#058797"/><polygon points="232.19 0.32 232.28 0.3 231.93 0.37 232.19 0.32" style="fill:#058797"/><path d="M213.46,1.27l.09.21C213.66,1.43,213.69,1.2,213.46,1.27Z" transform="translate(-0.13 -0.88)" style="fill:#058797"/><path d="M205.32,1.49a.35.35,0,0,0-.46-.06C205,1.43,205.22,1.51,205.32,1.49Z" transform="translate(-0.13 -0.88)" style="fill:#058797"/><polygon points="180.76 0.26 180.93 0.19 180.62 0.25 180.76 0.26" style="fill:#058797"/></g></g><g id="Layer_2-3" data-name="Layer 2"><g id="Layer_1-2-3" data-name="Layer 1-2"><path d="M200.35,2.44c.06-.06,0-.19-.14-.16l-.12.24Z" transform="translate(-0.13 -0.88)" style="fill:#058797"/><path d="M199.29,2c-.27.13-.38.33-.29.51.19-.22.23-.12.44-.38.16,0,.28.07.26.15s.25.05.34-.09a.67.67,0,0,0-.77,0C199.17,2.12,199.23,2.06,199.29,2Z" transform="translate(-0.13 -0.88)" style="fill:#058797"/><path d="M183.12,1.67l.11,0Z" transform="translate(-0.13 -0.88)" style="fill:#058797"/><path d="M173.14,1.55c.08,0,.11,0,.11-.05S173.14,1.53,173.14,1.55Z" transform="translate(-0.13 -0.88)" style="fill:#058797"/><path d="M171.43,1.3h.1S171.45,1.28,171.43,1.3Z" transform="translate(-0.13 -0.88)" style="fill:#058797"/><path d="M183.12,1.67l-.27-.07C182.83,1.67,183,1.65,183.12,1.67Z" transform="translate(-0.13 -0.88)" style="fill:#058797"/><path d="M197,2.57a.35.35,0,0,0,.14-.06H197Z" transform="translate(-0.13 -0.88)" style="fill:#058797"/><path d="M187.52,1.49h.08a.36.36,0,0,0,.07-.1Z" transform="translate(-0.13 -0.88)" style="fill:#058797"/><path d="M190.9,1.43c-.07,0-.1.18-.13.26s.1-.11.17-.13A.33.33,0,0,0,190.9,1.43Z" transform="translate(-0.13 -0.88)" style="fill:#058797"/><path d="M196.27,1.79h0Z" transform="translate(-0.13 -0.88)" style="fill:#058797"/><path d="M185.11,1.43V1.36A.09.09,0,0,0,185.11,1.43Z" transform="translate(-0.13 -0.88)" style="fill:#058797"/><path d="M90.57,2.89v0S90.55,2.89,90.57,2.89Z" transform="translate(-0.13 -0.88)" style="fill:#058797"/><path d="M86.64,1.94h0a.21.21,0,0,0,0-.11Z" transform="translate(-0.13 -0.88)" style="fill:#058797"/><path d="M168.3,1.05h0C168.4,1,168.35,1,168.3,1.05Z" transform="translate(-0.13 -0.88)" style="fill:#058797"/><path d="M139.65,1.19c.32.17-.53.22,0,.41C139.56,1.53,140.05,1.3,139.65,1.19Z" transform="translate(-0.13 -0.88)" style="fill:#058797"/><path d="M196.93,2.52Z" transform="translate(-0.13 -0.88)" style="fill:#058797"/><path d="M139.61,1.6Z" transform="translate(-0.13 -0.88)" style="fill:#058797"/><path d="M161.07,1.16l.07.09A.18.18,0,0,0,161.07,1.16Z" transform="translate(-0.13 -0.88)" style="fill:#058797"/><path d="M166.47,1.43h0Z" transform="translate(-0.13 -0.88)" style="fill:#058797"/><path d="M158.33,1.43c-.08,0-.1-.05-.2,0h.2Z" transform="translate(-0.13 -0.88)" style="fill:#058797"/><path d="M155.44,1.43s0,0,0,0h.09Z" transform="translate(-0.13 -0.88)" style="fill:#058797"/><path d="M99.37,2.79a.91.91,0,0,1-.13-.16C99.28,2.76,98.86,2.81,99.37,2.79Z" transform="translate(-0.13 -0.88)" style="fill:#058797"/><path d="M197,2.46s0,.07-.09.08h.1A.08.08,0,0,0,197,2.46Z" transform="translate(-0.13 -0.88)" style="fill:#058797"/><path d="M158.21,3h0Z" transform="translate(-0.13 -0.88)" style="fill:#058797"/><path d="M120.15,2.77h0Z" transform="translate(-0.13 -0.88)" style="fill:#058797"/><path d="M156.38,3a.58.58,0,0,0-.25-.13l-.06.05Z" transform="translate(-0.13 -0.88)" style="fill:#058797"/><path d="M99.24,2.62Z" transform="translate(-0.13 -0.88)" style="fill:#058797"/><path d="M96.21,3.07c.44,0,.21-.25.3-.4.52-.07.24.19.42.32.32-.07.57-.3.81-.29,0,0,.08.06,0,.11.36-.2,1,0,1.43-.26a.17.17,0,0,1,.06.06.54.54,0,0,1-.06-.35c.19,0,.36-.15.44,0-.13,0-.14.06-.19.12l.21-.07c.18.23-.29.08-.29.26a3.73,3.73,0,0,1,1.18-.21c.07.23-.71.07-.31.28l-.49-.07c.36.37-.3,0,0,.37.62.06.69-.12,1.31-.06.14-.12,0-.18.1-.31.89-.23.7.58,1.35.27.17-.15.24-.45.71-.29l-.16.26c.6,0,.34-.38,1-.2-.12.1-.48.09-.39.11.41.21.29-.14.61-.14l.06.23c.65,0,1.36-.21,2.07-.24,0,.06-.16.14,0,.21a10,10,0,0,1,2.8.16l.33-.2c.08,0,.12.07.08.12h0c.33.08,0-.12.18-.21s.19,0,.2.09,0,.07-.07.09a4.72,4.72,0,0,1,2.34-.15l-.12.06c.49.08.55-.41,1-.22l-.09,0a12.66,12.66,0,0,1,3,.21c.16-.29,1.06.12,1.13-.28a4.58,4.58,0,0,0,1.28.41c.24,0,.35-.25.63-.3v.22l.38-.23.21.25.26,0c-.09,0-.15-.09-.14-.15a1.33,1.33,0,0,1,1,.25l1-.18c0,.09-.18.12-.31.17.52-.22.09.22.57,0-.06,0,0-.12,0-.16a2.47,2.47,0,0,0,1.18.07l-.07.15c.73,0,1.53-.07,2.34-.07-.29-.07-.22-.32,0-.34l.09.22c.17-.14-.25-.09.08-.26.3,0,.2.26,0,.33l.37-.07c0,.06-.07.09-.09.18.15-.14.64.23.86,0V3c.82,0,1.19-.08,1.85-.09,0-.19.27-.15.48-.31a9.41,9.41,0,0,0,1.71.21c.41-.1.12-.17.3-.28,0,.18.62.16.31.29a13.22,13.22,0,0,0,1.8-.18c-.1-.07-.21-.11-.15-.17s.31,0,.34.13v0h0c1-.26,2.31.51,3.12.14h-.05l.82-.18c.38,0-.22.13.06.24.9-.3,1.41,0,2.15-.16.57.52,2,0,2.79.29V2.84c.2-.12.24.08.39.1,0-.09-.22-.11-.09-.17a35,35,0,0,1,5.19.28c.64,0,.36-.63,1.16-.34l-.22.23c1.27-.27,2.6,0,3.85-.22-.08,0-.08.12-.2.12.26.16,1,0,1-.13.2,0,.06.12.17.19.27.1.66-.21.8,0a.42.42,0,0,1-.12.06c.17-.08.8,0,.64-.17.47.09.9-.08,1.27,0,.24-.21.8.1.88-.2,0,.31.82.25,1.11.11-.1.09.26.09.14.23.34,0,.65-.06.59-.23.62.37,1.25-.29,1.61.18.92-.16,1.86-.27,2.82-.35,0,.31-1,0-1,.35a8.73,8.73,0,0,1,2.2-.32c.21.05-.13.14-.2.19.85-.13,1.65,0,2.41-.14l-.16.09c.15,0,.34,0,.33-.1l-.15,0c-.24-.2.59-.43.63-.55-.26.41.75.11.35.62.13,0,.2-.11.19-.19.15,0,.2.08.05.19.53-.08.34-.23.83-.23,0,.07-.1.1-.15.18a1.36,1.36,0,0,1,.91-.21s0,.1-.1.09c.7,0,1.19-.35,2-.22-.23.29.26.1.3.35l.3,0L172,2.52c.36,0,.69-.18,1-.1l-.28.1.68,0-.38-.1c.36-.13,0-.32.44-.25a1.32,1.32,0,0,1,.55.15h0a1,1,0,0,1,.64-.1c.07.08,0,.28,0,.34.18-.22.85-.06,1.08-.29a.21.21,0,0,0-.06.21l.15-.17c.17,0,.19.08.17.19.51,0-.16-.33.45-.18,0,0,0,0-.13.06.61.07,1.17-.11,1.73,0,.17.26-.49.07-.3.28a21.5,21.5,0,0,1,2.43-.25H180c.1-.36.57.18,1,0-.09,0-.12.2-.1.16a8.39,8.39,0,0,0,1.9-.2l-.1.09a11.52,11.52,0,0,0,1.17.09c.1-.1.29-.08.17-.22,1,.55,2-.28,2.92.16-.11,0-.26.08-.17.08l.78-.08c-.06-.16-.1-.1-.26-.22a.84.84,0,0,1,.51-.17c-.35.11,0,.26.16.35V2.23c.42.27.07-.32.64-.14v.09a2.21,2.21,0,0,1,.63-.13c.09.19-.22.09-.24.24.32,0,.63-.35.92-.17-.14.06-.33.06-.47.11a.92.92,0,0,0,.59.19h0l.54.09-.14,0c.4-.48.81-.09,1.35-.4-.53.29-.09.17-.13.37.15.06.35.12.29.18.26-.17.43.14.78-.11,0,.07.27,0,.22.17.33,0-.08-.11,0-.2.5-.22,1.2.28,1.93,0,.63-.13.75-.36,1.33-.47.2.11-.16.24-.16.24a1.4,1.4,0,0,0,.86,0c-.06.06,0,.11.1.19s.16-.25.48-.15a1,1,0,0,1-.24.27c.28-.06.56-.18.86-.24.07.11-.18.17-.29.25.33-.06.86-.11,1-.29l-.22-.07c.13,0,.06.16,0,.19-.28.14-.41-.06-.42-.13l.21,0c-.22-.39-.84.06-1.26,0l.17-.28-.44.23c-.09-.07-.15-.23.06-.28-.3-.13-.27.11-.53,0,0,0,0,0,0-.05h0l-.29.09c.06-.06,0-.21.13-.17-.53-.16-.85.22-1,0h0c-.74.1-.08.21-.63.46l-.37-.52-.07.21c-.07,0-.22,0-.2-.11-.28.14,0,.09-.11.23-.37-.19-1,.09-1.1-.25-.13.16.35.12,0,.24-.11-.36-.45.06-.78-.1.1-.19.42-.09.09-.26-.2.32-.66-.07-.94,0,0,.26-.61.11-1.08.19a8.17,8.17,0,0,0-1.33-.22V1.5c-.09.26-.55.21-.88.26,0-.11.09-.22.25-.28h-.31a.55.55,0,0,1-.37.15l.08-.19a4.87,4.87,0,0,1-1.37.1c0,.18.44.49-.13.6,0-.09,0-.25.1-.29a.53.53,0,0,1-.27,0l.23-.16c-.24-.07-.13.13-.32.12,0-.14-.14-.1-.12-.21s.17.06.25,0a1.21,1.21,0,0,1-.8-.21c0,.07,0,.18-.16.2-.42,0-.15-.16-.39-.24-.1.1-.36,0-.37.2-.12,0-.14-.09-.19-.15-.21.09-1,0-.75.24h0c-.71.21-1.46-.11-2.17,0v0a5.79,5.79,0,0,0-1.22.19c-.17,0-.27-.11-.24-.21a1.17,1.17,0,0,1-.81,0c.31-.11-.11-.1.32-.08-.41-.06-.5-.17-.94,0,.15-.18-.31-.22-.52-.17l.3.12a3.11,3.11,0,0,1-.61,0l.1-.23c-.84-.27-1.52.48-2.16,0-.22.16.45.11.25.3-.38,0-.78-.36-.91-.36-.53-.12-.5.34-1,.25.12.13,0,.29-.2.35l-.08,0c-.39,0-.47-.34-.23-.41s.14,0,.13.05.29-.06.14-.15v.08c-.19-.08-.72-.07-.6-.2-.3.07-.12.13.09.17-.5-.12-.78,0-1.29-.08.08,0,.15.13.07.13-.76-.09-.33.16-.85.2-.28-.13.12-.3-.4-.2-.31-.08-.07-.21.06-.28-.47.16-.87-.1-1.14-.13l.19,0a1.84,1.84,0,0,1-.41,0l.15.16c-.15,0-.27,0-.27-.1-.14.11.12.27-.18.42-.19-.09-.58.08-.65-.13.61.07-.06-.22.45-.25a.77.77,0,0,1-.37,0s0,0,.06-.06c-.57-.19-.26.25-.86.25.08-.13-.15-.24-.25-.21.25,0,.12.2-.1.29-.39-.09-.42.07-.62.06l.23.05c-.08.12-.27.1-.54.14,0-.09.24-.06.15-.1-.3.21-.68-.22-1.1-.08-.19-.08,0-.23-.18-.29-.47.16-.51-.16-1,0,.14.16.16.12-.19.28l.81-.11-.51.23c.24,0,.51-.1.65-.07-.24.13-.22.09-.1.22-.33-.24-.66.15-1,0V1.25c-.58-.18-1,.21-1.78.11l.24.07c-.1.16-.46,0-.7.08,0-.13-.13-.18-.24-.26,0,.1-.54,0-.61.26l-.36-.18c-.61-.07-.69.39-1.27.34.17-.14-.09-.24.3-.35-.2,0-.37,0-.37.07-.12-.08-.55.18-.73.05-.08.06-.11.21-.32.19a0,0,0,0,1,0-.06c0,.06-.34.09-.15.23-.6-.42-1.68,0-2.2-.32-.44,0-.89.08-1.33.09,0,0,0-.06.08-.05-.53-.13-.33.39-.94.25-.31-.22.33-.12.13-.2-.08-.44-.73.06-1.13-.2h.09c-.31-.16-.76.16-1.27.13a.08.08,0,0,0,0-.07,4.24,4.24,0,0,1-1.5.37c.15-.18.22-.09.13-.27-.22,0,.06.29-.38.33-.14-.09-.45-.18-.49-.36h.41c-.21-.25-.53,0-.75,0V1.36c-.64,0-.65.3-1.33.28l.07.08c-.29.25-.29-.18-.64,0l-.12-.27a9.74,9.74,0,0,1-1.29.31,4.19,4.19,0,0,1,1.08-.42c-.25,0-.83,0-.95.15.09,0,.22-.09.31-.05a1.92,1.92,0,0,1-1.18.31c.09-.55-1.25-.13-1.61-.55a14.54,14.54,0,0,1-2.7-.05c.35.41-.29,0-.23.43h-.34l-.67-.24c-.16-.13.22-.1.2-.19-.55,0-.2-.18-.59-.29.07.15-.17.21-.46.16l.4.19c-.71.22-.61-.35-1.33-.13l.22-.13C137,1,136,1,135.66,1.3c-.06-.05-.15-.16,0-.19-.87-.06-1.95.36-2.63.15l.06-.1c-.16,0-.28.19-.5.09,0-.05.08-.11,0-.11s-.43.18-.69.12l.19-.12c-.86-.13-1.32.28-2,.35,0-.3-.67-.4-1-.45V1a14.67,14.67,0,0,0-2.6.37c-.6-.33-2-.13-2.88-.32.14.05,0,.23-.18.26s-.6.22-.56-.06h.07c-.16-.27-.6-.2-1-.21V1.4c-.91-.55-2.39.2-2.88-.27-.22.08-.5.08-.71.18v-.2a11.64,11.64,0,0,0-1.67,0l.16-.16c-.43,0-.54.55-.93.55l-.07-.27a6.62,6.62,0,0,0-2.22,0s0-.13.15-.14c-.35,0-1.35-.19-1.22.21,0-.26-.76,0-1.17.08l0-.18a1.24,1.24,0,0,1-.81.38c-.11,0-.1-.15.05-.1-.37-.1-.29.18-.75.08l.18-.13a.66.66,0,0,0-.57.19.79.79,0,0,1-.78-.22.48.48,0,0,1-.49.19c0-.05,0-.1.1-.12-.65-.13-1,.22-1.39,0a.19.19,0,0,0-.08-.07,7.06,7.06,0,0,1,.92,0c0-.18-.41-.21-.09-.45-.36.13-.91.45-1.33.34l-.06-.06h0a.57.57,0,0,0-.26,0,1.08,1.08,0,0,0-.27-.05c0-.14-.46-.08-.67-.08,0,.19-.25.16,0,.32,0,0,0,0,.18,0h.59a.53.53,0,0,1-.56.07l-.28.31c-.27-.3-.85-.44-.92-.61-.63.11-1.48.07-1.87.43-.18.05-.2-.1-.27-.15.1,0,.23,0,.28-.09-.35.1-1.06,0-1.14.29-.45-.11.26-.23-.36-.19l.08-.06c-1.2-.41-2,.64-3.31.12.09,0,.14.05.15.09-1.52-.21-3.14.2-4.65-.16-.44-.07-.49.09-.75.21l-.09-.2-.44.23c-.64.18-1.11-.5-1.91-.17l.1.13c-.28,0-.92.09-.87-.07,0,0-.09.15-.2.07V1.57l-.71.19c-.55-.08.08-.43-.72-.45-.31,0-.86.31-.74.38s.3.09.31.18l-.27,0c-.07.32-.26.65.41.87l.47-.19.15.15h-.4c.23.15.37,0,.53-.07a.3.3,0,0,0,.19.17l.46-.3c.06.12-.2.24.1.31.22-.14-.2-.28.15-.37.22.15.16.26.43.14,0,.07,0,.14-.13.17.24-.1.62,0,.74-.21.23.18.78,0,.76.25a1.73,1.73,0,0,1,.63-.25c-.4.36.8,0,.7.41.29-.32,1-.14,1.56-.32,0,0-.09.08-.13.06a1.74,1.74,0,0,1,.55.19c0-.27.5-.33.74-.5.35.26-.21.32-.1.55,0-.21.61-.21.49-.39.27.16.23.07.37.3.05-.34.25-.06.47-.26.4.16.1.31.54.2C96.59,3,96.21,3.07,96.21,3.07Zm10.23-.55Zm.87,0h-.37c0-.06,0-.14.09-.13A.67.67,0,0,1,107.31,2.52Zm-1.82-1.36c.14,0,.18,0,.2.05h-.24Z" transform="translate(-0.13 -0.88)" style="fill:#058797"/><path d="M105.25,1.43h-.06l.08,0,0,0Z" transform="translate(-0.13 -0.88)" style="fill:#058797"/><path d="M183.25,1.7h0v0Z" transform="translate(-0.13 -0.88)" style="fill:#058797"/><polygon points="119.05 1.99 119.05 1.94 118.98 1.98 119.05 1.99" style="fill:#058797"/><path d="M188,2.36a.1.1,0,0,0,.06.05Z" transform="translate(-0.13 -0.88)" style="fill:#058797"/><path d="M190,2.4l.3.07Z" transform="translate(-0.13 -0.88)" style="fill:#058797"/><path d="M191.6,2.52a.11.11,0,0,0,0-.08h0Z" transform="translate(-0.13 -0.88)" style="fill:#058797"/><path d="M166.58,2.72h-.06C166.38,2.77,166.47,2.76,166.58,2.72Z" transform="translate(-0.13 -0.88)" style="fill:#058797"/><path d="M174,2.28l-.24.09C173.92,2.38,174,2.38,174,2.28Z" transform="translate(-0.13 -0.88)" style="fill:#058797"/><path d="M158.26,3" transform="translate(-0.13 -0.88)" style="fill:#058797"/><path d="M173.44,2.36a.5.5,0,0,0,.34,0A1,1,0,0,0,173.44,2.36Z" transform="translate(-0.13 -0.88)" style="fill:#058797"/><path d="M198.42,2.59h0Z" transform="translate(-0.13 -0.88)" style="fill:#058797"/><path d="M198.51,2.57l.08,0S198.52,2.52,198.51,2.57Z" transform="translate(-0.13 -0.88)" style="fill:#058797"/><path d="M198.78,2.52l-.19,0C198.65,2.52,198.73,2.55,198.78,2.52Z" transform="translate(-0.13 -0.88)" style="fill:#058797"/><path d="M196.34,2.52v.07A.09.09,0,0,0,196.34,2.52Z" transform="translate(-0.13 -0.88)" style="fill:#058797"/><path d="M195.71,2.52c.15,0,.38.15.59.11V2.57C196.27,2.67,195.85,2.4,195.71,2.52Z" transform="translate(-0.13 -0.88)" style="fill:#058797"/><path d="M193.06,1.66l.54.05c-.1-.08-.22-.17,0-.19C193,1.3,193.76,1.68,193.06,1.66Z" transform="translate(-0.13 -0.88)" style="fill:#058797"/><path d="M191.42,1.55c.28,0,0-.11,0-.15C191.24,1.47,191.24,1.48,191.42,1.55Z" transform="translate(-0.13 -0.88)" style="fill:#058797"/><path d="M179.53,1.55V1.37C179.34,1.43,179.55,1.43,179.53,1.55Z" transform="translate(-0.13 -0.88)" style="fill:#058797"/><polygon points="177.13 1.57 177.34 1.68 177.44 1.52 177.13 1.57" style="fill:#058797"/><polygon points="175.78 0.32 175.88 0.3 175.51 0.37 175.78 0.32" style="fill:#058797"/><path d="M156,1.27l.09.21C156.16,1.43,156.19,1.2,156,1.27Z" transform="translate(-0.13 -0.88)" style="fill:#058797"/><path d="M147.33,1.49a.38.38,0,0,0-.48-.06C147,1.43,147.23,1.51,147.33,1.49Z" transform="translate(-0.13 -0.88)" style="fill:#058797"/><polygon points="121.34 0.26 121.52 0.19 121.19 0.25 121.34 0.26" style="fill:#058797"/></g></g><g id="Layer_2-4" data-name="Layer 2"><g id="Layer_1-2-4" data-name="Layer 1-2"><path d="M113.86,2.44c.06-.06,0-.19-.14-.16l-.12.24Z" transform="translate(-0.13 -0.88)" style="fill:#058797"/><path d="M112.79,2c-.27.13-.38.33-.29.51.19-.22.23-.12.44-.38.16,0,.28.07.26.15s.25.05.35-.09a.69.69,0,0,0-.78,0C112.67,2.12,112.73,2.06,112.79,2Z" transform="translate(-0.13 -0.88)" style="fill:#058797"/><path d="M96.62,1.67l.11,0Z" transform="translate(-0.13 -0.88)" style="fill:#058797"/><path d="M86.64,1.55c.08,0,.11,0,.11-.05S86.64,1.53,86.64,1.55Z" transform="translate(-0.13 -0.88)" style="fill:#058797"/><path d="M84.93,1.3H85S85,1.28,84.93,1.3Z" transform="translate(-0.13 -0.88)" style="fill:#058797"/><path d="M96.62,1.67l-.26-.07C96.34,1.67,96.5,1.65,96.62,1.67Z" transform="translate(-0.13 -0.88)" style="fill:#058797"/><path d="M110.53,2.57a.35.35,0,0,0,.14-.06h-.14Z" transform="translate(-0.13 -0.88)" style="fill:#058797"/><path d="M101,1.49h.08a.23.23,0,0,0,.07-.1Z" transform="translate(-0.13 -0.88)" style="fill:#058797"/><path d="M104.4,1.43c-.07,0-.1.18-.13.26s.1-.11.17-.13A.22.22,0,0,0,104.4,1.43Z" transform="translate(-0.13 -0.88)" style="fill:#058797"/><path d="M109.77,1.79h0Z" transform="translate(-0.13 -0.88)" style="fill:#058797"/><path d="M98.61,1.43V1.36A.09.09,0,0,0,98.61,1.43Z" transform="translate(-0.13 -0.88)" style="fill:#058797"/><path d="M4.08,2.89v0S4.06,2.89,4.08,2.89Z" transform="translate(-0.13 -0.88)" style="fill:#058797"/><path d="M.14,1.94h0a.21.21,0,0,0,0-.11Z" transform="translate(-0.13 -0.88)" style="fill:#058797"/><path d="M81.8,1.05h0C81.9,1,81.85,1,81.8,1.05Z" transform="translate(-0.13 -0.88)" style="fill:#058797"/><path d="M53.15,1.19c.32.17-.52.22,0,.41C53.07,1.53,53.55,1.3,53.15,1.19Z" transform="translate(-0.13 -0.88)" style="fill:#058797"/><path d="M110.44,2.52Z" transform="translate(-0.13 -0.88)" style="fill:#058797"/><path d="M53.11,1.6Z" transform="translate(-0.13 -0.88)" style="fill:#058797"/><path d="M74.57,1.16l.07.09S74.61,1.19,74.57,1.16Z" transform="translate(-0.13 -0.88)" style="fill:#058797"/><path d="M80,1.43h0Z" transform="translate(-0.13 -0.88)" style="fill:#058797"/><path d="M71.84,1.43c-.08,0-.1-.05-.21,0h.21Z" transform="translate(-0.13 -0.88)" style="fill:#058797"/><path d="M68.94,1.43s0,0,0,0H69Z" transform="translate(-0.13 -0.88)" style="fill:#058797"/><path d="M12.88,2.79a.61.61,0,0,1-.13-.16C12.79,2.76,12.36,2.81,12.88,2.79Z" transform="translate(-0.13 -0.88)" style="fill:#058797"/><path d="M110.52,2.46s0,.07-.08.08h.09S110.54,2.49,110.52,2.46Z" transform="translate(-0.13 -0.88)" style="fill:#058797"/><path d="M71.72,3h0Z" transform="translate(-0.13 -0.88)" style="fill:#058797"/><path d="M33.66,2.77h0Z" transform="translate(-0.13 -0.88)" style="fill:#058797"/><path d="M69.88,3a.58.58,0,0,0-.25-.13l-.06.05Z" transform="translate(-0.13 -0.88)" style="fill:#058797"/><path d="M12.75,2.62Z" transform="translate(-0.13 -0.88)" style="fill:#058797"/><path d="M9.71,3.07c.44,0,.21-.25.3-.4.52-.07.24.19.42.32.32-.07.58-.3.82-.29,0,0,.07.06,0,.11.35-.2,1,0,1.43-.26l.06.06a.44.44,0,0,1-.06-.35c.19,0,.36-.15.43,0-.12,0-.13.06-.18.12l.2-.07c.18.23-.28.08-.28.26A3.63,3.63,0,0,1,14,2.36c.07.23-.71.07-.31.28l-.49-.07c.36.37-.29,0,0,.37.62.06.69-.12,1.32-.06.14-.12,0-.18.1-.31.88-.23.69.58,1.35.27.17-.15.24-.45.7-.29l-.16.26c.6,0,.34-.38,1-.2-.12.1-.48.09-.39.11.41.21.29-.14.62-.14l.06.23c.64,0,1.35-.21,2.07-.24,0,.06-.16.14,0,.21a10,10,0,0,1,2.79.16l.34-.2c.08,0,.11.07.07.12h0c.33.08,0-.12.18-.21s.19,0,.2.09a.09.09,0,0,1-.07.09,4.67,4.67,0,0,1,2.33-.15l-.12.06c.49.08.55-.41,1-.22l-.09,0a12.61,12.61,0,0,1,3,.21c.16-.29,1.06.12,1.13-.28A4.55,4.55,0,0,0,32,2.9c.23,0,.34-.25.62-.3v.22L33,2.59l.21.25.27,0c-.1,0-.16-.09-.15-.15a1.3,1.3,0,0,1,1,.25l1-.18c0,.09-.18.12-.32.17.53-.22.09.22.58,0-.06,0,0-.12,0-.16a2.42,2.42,0,0,0,1.17.07l-.07.15c.73,0,1.53-.07,2.35-.07-.29-.07-.22-.32,0-.34l.09.22c.16-.14-.25-.09.07-.26.3,0,.2.26,0,.33l.37-.07c0,.06-.07.09-.09.18.15-.14.64.23.86,0V3c.82,0,1.19-.08,1.86-.09,0-.19.27-.15.47-.31a9.41,9.41,0,0,0,1.71.21c.41-.1.12-.17.3-.28,0,.18.62.16.31.29a13.22,13.22,0,0,0,1.8-.18c-.1-.07-.21-.11-.15-.17s.31,0,.34.13v0h0c1-.26,2.32.51,3.12.14h0l.83-.18c.38,0-.23.13.06.24.89-.3,1.4,0,2.14-.16.57.52,2,0,2.79.29V2.84c.21-.12.25.08.4.1s-.22-.11-.09-.17a35,35,0,0,1,5.19.28c.63,0,.36-.63,1.15-.34l-.22.23c1.27-.27,2.61,0,3.85-.22-.08,0-.08.12-.2.12.26.16,1,0,1-.13.19,0,0,.12.16.19.27.1.66-.21.8,0a.42.42,0,0,1-.12.06c.17-.08.81,0,.65-.17.46.09.89-.08,1.26,0,.25-.21.8.1.88-.2,0,.31.82.25,1.12.11-.11.09.26.09.14.23.34,0,.64-.06.58-.23.62.37,1.26-.29,1.61.18.92-.16,1.87-.27,2.82-.35,0,.31-1,0-1,.35a8.8,8.8,0,0,1,2.2-.32c.21.05-.13.14-.2.19.86-.13,1.65,0,2.41-.14l-.16.09c.15,0,.35,0,.34-.1l-.16,0c-.24-.2.6-.43.63-.55-.25.41.75.11.35.62.13,0,.21-.11.19-.19.15,0,.2.08,0,.19.53-.08.34-.23.84-.23,0,.07-.1.1-.15.18a1.33,1.33,0,0,1,.9-.21s0,.1-.1.09c.7,0,1.2-.35,2-.22-.23.29.26.1.3.35l.31,0-.14-.12c.37,0,.69-.18,1-.1l-.28.1.68,0-.38-.1c.36-.13,0-.32.44-.25a1.38,1.38,0,0,1,.56.15h0a.92.92,0,0,1,.63-.1c.07.08,0,.28,0,.34.18-.22.85-.06,1.09-.29a.18.18,0,0,0-.06.21l.15-.17c.17,0,.19.08.17.19.5,0-.16-.33.44-.18,0,0,0,0-.13.06.61.07,1.18-.11,1.73,0,.17.26-.48.07-.29.28a21.32,21.32,0,0,1,2.42-.25h-.14c.1-.36.57.18,1,0-.09,0-.12.2-.1.16a8.45,8.45,0,0,0,1.9-.2l-.1.09a11.11,11.11,0,0,0,1.16.09c.1-.1.29-.08.17-.22,1,.55,2-.28,2.92.16-.11,0-.26.08-.17.08l.78-.08c-.06-.16-.1-.1-.26-.22a.87.87,0,0,1,.52-.17c-.36.11,0,.26.16.35V2.23c.41.27.07-.32.63-.14v.09a2.21,2.21,0,0,1,.63-.13c.09.19-.22.09-.24.24.32,0,.64-.35.93-.17-.14.06-.33.06-.48.11a1,1,0,0,0,.59.19h0l.54.09-.14,0c.4-.48.82-.09,1.35-.4-.52.29-.08.17-.12.37.14.06.34.12.28.18.26-.17.43.14.78-.11,0,.07.28,0,.22.17.34,0-.08-.11,0-.2.51-.22,1.2.28,1.94,0,.62-.13.74-.36,1.32-.47.2.11-.16.24-.16.24a1.44,1.44,0,0,0,.87,0c-.06.06,0,.11.09.19s.16-.25.48-.15a.76.76,0,0,1-.24.27c.28-.06.56-.18.86-.24.07.11-.18.17-.29.25.33-.06.87-.11,1-.29l-.21-.07c.12,0,.06.16,0,.19-.28.14-.41-.06-.42-.13l.21,0c-.23-.39-.85.06-1.27,0l.17-.28-.43.23c-.09-.07-.15-.23.06-.28-.3-.13-.27.11-.54,0,0,0,0,0,0-.05h0l-.29.09c.06-.06,0-.21.13-.17-.53-.16-.85.22-1,0h0c-.74.1-.07.21-.63.46l-.37-.52-.07.21c-.07,0-.22,0-.2-.11-.28.14,0,.09-.11.23-.37-.19-1,.09-1.1-.25-.13.16.36.12,0,.24-.11-.36-.45.06-.78-.1.1-.19.42-.09.09-.26-.2.32-.65-.07-.94,0,0,.26-.61.11-1.08.19a8.17,8.17,0,0,0-1.33-.22V1.5c-.09.26-.54.21-.87.26,0-.11.08-.22.25-.28h-.31a.6.6,0,0,1-.38.15l.08-.19a4.83,4.83,0,0,1-1.36.1c0,.18.43.49-.14.6,0-.09,0-.25.11-.29a.58.58,0,0,1-.28,0l.24-.16c-.25-.07-.14.13-.33.12,0-.14-.14-.1-.12-.21s.17.06.25,0a1.21,1.21,0,0,1-.8-.21c0,.07,0,.18-.16.2-.41,0-.14-.16-.38-.24-.1.1-.37,0-.38.2-.12,0-.14-.09-.19-.15-.21.09-1,0-.75.24h0c-.71.21-1.46-.11-2.16,0v0a5.79,5.79,0,0,0-1.23.19c-.17,0-.27-.11-.24-.21a1.17,1.17,0,0,1-.81,0c.32-.11-.11-.1.33-.08-.42-.06-.51-.17-1,0,.15-.18-.31-.22-.51-.17l.29.12a3,3,0,0,1-.6,0l.1-.23c-.85-.27-1.52.48-2.17,0-.22.16.46.11.25.3-.38,0-.78-.36-.91-.36-.52-.12-.49.34-1,.25.13.13,0,.29-.2.35l-.08,0c-.39,0-.47-.34-.23-.41s.14,0,.13.05.29-.06.14-.15v.08c-.19-.08-.72-.07-.6-.2-.29.07-.12.13.09.17-.49-.12-.78,0-1.29-.08.08,0,.15.13.07.13-.75-.09-.33.16-.84.2-.28-.13.11-.3-.4-.2-.32-.08-.08-.21.06-.28-.48.16-.88-.1-1.15-.13L83,1a1.75,1.75,0,0,1-.4,0l.14.16c-.14,0-.26,0-.26-.1-.14.11.12.27-.18.42-.2-.09-.59.08-.66-.13.62.07-.06-.22.45-.25a.77.77,0,0,1-.37,0s0,0,.06-.06c-.57-.19-.26.25-.86.25.08-.13-.14-.24-.24-.21.24,0,.12.2-.1.29-.4-.09-.43.07-.63.06l.23.05c-.08.12-.27.1-.54.14,0-.09.24-.06.15-.1-.3.21-.67-.22-1.09-.08-.2-.08,0-.23-.19-.29-.47.16-.51-.16-1,0,.14.16.16.12-.18.28l.8-.11-.51.23c.24,0,.51-.1.65-.07-.24.13-.22.09-.1.22-.33-.24-.66.15-1,0V1.25c-.59-.18-1,.21-1.78.11l.24.07c-.1.16-.47,0-.71.08,0-.13-.13-.18-.24-.26,0,.1-.54,0-.61.26l-.35-.18c-.62-.07-.7.39-1.28.34.17-.14-.09-.24.3-.35-.2,0-.37,0-.37.07-.12-.08-.54.18-.73.05-.08.06-.11.21-.32.19a.06.06,0,0,1,0-.06c0,.06-.34.09-.15.23-.6-.42-1.68,0-2.2-.32-.44,0-.88.08-1.33.09,0,0,0-.06.08-.05-.53-.13-.33.39-.93.25-.31-.22.32-.12.13-.2-.08-.44-.74.06-1.14-.2h.09c-.31-.16-.75.16-1.27.13,0,0,0,0,0-.07a4.24,4.24,0,0,1-1.49.37c.15-.18.22-.09.13-.27-.22,0,.06.29-.39.33-.14-.09-.45-.18-.49-.36h.41c-.21-.25-.53,0-.75,0V1.36c-.63,0-.64.3-1.33.28l.07.08c-.29.25-.29-.18-.64,0L60,1.47a10.29,10.29,0,0,1-1.3.31,4.13,4.13,0,0,1,1.09-.42c-.25,0-.84,0-1,.15.09,0,.22-.09.31-.05A1.91,1.91,0,0,1,58,1.77c.09-.55-1.26-.13-1.61-.55a14.65,14.65,0,0,1-2.71-.05c.35.41-.29,0-.23.43h-.34l-.67-.24c-.16-.13.23-.1.21-.19-.56,0-.21-.18-.6-.29.07.15-.17.21-.46.16l.4.19c-.7.22-.61-.35-1.33-.13L50.89,1c-.37.07-1.36,0-1.72.33-.06-.05-.16-.16,0-.19-.88-.06-2,.36-2.64.15l.06-.1c-.16,0-.28.19-.49.09,0-.05.07-.11,0-.11s-.43.18-.7.12l.19-.12c-.86-.13-1.31.28-2,.35,0-.3-.67-.4-1-.45V1A14.66,14.66,0,0,0,40,1.37C39.37,1,38,1.24,37.1,1.05c.14.05,0,.23-.18.26s-.61.22-.57-.06h.07c-.16-.27-.6-.2-1-.21V1.4c-.92-.55-2.4.2-2.89-.27-.22.08-.49.08-.7.18v-.2a11.64,11.64,0,0,0-1.67,0L30.32,1c-.44,0-.55.55-.94.55l-.07-.27a6.62,6.62,0,0,0-2.22,0s0-.13.15-.14c-.34,0-1.35-.19-1.22.21,0-.26-.76,0-1.16.08l0-.18a1.29,1.29,0,0,1-.82.38c-.11,0-.1-.15.05-.1-.37-.1-.29.18-.74.08l.17-.13a.65.65,0,0,0-.56.19.81.81,0,0,1-.79-.22.47.47,0,0,1-.48.19c0-.05,0-.1.09-.12-.65-.13-1,.22-1.39,0,0,0,0-.05-.08-.07a7.21,7.21,0,0,1,.93,0c0-.18-.42-.21-.1-.45-.36.13-.91.45-1.32.34a.17.17,0,0,1-.06-.06h0a.57.57,0,0,0-.26,0,1.26,1.26,0,0,0-.28-.05c0-.14-.46-.08-.67-.08,0,.19-.25.16,0,.32,0,0,0,0,.18,0h.59a.53.53,0,0,1-.56.07l-.28.31c-.26-.3-.85-.44-.92-.61-.63.11-1.47.07-1.87.43-.18.05-.2-.1-.27-.15.1,0,.23,0,.28-.09-.35.1-1.05,0-1.13.29-.46-.11.25-.23-.37-.19l.09-.06c-1.21-.41-2,.64-3.31.12.09,0,.14.05.15.09C9.63,1.43,8,1.84,6.5,1.48c-.43-.07-.48.09-.74.21l-.09-.2-.45.23c-.64.18-1.1-.5-1.91-.17l.1.13c-.28,0-.91.09-.86-.07,0,0-.09.15-.2.07V1.57l-.72.19c-.55-.08.08-.43-.72-.45-.3,0-.86.31-.74.38s.3.09.32.18l-.28,0c-.07.32-.26.65.42.87l.46-.19.15.15H.85c.22.15.36,0,.52-.07a.3.3,0,0,0,.19.17L2,2.55c.06.12-.2.24.11.31.22-.14-.21-.28.15-.37.22.15.16.26.42.14,0,.07,0,.14-.12.17.23-.1.61,0,.73-.21.23.18.79,0,.77.25a1.61,1.61,0,0,1,.62-.25c-.39.36.8,0,.7.41.3-.32,1-.14,1.56-.32,0,0-.09.08-.13.06a1.91,1.91,0,0,1,.56.19c0-.27.49-.33.73-.5.35.26-.21.32-.1.55,0-.21.61-.21.49-.39.27.16.23.07.37.3,0-.34.26-.06.48-.26.39.16.1.31.53.2C10.09,3,9.71,3.07,9.71,3.07ZM20,2.52Zm.86,0h-.37c0-.06,0-.14.09-.13A.67.67,0,0,1,20.81,2.52ZM19,1.16c.14,0,.18,0,.2.05H19Z" transform="translate(-0.13 -0.88)" style="fill:#058797"/><path d="M18.75,1.43h-.06l.08,0,.05,0Z" transform="translate(-0.13 -0.88)" style="fill:#058797"/><path d="M96.75,1.7h0v0Z" transform="translate(-0.13 -0.88)" style="fill:#058797"/><polygon points="32.56 1.99 32.56 1.94 32.49 1.98 32.56 1.99" style="fill:#058797"/><path d="M101.49,2.36a.1.1,0,0,0,.06.05Z" transform="translate(-0.13 -0.88)" style="fill:#058797"/><path d="M103.53,2.4l.29.07Z" transform="translate(-0.13 -0.88)" style="fill:#058797"/><path d="M105.11,2.52V2.44h0Z" transform="translate(-0.13 -0.88)" style="fill:#058797"/><path d="M80.08,2.72H80C79.88,2.77,80,2.76,80.08,2.72Z" transform="translate(-0.13 -0.88)" style="fill:#058797"/><path d="M87.53,2.28l-.25.09C87.43,2.38,87.53,2.38,87.53,2.28Z" transform="translate(-0.13 -0.88)" style="fill:#058797"/><path d="M71.77,3" transform="translate(-0.13 -0.88)" style="fill:#058797"/><path d="M86.94,2.36a.5.5,0,0,0,.34,0A1,1,0,0,0,86.94,2.36Z" transform="translate(-0.13 -0.88)" style="fill:#058797"/><path d="M111.93,2.59h0Z" transform="translate(-0.13 -0.88)" style="fill:#058797"/><path d="M112,2.57l.08,0S112,2.52,112,2.57Z" transform="translate(-0.13 -0.88)" style="fill:#058797"/><path d="M112.28,2.52l-.18,0C112.16,2.52,112.24,2.55,112.28,2.52Z" transform="translate(-0.13 -0.88)" style="fill:#058797"/><path d="M109.84,2.52v.07A.09.09,0,0,0,109.84,2.52Z" transform="translate(-0.13 -0.88)" style="fill:#058797"/><path d="M109.21,2.52c.15,0,.38.15.59.11V2.57C109.77,2.67,109.35,2.4,109.21,2.52Z" transform="translate(-0.13 -0.88)" style="fill:#058797"/><path d="M106.57,1.66l.53.05c-.09-.08-.21-.17,0-.19C106.45,1.3,107.26,1.68,106.57,1.66Z" transform="translate(-0.13 -0.88)" style="fill:#058797"/><path d="M104.93,1.55c.28,0,0-.11,0-.15C104.74,1.47,104.74,1.48,104.93,1.55Z" transform="translate(-0.13 -0.88)" style="fill:#058797"/><path d="M93,1.55V1.37C92.85,1.43,93.06,1.43,93,1.55Z" transform="translate(-0.13 -0.88)" style="fill:#058797"/><polygon points="90.63 1.57 90.84 1.68 90.94 1.52 90.63 1.57" style="fill:#058797"/><polygon points="89.28 0.32 89.38 0.3 89.01 0.37 89.28 0.32" style="fill:#058797"/><path d="M69.45,1.27l.09.21C69.66,1.43,69.69,1.2,69.45,1.27Z" transform="translate(-0.13 -0.88)" style="fill:#058797"/><path d="M60.83,1.49a.38.38,0,0,0-.48-.06C60.54,1.43,60.73,1.51,60.83,1.49Z" transform="translate(-0.13 -0.88)" style="fill:#058797"/><polygon points="34.84 0.26 35.02 0.19 34.69 0.25 34.84 0.26" style="fill:#058797"/></g></g></svg>