<svg xmlns="http://www.w3.org/2000/svg" viewBox="0 0 113.09 4.05"><g id="Layer_2" data-name="Layer 2"><g id="Layer_1-2" data-name="Layer 1"><path d="M113.06,2.85c.06-.1,0-.35-.14-.3L112.8,3Z" style="fill:#058797"/><path d="M112,2.09a.92.92,0,0,0-.29.93c.19-.4.23-.23.44-.7.16,0,.28.13.26.28.06-.11.25.09.34-.17-.21-.32-.48-.33-.77-.07C111.88,2.27,111.94,2.16,112,2.09Z" style="fill:#058797"/><path d="M95.92,1.44l.11.05A.22.22,0,0,0,95.92,1.44Z" style="fill:#058797"/><path d="M86,1.22c.08,0,.11-.06.11-.09S86,1.18,86,1.22Z" style="fill:#058797"/><path d="M84.3.76l.1,0S84.32.73,84.3.76Z" style="fill:#058797"/><path d="M95.92,1.44l-.26-.13C95.64,1.45,95.8,1.41,95.92,1.44Z" style="fill:#058797"/><path d="M109.75,3.09a.36.36,0,0,0,.14-.11l-.14,0Z" style="fill:#058797"/><path d="M100.3,1.11h.08a.87.87,0,0,0,.07-.17Z" style="fill:#058797"/><path d="M103.66,1c-.07,0-.1.34-.13.49,0-.14.1-.21.17-.24A1,1,0,0,0,103.66,1Z" style="fill:#058797"/><path d="M109,1.66l.1,0Z" style="fill:#058797"/><path d="M97.9,1a.68.68,0,0,0,0-.12A.27.27,0,0,0,97.9,1Z" style="fill:#058797"/><path d="M3.91,3.67V3.61S3.89,3.67,3.91,3.67Z" style="fill:#058797"/><path d="M0,1.93l.05,0a1.21,1.21,0,0,0,0-.19Z" style="fill:#058797"/><path d="M81.19.31h0C81.29.28,81.24.28,81.19.31Z" style="fill:#058797"/><path d="M52.7.57c.32.31-.52.4,0,.75C52.62,1.18,53.1.77,52.7.57Z" style="fill:#058797"/><path d="M109.66,3h0Z" style="fill:#058797"/><path d="M52.66,1.32h0l.05,0Z" style="fill:#058797"/><path d="M74,.52a1.07,1.07,0,0,0,.07.15A.23.23,0,0,0,74,.52Z" style="fill:#058797"/><path d="M79.37,1,79.24,1A.2.2,0,0,0,79.37,1Z" style="fill:#058797"/><path d="M71.28,1c-.08,0-.1-.08-.2,0l0,0C71.15,1,71.19,1,71.28,1Z" style="fill:#058797"/><path d="M68.4,1a.18.18,0,0,0,0,.07l.09,0Z" style="fill:#058797"/><path d="M12.66,3.5a1.37,1.37,0,0,1-.13-.31C12.57,3.44,12.15,3.53,12.66,3.5Z" style="fill:#058797"/><path d="M109.74,2.89c0,.09,0,.13-.08.15l.09,0A.18.18,0,0,0,109.74,2.89Z" style="fill:#058797"/><path d="M71.16,3.79l-.46,0A2.16,2.16,0,0,0,71.16,3.79Z" style="fill:#058797"/><path d="M33.32,3.45l-.11,0A.1.1,0,0,0,33.32,3.45Z" style="fill:#058797"/><path d="M69.34,3.79a.56.56,0,0,0-.25-.24.35.35,0,0,0-.06.09Z" style="fill:#058797"/><path d="M12.53,3.18h0Z" style="fill:#058797"/><path d="M9.51,4c.44,0,.21-.45.3-.72.52-.13.24.34.42.58.32-.13.57-.55.81-.53,0,.07.07.1,0,.2.35-.37,1,0,1.42-.48a.41.41,0,0,1,.06.11,1.6,1.6,0,0,1-.06-.63c.19,0,.36-.29.43,0-.12,0-.13.11-.18.21l.2-.13c.18.43-.28.15-.28.47.4-.14.87-.5,1.17-.38.07.42-.71.14-.31.52L13,3.09c.36.67-.29,0,.05.67.62.12.69-.22,1.31-.1.14-.23,0-.34.1-.58.88-.42.69,1.07,1.34.5.17-.28.24-.82.7-.53l-.16.48c.6,0,.34-.69,1-.37-.12.19-.48.16-.39.21.41.38.29-.27.61-.27l.06.43c.64-.07,1.35-.38,2.06-.45,0,.12-.16.26,0,.39a5.64,5.64,0,0,1,2.78.3l.33-.37a.16.16,0,0,1,.06.24c.33.14,0-.23.18-.38a.18.18,0,0,1,.13.32,2.69,2.69,0,0,1,2.32-.27l-.12.11c.49.14.55-.76,1-.41l-.09.06c1.06.16,2.24-.18,3,.38.16-.53,1.05.23,1.12-.5.61.36.43.49,1.28.74.23,0,.34-.46.62-.54v.39l.38-.41.21.46.26-.1A.3.3,0,0,1,33,3.21a.92.92,0,0,1,1,.47l1-.33c0,.16-.18.21-.31.31.52-.4.09.4.57,0-.06-.08,0-.23,0-.3a1.39,1.39,0,0,0,1.17.13l-.07.27c.72.07,1.52-.13,2.33-.12-.29-.13-.22-.59,0-.63l.09.4c.16-.25-.25-.15.07-.46.3,0,.2.47,0,.6l.37-.14c0,.12-.07.18-.09.34.15-.26.64.41.86,0l0,.12c.81,0,1.18-.14,1.84-.16,0-.35.27-.27.47-.56A5.35,5.35,0,0,0,44,3.52c.41-.17.12-.3.3-.5,0,.32.62.29.31.52a6.78,6.78,0,0,0,1.79-.33c-.1-.13-.21-.19-.15-.3a.29.29,0,0,1,.34.29l0,0c1-.48,2.3.93,3.1.26l-.05,0,.82-.34c.38.05-.22.24.06.44.89-.54,1.4.07,2.13-.28.57.94,2-.07,2.78.53l0-.22c.2-.22.24.13.39.18,0-.17-.22-.2-.09-.32,1.67-.27,3.45.32,5.16.52.63.06.36-1.15,1.15-.62l-.22.42c1.26-.5,2.59,0,3.83-.41-.08.1-.08.22-.2.22.26.3,1,0,1-.23.19,0,.05.22.16.35.27.17.66-.39.8-.09,0,0-.07.1-.12.12.17-.14.8,0,.64-.31.46.17.89-.15,1.26.06.24-.39.79.18.87-.37,0,.57.82.46,1.11.19-.1.18.26.18.14.42.34,0,.64-.11.58-.41.62.68,1.25-.54,1.6.33a18.07,18.07,0,0,1,2.81-.64c0,.56-1,.05-1,.64.85-.23,1.34-.71,2.19-.58.21.08-.13.25-.2.34.85-.23,1.64.06,2.4-.25,0,0-.09.11-.16.15.15,0,.34.08.33-.17l-.15.07c-.24-.37.59-.78.62-1-.25.74.75.19.35,1.12a.34.34,0,0,0,.19-.34c.15.05.2.15.05.34.53-.14.34-.41.83-.41,0,.13-.1.18-.15.32a.91.91,0,0,1,.9-.38c0,.08,0,.18-.1.17.7,0,1.19-.64,2-.41-.23.54.26.18.3.65L85,3.21,84.87,3c.36,0,.68-.33,1-.18L85.59,3l.68-.08-.38-.18c.36-.24,0-.59.44-.46-.1,0,.36,0,.55.28h0c.18-.15.37-.3.63-.19.07.15-.05.52,0,.62.18-.39.85-.11,1.08-.53a.61.61,0,0,0-.06.4l.15-.32c.17.1.19.15.17.34.5.06-.16-.59.44-.33,0,0,0,.07-.13.12.61.13,1.17-.2,1.72-.05.17.47-.48.12-.29.51A11.06,11.06,0,0,1,93,2.67l-.14,0c.1-.66.57.33,1,0-.09,0-.12.36-.1.29a4.69,4.69,0,0,0,1.89-.37l-.1.17a5.5,5.5,0,0,0,1.16.16c.1-.17.29-.14.17-.39,1,1,2-.52,2.9.29-.11,0-.26.15-.17.15l.78-.16c-.06-.28-.1-.17-.26-.4a.64.64,0,0,1,.51-.3c-.35.19,0,.46.16.63,0-.09,0-.19,0-.28.41.51.07-.58.63-.24l0,.16c.21-.08.4-.28.63-.24.09.34-.22.16-.24.43.32,0,.63-.63.92-.3-.14.1-.33.1-.47.19.31.39.35.29.58.35h0l.54.17-.14-.1c.4-.87.81-.16,1.34-.73-.52.54-.08.31-.12.69.14.1.34.22.28.33.26-.31.43.24.78-.21,0,.12.27,0,.22.32.33-.1-.08-.21,0-.37.5-.41,1.19.51,1.92-.06.62-.24.74-.65,1.32-.85.2.19-.16.44-.16.44a.83.83,0,0,0,.86,0c-.06.1,0,.19.09.33.24,0,.16-.44.48-.26a1.7,1.7,0,0,1-.24.49c.28-.12.56-.34.86-.45.07.21-.18.32-.29.46.33-.1.86-.19,1-.53l-.21-.12c.12,0,.06.29,0,.35-.28.26-.41-.12-.42-.24l.21-.08c-.22-.71-.84.12-1.26.08l.17-.52-.43.43c-.09-.14-.15-.43.06-.51-.3-.25-.27.19-.53-.1a.06.06,0,0,1,0-.09l-.29.16c.06-.11,0-.37.13-.3-.53-.3-.85.39-1,0l0,0c-.73.17-.07.38-.62.83l-.37-.94-.07.38c-.07,0-.22,0-.2-.2-.28.26,0,.17-.11.42-.37-.35-1,.16-1.09-.45-.13.29.35.22,0,.43-.11-.66-.45.11-.78-.19.1-.34.42-.16.09-.46-.2.57-.65-.13-.93,0,0,.46-.61.19-1.08.34,0-.15-.89-.25-1.32-.41V1.14c-.09.46-.54.38-.87.47a.58.58,0,0,1,.25-.51h-.31a.49.49,0,0,1-.37.27l.08-.34c-.41,0-.83.4-1.36.18,0,.32.43.89-.13,1.1,0-.17,0-.47.1-.54,0,0-.17.14-.27.07l.23-.29c-.24-.13-.13.24-.32.22,0-.25-.14-.18-.12-.38,0,0,.17.11.25,0A.86.86,0,0,1,97.9,1c0,.14,0,.33-.16.37-.41,0-.14-.3-.38-.43-.1.17-.36,0-.37.36-.12,0-.14-.17-.19-.27-.21.16-1,.05-.75.44l0,0h0c-.7.37-1.45-.21-2.15-.05V1.37c-.42.14-.92.08-1.22.35a.34.34,0,0,1-.24-.38c-.31.1-.35.23-.8,0,.31-.21-.11-.19.32-.16-.41-.1-.5-.3-.94,0,.15-.32-.31-.4-.51-.31l.29.23a1.5,1.5,0,0,1-.6,0l.1-.42c-.84-.5-1.51.87-2.15,0-.22.29.45.2.25.54-.38-.05-.78-.65-.91-.65-.52-.23-.49.61-1,.45a.48.48,0,0,1-.28.68c-.39-.05-.47-.62-.23-.74s.14,0,.13.09.29-.12.14-.28l0,.15c-.19-.15-.72-.14-.6-.38-.29.14-.12.24.09.32-.49-.22-.77,0-1.28-.15.08.08.15.25.07.25-.75-.18-.33.28-.84.35-.28-.23.11-.54-.4-.35-.31-.16-.07-.4.06-.52-.47.29-.87-.18-1.14-.24L82.4.16A.83.83,0,0,1,82,.23l.14.3C82,.48,81.88.48,81.88.35c-.14.2.12.5-.18.76-.19-.15-.58.16-.65-.23.61.13-.06-.4.45-.46a.44.44,0,0,1-.37,0s0-.08.06-.1c-.57-.35-.26.44-.86.44.08-.23-.14-.43-.24-.38.24,0,.12.37-.1.54-.39-.17-.42.13-.62.11l.23.08c-.08.22-.27.19-.54.26,0-.17.24-.11.15-.19-.3.39-.67-.4-1.09-.14-.19-.15,0-.42-.18-.52-.47.29-.51-.3-1-.07.14.3.16.23-.18.52l.8-.21-.51.43c.24,0,.51-.18.65-.13-.24.24-.22.17-.1.41-.33-.44-.66.26-1,0V.68c-.58-.33-1,.38-1.77.2l.24.12c-.1.3-.46.05-.7.16,0-.24-.13-.33-.24-.49,0,.19-.54,0-.61.48L73.17.83c-.61-.14-.69.7-1.27.61.17-.26-.09-.44.3-.63-.2,0-.37-.05-.37.12-.12-.15-.54.34-.72.1-.08.11-.11.37-.32.35a.15.15,0,0,1,0-.12c0,.12-.34.16-.15.43-.6-.77-1.67.06-2.19-.6a10.68,10.68,0,0,1-1.32.18c0-.07,0-.12.08-.1-.53-.23-.33.71-.93.45-.31-.39.32-.21.13-.36-.08-.81-.73.11-1.13-.37l.09,0c-.31-.28-.75.3-1.26.25a.23.23,0,0,0,0-.13,2.78,2.78,0,0,1-1.49.67c.15-.32.22-.17.13-.49-.22,0,.06.52-.38.61-.14-.18-.45-.33-.49-.67l.41,0c-.21-.45-.53,0-.75-.06l0-.2c-.63.06-.64.56-1.32.52l.07.15C60,2,60,1.2,59.65,1.57l-.11-.5a6.09,6.09,0,0,1-1.29.57A3.82,3.82,0,0,1,59.33.87c-.25,0-.83,0-.95.28.09,0,.22-.17.31-.09a1.35,1.35,0,0,1-1.17.57c.09-1-1.25-.24-1.6-1-.85.35-1.69-.16-2.69-.1.35.75-.29,0-.23.79-.23,0-.32,0-.34,0L52,.87c-.16-.23.22-.17.2-.34C51.65.47,52,.2,51.61,0c.07.27-.17.39-.46.29l.4.35c-.7.41-.61-.64-1.32-.24l.22-.24c-.36.14-1.35,0-1.71.61-.06-.09-.15-.3,0-.35-.87-.1-1.94.65-2.62.27l.06-.18c-.16.05-.28.35-.49.16,0-.08.07-.19,0-.2S45.26.8,45,.69l.19-.21c-.86-.25-1.31.51-2,.64,0-.55-.67-.73-1-.82V.22A8.38,8.38,0,0,0,39.6.9C39,.3,37.66.65,36.74.31c.14.1,0,.43-.18.48-.22-.11-.6.39-.56-.12h.07c-.16-.49-.6-.36-1-.38l0,.66c-.91-1-2.38.36-2.87-.5-.22.16-.49.16-.7.33V.43a5.29,5.29,0,0,0-1.66,0L30,.13c-.43,0-.54,1-.93,1L29,.64c-.74,0-1.48-.45-2.21,0,0-.07,0-.23.15-.25-.34,0-1.34-.35-1.21.37,0-.47-.76-.05-1.16.16L24.6.59c-.33.45-.34.57-.81.69-.11,0-.1-.27.05-.19-.37-.18-.29.33-.74.15L23.27,1c-.38,0-.35.09-.56.35a.62.62,0,0,1-.78-.4c-.05.19-.26.44-.48.35a.23.23,0,0,1,.09-.23c-.64-.23-.95.41-1.38.07A.28.28,0,0,0,20.08,1,5,5,0,0,1,21,1c0-.32-.41-.38-.09-.82C20.55.42,20,1,19.59.8a.54.54,0,0,1-.06-.11l0,0a.3.3,0,0,0-.26,0A.78.78,0,0,0,19,.61c0-.27-.46-.15-.67-.16,0,.35-.25.3,0,.59,0,0,0-.05.18-.06a.2.2,0,0,0,.08,0V1l.51,0c-.17.18-.33.33-.56.13-.1.23-.22.46-.28.57C18,1.16,17.42.9,17.35.59c-.63.2-1.47.13-1.86.79-.18.09-.2-.19-.27-.29.1-.07.23-.06.28-.15-.35.17-1.05.07-1.13.53-.45-.21.25-.43-.36-.35L14.09,1c-1.2-.74-2,1.17-3.29.23.09.06.14.08.15.16C9.43,1,7.82,1.76,6.32,1.1c-.43-.13-.48.16-.74.38l-.09-.37-.44.43c-.64.32-1.1-.92-1.9-.32l.1.25c-.28,0-.91.15-.86-.14,0,0-.09.27-.2.13V1.27l-.71.33C.93,1.46,1.56.82.76.78c-.3.08-.85.58-.73.71a.35.35,0,0,1,.31.32l-.27.1C0,2.49-.19,3.09.48,3.5l.46-.36.15.28-.39,0c.22.27.36,0,.52-.13a.48.48,0,0,0,.19.31l.46-.55c.06.22-.2.45.1.57.22-.26-.2-.51.15-.68.22.27.16.48.42.26a.26.26,0,0,1-.12.31c.23-.18.61-.08.73-.39.23.33.78-.08.76.47a1.24,1.24,0,0,1,.62-.46c-.39.66.8,0,.7.75.29-.59,1-.26,1.55-.59,0,0-.09.14-.13.11.29.05.37.23.55.34,0-.49.49-.6.73-.9.35.47-.21.57-.1,1,0-.39.61-.39.49-.72.27.29.23.14.37.55.05-.62.25-.11.47-.48.39.3.1.57.53.38C9.89,3.8,9.51,4,9.51,4ZM19.69,3h0l-.21,0Zm.86,0h-.37c0-.12,0-.25.09-.24S20.42,2.85,20.55,3ZM18.74.52c.14-.05.18,0,.2.09l-.24,0s0,0,0,0A.42.42,0,0,1,18.74.52Z" style="fill:#058797"/><path d="M18.5,1l-.06,0a.3.3,0,0,0,.08.08A1.17,1.17,0,0,0,18.57,1Z" style="fill:#058797"/><path d="M96.05,1.5h0l0,.05S96.05,1.51,96.05,1.5Z" style="fill:#058797"/><polygon points="32.36 3.63 32.36 3.54 32.29 3.61 32.36 3.63" style="fill:#058797"/><path d="M100.76,2.71a.16.16,0,0,0,.06.09S100.79,2.74,100.76,2.71Z" style="fill:#058797"/><path d="M102.79,2.78l.29.13A1.14,1.14,0,0,0,102.79,2.78Z" style="fill:#058797"/><path d="M104.36,3a1.31,1.31,0,0,0,0-.15h0Z" style="fill:#058797"/><path d="M79.48,3.37l-.06,0C79.28,3.46,79.37,3.43,79.48,3.37Z" style="fill:#058797"/><path d="M86.88,2.55a1.31,1.31,0,0,1-.24.17C86.78,2.74,86.88,2.75,86.88,2.55Z" style="fill:#058797"/><path d="M71.21,3.79Z" style="fill:#058797"/><path d="M86.3,2.71a.34.34,0,0,0,.34,0A.5.5,0,0,0,86.3,2.71Z" style="fill:#058797"/><path d="M111.14,3.12h.08a0,0,0,0,1,0,0Z" style="fill:#058797"/><path d="M111.23,3.08l.08-.05S111.24,3,111.23,3.08Z" style="fill:#058797"/><path d="M111.49,3l-.18.08C111.37,3,111.45,3.05,111.49,3Z" style="fill:#058797"/><path d="M109.07,3l0,.12A.29.29,0,0,0,109.07,3Z" style="fill:#058797"/><path d="M108.44,3c.15,0,.38.27.59.19l0-.1C109,3.27,108.58,2.78,108.44,3Z" style="fill:#058797"/><path d="M105.81,1.42l.53.1c-.09-.14-.21-.32,0-.35C105.7.76,106.5,1.47,105.81,1.42Z" style="fill:#058797"/><path d="M104.18,1.22c.28-.06,0-.2,0-.27C104,1.07,104,1.1,104.18,1.22Z" style="fill:#058797"/><path d="M92.36,1.22l0-.32C92.17,1,92.38,1,92.36,1.22Z" style="fill:#058797"/><polygon points="90.1 2.87 90.31 3.07 90.41 2.78 90.1 2.87" style="fill:#058797"/><polygon points="88.76 0.59 88.86 0.55 88.49 0.67 88.76 0.59" style="fill:#058797"/><path d="M68.91.71,69,1.1C69.12,1,69.15.59,68.91.71Z" style="fill:#058797"/><path d="M60.34,1.11C60.25.91,60,.79,59.86,1,60.05,1,60.24,1.16,60.34,1.11Z" style="fill:#058797"/><polygon points="34.63 0.47 34.81 0.34 34.48 0.45 34.63 0.47" style="fill:#058797"/></g></g></svg>