<?xml version="1.0" encoding="utf-8"?>
<!-- Generator: Adobe Illustrator 25.3.1, SVG Export Plug-In . SVG Version: 6.00 Build 0)  -->
<svg version="1.1" id="Layer_1" xmlns="http://www.w3.org/2000/svg" xmlns:xlink="http://www.w3.org/1999/xlink" x="0px" y="0px"
	 viewBox="0 0 250 250" style="enable-background:new 0 0 250 250;" xml:space="preserve">
<style type="text/css">
	.st0{fill:#1399A8;stroke:#1399A8;stroke-miterlimit:10;}
</style>
<path class="st0" d="M189.93,145c-2.61,0.62-1.02,1.17-1.45,1.82c-3.03,1.01-1.59-0.31-2.75-0.5c-1.86,0.74-3.13,1.94-4.56,2.29
	c-0.14-0.12-0.43-0.09-0.16-0.37c-1.83,1.26-5.96,1.69-8.05,3.25c-0.2-0.03-0.3-0.08-0.37-0.13c0.5,0.34,0.68,0.77,0.69,1.11
	c-1.13,0.34-1.96,1.15-2.54,0.69c0.7-0.18,0.7-0.43,0.97-0.7l-1.12,0.58c-1.3-0.53,1.55-0.74,1.38-1.36
	c-2.24,0.92-4.76,2.36-6.6,2.62c-0.58-0.71,4.08-1.43,1.52-1.5l2.83-0.45c-2.45-0.7,1.69-0.37-0.61-1.21
	c-3.67,0.77-3.92,1.55-7.6,2.26c-0.7,0.67,0.44,0.6-0.26,1.27c-4.94,2.18-4.56-1.01-8.08,1.04c-0.85,0.78-0.98,1.94-3.82,2.03
	l0.71-1.15c-3.55,0.74-1.71,1.81-5.56,2.06c0.58-0.52,2.71-0.96,2.15-0.95c-2.56-0.17-1.58,0.93-3.42,1.36l-0.56-0.74
	c-3.74,0.97-7.77,2.48-11.94,3.48c0.18-0.29,0.85-0.7-0.18-0.75c-5.2,1.5-11.33,2.09-16.53,2.49l-1.84,1.05
	c-0.46,0.07-0.9-0.19-0.43-0.41c-2.04,0.06-0.03,0.47-0.95,0.91c-1.13,0.24-1.57-0.17-0.88-0.5c-3.43,1.21-9.88,2.91-13.72,2.63
	l0.7-0.31c-2.95,0.1-3.09,1.94-5.88,1.62l0.5-0.19c-6.36,0.48-13.3,1.95-18.25,1.29c-0.83,1.15-6.32,0.12-6.61,1.59
	c-3.69-0.45-2.67-0.74-7.81-0.89c-1.37,0.03-1.97,1.05-3.65,1.32l-0.09-0.76l-2.24,0.94l-1.26-0.85l-1.56,0.26
	c0.62,0.02,1.34,0.29,1.26,0.51c-2.45,0.47-5.98-0.36-6.03-0.77c-1.91,0.22-3.82,0.4-5.73,0.5c0.15-0.31,1.1-0.33,1.86-0.52
	c-3.07,0.63-0.51-0.83-3.31-0.27c0.36,0.21-0.23,0.44-0.31,0.58c-1.34-0.59-4.43-0.9-6.7-1.21l0.53-0.44
	c-3.98-0.87-8.36-1.92-12.16-4.23c1.26,1,0.53,1.63-0.7,1.03c-0.02-0.31-0.02-0.65-0.03-0.98c-0.98-0.07,0.99,1.06-0.8,0.56
	c-1.38-1.06-0.42-1.4,0.5-1.08c-0.59-0.32-1.25-0.57-1.8-0.95c0.05-0.27,0.5-0.07,0.77-0.24c-0.46-0.06-1.01-0.78-1.6-1.46
	c-0.57-0.7-1.11-1.42-1.81-1.55l0.1-0.24c-2.69-3.2-3.74-4.88-4.51-8.01c-0.68,0.06-0.76-1.22-1.28-2.24
	c0.29-2.6,1.48-5.05,3.24-7.41c1.06-1.87-0.08-0.86,0.25-1.9c0.58,0.29,2.77-1.89,1.9-0.44c0.67-0.63,1.28-1.12,1.81-1.58
	c0.58-0.42,1.1-0.81,1.64-1.21c1.15-0.75,2.38-1.63,4.65-2.82c-0.61-0.05-1.23,0.1-1.02-0.23c0.83-0.44,2.08-0.53,2.05-0.19
	l-0.2,0.15c2.52-1.47,5.93-1.9,9.09-2c3.13-0.11,6.28,0.1,8.58-0.77l-0.26,0.08l4.86-0.96c2.26,0.05-1.33,0.52,0.35,0.86
	c5.26-1.22,8.35-0.02,12.72-0.62c3.32,1.91,12.01,0.34,16.52,1.92l-0.23-0.46c1.21-0.35,1.41,0.36,2.27,0.53
	c-0.1-0.35-1.25-0.5-0.5-0.68c10.07,0.25,20.64,2.59,30.99,3.88c3.79,0.44,2.33-2.09,7.04-0.67l-1.42,0.71
	c7.74-0.39,15.78,1.03,23.38,0.16c-0.45,0.2-0.46,0.44-1.2,0.43c1.6,0.62,5.94-0.04,5.95-0.52c1.18,0.01,0.29,0.43,1.02,0.65
	c1.63,0.28,4.01-0.91,4.9-0.38c0.15,0.09-0.44,0.23-0.74,0.29c1.04-0.35,4.91-0.26,3.85-0.88c2.88,0.11,5.42-0.79,7.73-0.67
	c1.38-0.96,4.92-0.29,5.22-1.48c-0.03,1.16,5.13,0.05,6.78-0.92c-0.53,0.46,1.62,0.01,1.02,0.62c2.04-0.45,3.83-1.2,3.34-1.65
	c2.03,0.2,3.82-0.61,5.39-1.36c1.59-0.7,2.94-1.36,4.24-0.94c2.84-1.31,5.5-2.74,8.06-4.12c2.52-1.54,4.98-2.6,7.49-4.78
	c0.28,0.52-1.21,1.71-2.57,2.46c-1.34,0.78-2.6,1.38-2.24,1.88c2.23-1.33,4.18-2.69,5.89-4.74c1.67-2.05,2.78-4.92,2.4-8.21
	c-0.13-1.72,0.69,0.86,0.77,1.56c-0.24-3.69-1.83-6.38-3.5-8.61c-1.74-2.19-3.79-3.95-6.16-5.04c0.06-0.08,0.6,0.11,1.09,0.34
	c-0.9-0.57-1.94-1.35-2.08-0.83c0.3,0.11,0.59,0.19,0.89,0.33c0.94,1.33-4.05-0.41-4.33-0.09c0.99-0.27,0.04-0.97-0.89-1.47
	c-0.91-0.52-1.74-1.05-0.2-1.43c-0.62-0.15-1.44-0.21-1.42,0.16c-0.82-0.44-1.03-0.73-0.02-0.75c-3.28-0.98-2.33,0.07-5.23-0.87
	c0.07-0.24,0.69-0.15,1.07-0.34c-1.62-0.04-3.22,0.17-5.68-0.57c0.18-0.11-0.08-0.37,0.67-0.21c-4.38-0.69-7.51,0.2-12.2-0.28
	c1.41-1.06-1.61-0.36-1.88-1.29l-2.56,0.38l1.04,0.4c-2.24,0.06-4.15,0.87-6.07,0.76l1.61-0.53c-1.38,0.2-2.77,0.33-4.13,0.57
	c0.79,0.01,1.58,0.06,2.38,0.11c-2.18,0.69,0.34,1.1-2.59,1.19c0.58-0.16-2.18,0.25-3.4-0.14l0.01,0c-1.04,0.46-2.1,0.93-3.74,0.95
	c-0.46-0.23,0.18-1.07-0.12-1.22c-0.94,0.94-5.07,1.07-6.25,2.15c0.41-0.28,0.35-0.76,0.18-0.83l-0.77,0.79
	c-1.04-0.01-1.2-0.08-1.11-0.49c-3.03,0.46,1.17,0.97-2.49,1.16c0.27-0.11,0.12-0.17,0.68-0.38c-3.63,0.44-6.83,1.77-10.17,2.11
	c-1.14-0.73,2.82-0.78,1.57-1.34c-4.68,1.12-9.57,2.96-14.21,3.46l0.87-0.03c-0.44,1.4-3.52-0.12-5.76,0.81
	c0.56-0.17,0.65-0.82,0.52-0.66c-3.18,0.21-6.4,1.17-11.16,2.05l0.56-0.39c-1.89-0.11-4.93,0.29-6.96,0.28
	c-0.57,0.38-1.73,0.42-1,0.86c-6.33-1.48-11.87,1.68-17.47,0.13c0.66-0.01,1.57-0.31,1.05-0.31l-4.71,0.34
	c0.37,0.58,0.62,0.35,1.61,0.8c-0.6,0.34-1.94,0.59-3.11,0.59c2.13-0.37-0.01-0.92-0.93-1.25c0.15,0.18-0.16,0.37-0.09,0.55
	c-2.45-1.05-0.43,1.15-3.8,0.39l0.19-0.3c-1.27,0.13-2.44,0.5-3.8,0.35c-0.54-0.69,1.36-0.26,1.46-0.8
	c-1.91-0.05-3.82,1.12-5.52,0.36c0.82-0.13,1.99-0.09,2.81-0.24c-1.85-0.85-2.07-0.67-3.46-0.88l0.14,0.03l-3.2-0.54l0.81,0.26
	c-2.49,1.54-4.89,0.06-8.16,0.76c3.19-0.67,0.57-0.54,0.92-1.25c-0.76-0.29-1.73-0.77-1.38-0.91c-0.68,0.14-1.15-0.14-1.55-0.45
	c-0.42-0.33-0.74-0.58-1.54-0.88c0.12-0.17-0.59-1.01,0.07-1.08c-0.71-1.21-0.27,0.48-0.53,0.52c-0.94-0.84-1.05-2.6-0.82-4.39
	c0.21-1.85,0.66-3.8,0.52-5.99c0.23-1.83,0.25-2.98,0.35-4.1c0.05-1.14,0.23-2.23,0.83-3.93c0.91-0.87,0.3,1.26,0.34,1.27
	c1.14-1.55,1.79-2.77,2.56-4.41c-0.02,0.43,0.3,0.2,0.85-0.05c0.82-1.11-0.15-1.34,1.37-2.49c-0.02,0.42,0,0.98-0.18,1.69
	c0.83-1.39,1.66-2.84,2.84-4.11c0.59,0.04-0.37,1.17-0.62,1.75c1.18-1.47,3.56-3.13,3.83-3.96l-1.2,0.36
	c0.61-0.36,0.59,0.34,0.21,0.67c-1.03,1.34-2.04,1.1-2.26,1c0.28-0.3,0.6-0.55,0.9-0.83c-0.94-0.27-1.91,0.62-2.81,1.73
	c-0.85,1.17-1.59,2.57-2.35,3.55l-0.15-1.48c-0.32,0.88-0.66,1.71-0.87,2.62c-0.51,0.3-1.21,0.33-0.64-0.84
	c-1.43,1.29-0.62,1.55-1.85,2.68c-0.16,0.11-0.17,0.02-0.12-0.15c-0.19,0.6-0.43,1.16-0.57,1.77c-0.04-0.42-0.8-0.05-0.15-1
	c-1.99,2.8-1.35,5.22-2.38,6.18l0.01-0.29c-0.46,2.28-0.22,2.44,0.02,2.46c0.25,0.02,0.59-0.06,0.73,1.64
	c-0.76,0.63-1.39,1.32-2.1,2.06l0.7,0.51c-0.08,0.47-0.15,1.41-0.44,1.23c0.51,1.79,0.32-0.3,0.81,0.73
	c-0.33,1.13-0.09,2.74,0.4,4.03c0.46,1.31,1.2,2.2,0.97,2.84c0.96,0.24-1.15-2.01,0.78-0.4c-0.21,0.71,0.47,1.23,1.35,1.51
	c0.89,0.29,1.93,0.36,2.89,0.83c-0.73,0.58-2.72-0.36-0.71,0.79c1.5-0.79,4.03,0.74,5.76,0.65c0.14-0.88,3.71-0.1,6.58-0.26
	c-0.2,0.3,5.34,0.76,7.99,1.11l-0.08,0.15c0.54-0.89,3.27-0.66,5.26-0.85c-0.08,0.55-0.44,0.76-1.53,1l1.88,0.01
	c0.44-0.29,1.03-0.43,2.25-0.55l-0.47,0.69c2.5-0.06,5.02-0.84,8.24-0.49c0.16-0.64-2.59-1.7,0.77-2.22
	c0.14,0.34,0.28,0.93-0.6,1.09c0.29-0.06,1.03-0.31,1.61-0.19l-1.33,0.62c1.47,0.21,0.75-0.51,1.91-0.5c0,0.49,0.88,0.31,0.73,0.71
	c-0.3,0.06-1.03-0.16-1.47,0.05c1.32,0.03,2.92,0.25,3.47,0.6c-0.13-0.27-0.03-0.66,0.93-0.77c2.49-0.18,0.88,0.54,2.35,0.7
	c0.58-0.38,2.2-0.12,2.19-0.86c0.73-0.04,0.89,0.28,1.18,0.46c1.27-0.42,6.02-0.58,4.5-1.24l-0.33-0.02
	c0.06-0.02,0.13-0.03,0.21-0.05l-0.01,0l0.01,0c4.14-1.12,8.78-0.45,12.91-1.33l0.02,0.24c2.45-0.61,5.51-0.95,7.19-1.76
	c0.73-0.12,1.79,0.16,1.53,0.5c1.86-0.49,2.03-0.79,4.82-0.9c-1.82,0.77,0.72,0.25-1.89,0.66c2.48-0.25,3.13,0.06,5.62-1.11
	c-0.78,0.79,1.99,0.42,3.11,0.01l-1.8-0.11c1.29-0.34,2.44-0.52,3.6-0.7l-0.47,0.94c5.17-0.01,8.65-3.47,12.73-2.49
	c1.21-0.81-2.76,0.08-1.71-0.79c2.31-0.3,4.88,0.46,5.59,0.35c3.18,0,2.74-1.68,6.06-1.76c-0.45-0.24-0.95-0.97,1.49-1.55
	c2.33-0.13,2.95,0.97,1.53,1.33c-0.55,0.07-0.82,0-0.81-0.1c-0.73,0.2-1.68,0.44-0.74,0.65l0.26-0.33c1.17,0.17,4.3-0.12,3.6,0.42
	c1.7-0.43,0.7-0.55-0.59-0.59c1.48,0.06,2.62,0.01,3.77-0.04c1.15-0.06,2.32-0.18,3.81,0c-0.48-0.17-0.92-0.51-0.44-0.51
	c4.41,0.41,1.95-0.61,4.97-0.56c1.67,0.56-0.68,1.03,2.35,0.85c1.77,0.55,0.3,0.8-0.43,1c2.74-0.27,4.92,0.99,6.34,1.46l-1.4-0.05
	c0.83,0.03,1.5,0.18,2.17,0.32l-0.65-0.74c0.78,0.27,1.46,0.41,1.39,0.65c0.92-0.18-0.41-1.14,1.37-1.2
	c0.98,0.62,3.38,0.64,3.47,1.55c-3.23-1.31,0.12,0.84-2.7,0.11c0.56,0.07,1.21,0.27,1.96,0.6c0.09,0.12-0.16,0.12-0.39,0.1
	c2.79,1.81,1.7-0.33,4.85,1.02c-0.56,0.2,0.35,1.12,0.87,1.29c-1.2-0.63-0.27-0.97,1.02-0.68c1.82,1.32,2.19,0.88,3.09,1.56
	c-0.31-0.3-0.62-0.58-0.95-0.84c0.59-0.15,1.48,0.48,2.71,1.37c-0.11,0.33-1.21-0.69-0.88-0.23c1.82,0.49,2.25,3.09,3.72,4.61
	c0.23,1.01-0.65,0.5-0.46,1.31c0.71,0.86,0.7,1.48,0.62,1.99c-0.09,0.54-0.22,0.94-0.16,1.75c0.34-0.14,0.46-0.29,0.56-0.2
	c0.11,0.1,0.17,0.39,0.16,1.18c0.37-1.08,0.24-2.19-0.17-3.32c0.46,0.67,0.82,1.42,0.94,2.24c0.22-1.13-0.43-2.36-0.56-3.05
	c0.79,1.02,0.61,1.01,0.93,0.27c-0.16,0.97-0.02,1.71,0.07,2.59c0.1,0.86-0.13,1.86-0.89,2.53l-1.16-0.88
	c-0.85,0.68-1.63,1.49-2.85,2.45c-1.22,0.96-2.8,1.94-4.83,2.76l1.38-0.4c-0.28,0.81-2.43,1.28-3.67,2.02
	c-0.07-0.5-0.96-0.32-1.63-0.36c0.22,0.35-3,1.17-3.06,2.2l-2.07,0.07c-3.47,0.82-3.46,2.65-6.88,3.36c0.87-0.78-0.73-0.72,1.4-1.67
	c-1.11,0.28-2.13,0.46-2.06,0.79c-0.72-0.12-2.93,1.46-4.08,1.19c-0.43,0.31-0.48,0.85-1.76,1.08c-0.16-0.07-0.04-0.24-0.04-0.24
	c0.04,0.24-1.93,0.75-0.71,1.05c-3.77-0.83-9.87,1.77-13.13,0.69c-2.49,0.45-5.53,0.77-7.82,0.96c0.14-0.15,0-0.24,0.43-0.21
	c-3.18-0.34-1.89,1.5-5.53,1.11c-1.87-0.76,1.91-0.47,0.75-0.75c-0.54-1.61-4.35,0.32-6.79-0.65l0.59-0.09
	c-1.85-0.56-4.53,0.59-7.57,0.36c0,0,0.15-0.14,0.03-0.24c-2.1,0.77-6.06,0.86-9,0.89c0.95-0.57,1.35-0.25,0.83-0.93
	c-1.32,0.01,0.32,1.05-2.31,1.07c-0.83-0.39-2.7-0.84-2.9-1.54l2.47,0.14c-1.2-0.96-3.19-0.21-4.48-0.46l0.2-0.37
	c-3.78-0.17-3.92,0.79-7.98,0.36l0.39,0.33c-2.31,0.76-1.82-0.71-4.1-0.2l-0.58-1.04c-1.49,0.1-5.23,0.45-7.88,0.38
	c1.56-0.58,4.67-0.66,6.62-0.9c-1.45-0.15-4.95-0.4-5.75,0.01c0.6-0.04,1.36-0.21,1.92,0c-1.86,0.6-4.24,0.75-7.14,0.46
	c0.69-1.85-7.52-1.18-9.52-2.8c-5.21,0.28-10.23-1.08-16.3-1.19c2.09,1.56-1.77-0.03-1.45,1.51c-1.41,0.05-1.94,0.03-2.07-0.08
	c-1.41-0.32-2.83-0.68-4.26-0.98c-1.01-0.44,1.35-0.34,1.22-0.67c-3.1-0.13-1.3-0.65-3.36-1.05c0.42,0.55-1.08,0.76-2.85,0.59
	l2.5,0.68c-4.31,0.85-3.78-1.23-8.14-0.26l1.37-0.55c-1.12,0.2-3.2,0.31-5.27,0.54c-2.06,0.29-4.11,0.69-5.15,1.41
	c-0.42-0.12-1.01-0.47,0-0.71c-5.67,0.38-11.87,3.56-16.06,4.79l0.24-0.52c-0.93,0.57-1.39,1.36-2.72,1.71
	c-0.01-0.17,0.21-0.54-0.24-0.31c-0.47,0.36-2.15,2-3.43,2.67c0.25-0.36,0.52-0.69,0.79-1.04c-2.52,1.41-4.09,3.21-5.18,5.12
	c-1.17,1.86-1.75,3.93-2.51,6.23c-0.5-0.19-1.17,0.84-1.75,2.31c-0.42,1.47-0.75,3.35-0.68,4.63l-0.16-0.08
	c0.23,3.8,1.68,6.69,3.35,9.03c1.72,2.34,3.75,4.22,6.16,6.06c1.02,1.67,3.54,3.78,6.62,5.41c3.07,1.67,6.62,2.8,9.42,3.78
	c-0.83-0.41,0.34-0.78,1.36-0.67c1.31,0.5,3.81-0.08,3.45,0.86l-0.48-0.09c0.87,1.14,3.72,1.25,5.88,1.4l0.44-1.29
	c5.6,2.38,14.59-0.73,17.61,0.75c1.3-0.42,2.94-0.52,4.23-0.94l-0.02,0.71c3.68-0.08,5.52-0.16,10.03-0.71l-0.88,0.59
	c2.56-0.2,3.04-2.33,5.38-2.59l0.81,0.98c4.44-0.47,9.04-0.04,13.31-1.54c-0.05,0.16-0.15,0.48-0.86,0.61
	c2.09-0.2,8.17-0.34,7.22-1.67c0.17,0.92,4.58-0.52,6.9-1.31l-0.27,0.74c1.89-1.18,1.91-1.43,4.68-2.09
	c0.68-0.02,0.67,0.46-0.24,0.42c2.27,0.01,1.62-0.93,4.36-1l-0.93,0.6c2.29-0.32,2.07-0.53,3.24-1.24c1.39-0.5,4.33-0.59,4.78-0.02
	c0.24-0.43,1.4-1.16,2.77-1.22c0.22,0.2-0.24,0.43-0.47,0.55c3.88-0.22,5.49-1.86,8.22-1.69c0.1,0.21,0.29,0.29,0.52,0.32
	c-3.01,0.56-5.45,0.99-5.23,0.9c0.11,0.63,2.57,0.27,0.79,1.51c1.87-0.85,5.02-2.51,7.44-2.72c0.13,0.04,0.25,0.07,0.36,0.15
	l-0.23,0.12c0.56-0.05,1.04-0.21,1.48-0.41c0.78-0.05,1.27-0.08,2-0.22c0.39,0.47,2.84-0.31,4.05-0.56
	c-0.24-0.66,1.36-0.9-0.24-1.14c0.2,0.01-0.21,0.13-1.01,0.34c-0.18,0.06-0.39,0.12-0.5,0.18l0.07-0.08
	c-0.79,0.2-1.82,0.43-2.99,0.68c0.89-0.54,1.82-1.04,3.23-0.96c0.53-0.58,1.11-1.18,1.45-1.47c1.85,0.59,5.15,0.4,5.72,0.87
	c3.59-1.23,8.6-2.3,10.59-4.17c1-0.42,1.28,0.07,1.72,0.17c-0.57,0.28-1.29,0.44-1.57,0.7c2.01-0.83,6.12-1.71,6.39-2.73
	c2.71-0.29-1.26,1.2,2.29,0.11l-0.41,0.4c7.45-0.47,10.83-5.48,19.07-5.77c-0.57,0.03-0.85,0.05-1-0.07c9-1.58,18.22-5.37,27.3-4.83
	c2.54,0.01,2.77-0.48,4.3-1.03l0.57,0.73c0.87-0.35,1.75-0.61,2.63-0.88c1.89-0.31,3.52,0.2,5.2,0.8c1.71,0.49,3.44,1.13,5.85,0.96
	l-0.5-0.6c1.67,0.31,5.28,1.08,4.86,1.5c0.19-0.04,0.7-0.38,1.23,0.13l-0.08,0.39c1.34,0.31,2.74,0.54,4.1,0.92
	c2.73,1.75-1.07,1.18,2.92,3.38c1.45,0.81,4.67,1.79,4.3,1.22c-0.57-0.41-1.36-1.21-1.19-1.57l1.47,0.75
	c0.89-0.78,2.78-0.93-0.35-4.02c-0.97-0.35-1.88-0.76-2.9-0.97l-0.59-0.94c0.74,0.4,1.53,0.71,2.23,1.2
	c-0.95-1.23-2.04-1.18-3.06-1.38c-0.08-0.38-0.37-0.76-0.85-1.14c-1.02-0.17-2.1-0.1-3.12-0.13c-0.17-0.55,1.56-0.36-0.2-1.31
	c-1.45-0.01,0.86,1.42-1.34,0.93c-1.14-1.01-0.64-1.27-2.36-1.29c-0.14-0.35,0.25-0.44,0.92-0.39c-1.54-0.03-3.83-0.96-4.71-0.43
	c-1.32-0.9-4.88-0.7-4.61-1.69c-0.5,0.22-2.66,0.62-3.98,0.54c2.51-1.22-4.98-0.21-4.34-1.57c-1.81,1.17-6.53,0.76-9.61,1.8
	c0.17-0.11,0.49-0.33,0.78-0.3c-1.79,0.06-2.34-0.18-3.5-0.24c-0.1,1.02-2.81,1.57-4.14,2.47c-2.28-0.53,1.1-1.37,0.28-2.13
	c0.23,0.76-3.58,1.46-2.73,1.98c-1.74-0.27-1.45-0.01-2.44-0.62c-0.04,1.25-1.47,0.53-2.65,1.55c-2.46-0.07-0.85-0.98-3.32-0.01
	C187.75,145.98,189.93,145,189.93,145z M130.77,161.8l0-0.01c0.51-0.12,0.95-0.23,1.23-0.29
	C131.74,161.56,131.39,161.65,130.77,161.8z M125.71,162.81c0.62-0.09,1.39-0.23,2.2-0.4c0.22,0.2,0.08,0.48-0.43,0.57
	C127.73,162.78,126.51,162.87,125.71,162.81z M137.38,165.38c-0.78,0.27-1.08,0.19-1.22,0.07c0.38-0.09,0.82-0.2,1.39-0.38
	c0.02-0.03,0.05-0.07,0.08-0.1C137.58,165.12,137.52,165.26,137.38,165.38z"/>
</svg>
