<svg xmlns="http://www.w3.org/2000/svg" viewBox="0 0 52.29 50.36"><g id="Layer_2" data-name="Layer 2"><g id="Layer_1-2" data-name="Layer 1"><path d="M51.93,24.66a2.57,2.57,0,0,0,.06.68Z" style="fill:#f6ba2c"/><path d="M52.29,21.38c-.25-.75-1-1.6-.91-2.52h.09a4.22,4.22,0,0,0-.95-2.5,6,6,0,0,1-1.13-2.25l.24.11a3.11,3.11,0,0,0-.56-1.32,7.49,7.49,0,0,1-.86-1.64c.1.35-.05.8-.49.21-.52-1.35-1.36-1.92-1.72-3l-1-.41a15.29,15.29,0,0,0-1.72-1.72,23.27,23.27,0,0,0-2.73-2.1A26.26,26.26,0,0,0,32.73.81,25.3,25.3,0,0,0,24.34.08a25.55,25.55,0,0,0-5.67,1L18.83,1a26.79,26.79,0,0,0-6.09,2.65A24.9,24.9,0,0,0,6.57,8.76a23.56,23.56,0,0,0-4.22,6.81A20.63,20.63,0,0,0,.84,22c-.7,1-.67,2.63-.84,3.81.23-.65.57-.42.53.09,0,1.77.14,1.83.26,1.88s.21.13.59,1.86c.13.49.26,1.17.5,1.95s.48,1.71.86,2.68A26.37,26.37,0,0,0,5.93,40.4a28.77,28.77,0,0,0,8.38,7.78c2,.28,4.17,1.52,6.15,1.5l-.23.12,3,.41c.7,0,1.47.11,2.29.15s1.67,0,2.53-.06,1.72-.19,2.54-.33,1.6-.35,2.3-.55a14.51,14.51,0,0,0,3-1.24l-.34,0c1.67-1.29,1.76-.47,3.33-1.13-.31-.29,2.23-2.3,2.23-2.3.75-.7,3.73-3.93,4.26-4.66s1.33-1.41,1.55-1.83a43,43,0,0,0,2.33-4.54,48.5,48.5,0,0,0,1.61-6.16s0-2.84.6-2.86A3.76,3.76,0,0,1,51.36,26c.27-.13.36-1.19.17-1.74l-.62,0c-.31-1.23.38-.32.17-1.55.25-.06.44.18.59.58a6.69,6.69,0,0,1,.26,1.46c0-.92.3-1.9-.33-2.2C51.68,21.56,52.24,22.47,52.29,21.38Z" style="fill:#f6ba2c"/></g></g></svg>